<?xml version="1.0" ?><svg viewBox="0 0 64 64" xmlns="http://www.w3.org/2000/svg"><defs><style>.cls-1{fill:#94d8e5;}</style></defs><g data-name="Snowflake" id="Snowflake-10"><path class="cls-1" d="M32,5a1.27,1.27,0,0,0-1.11.64L28.74,9.39a3.77,3.77,0,0,0,1.07,4.95l1.45,1a1.26,1.26,0,0,0,1.48,0l1.45-1a3.77,3.77,0,0,0,1.07-4.95L33.11,5.64A1.27,1.27,0,0,0,32,5Z" id="path34163-3-1-0"/><path class="cls-1" d="M32,59a1.27,1.27,0,0,1-1.11-.64l-2.15-3.75a3.77,3.77,0,0,1,1.07-5l1.45-1a1.26,1.26,0,0,1,1.48,0l1.45,1a3.77,3.77,0,0,1,1.07,5l-2.15,3.75A1.27,1.27,0,0,1,32,59Z" id="path77908-8-9"/><path class="cls-1" d="M55.38,18.5a1.27,1.27,0,0,0-1.1-.64H49.94a3.78,3.78,0,0,0-3.74,3.41L46,23.05a1.27,1.27,0,0,0,.74,1.28l1.62.74a3.8,3.8,0,0,0,4.82-1.55l2.17-3.74A1.27,1.27,0,0,0,55.38,18.5Z" id="path78102-7-1"/><path class="cls-1" d="M8.62,45.5a1.27,1.27,0,0,1,0-1.28l2.17-3.74a3.78,3.78,0,0,1,4.82-1.55l1.62.74A1.27,1.27,0,0,1,18,41l-.17,1.77a3.78,3.78,0,0,1-3.74,3.41H9.72A1.27,1.27,0,0,1,8.62,45.5Z" id="path78104-9-7"/><path class="cls-1" d="M8.62,18.5a1.27,1.27,0,0,1,1.1-.64h4.34a3.78,3.78,0,0,1,3.74,3.41L18,23.05a1.27,1.27,0,0,1-.74,1.28l-1.62.74a3.8,3.8,0,0,1-4.82-1.55L8.62,19.78A1.27,1.27,0,0,1,8.62,18.5Z" id="path78106-2-7"/><path class="cls-1" d="M55.38,45.5a1.27,1.27,0,0,0,0-1.28l-2.17-3.74a3.78,3.78,0,0,0-4.82-1.55l-1.62.74A1.27,1.27,0,0,0,46,41l.17,1.77a3.78,3.78,0,0,0,3.74,3.41h4.34A1.27,1.27,0,0,0,55.38,45.5Z" id="path78108-0-1"/><path class="cls-1" d="M22.86,16.41a1.51,1.51,0,0,0-1.19,2.37l3.73,5.27L21.68,30.5H15.44a1.5,1.5,0,1,0,0,3h6.24L25.4,40l-3.73,5.27A1.5,1.5,0,1,0,24.12,47l3.73-5.26h8.3L39.88,47a1.5,1.5,0,1,0,2.45-1.73L38.6,40l3.72-6.45h6.24a1.5,1.5,0,0,0,0-3H42.32L38.6,24.05l3.73-5.27A1.5,1.5,0,0,0,39.88,17l-3.73,5.27h-8.3L24.12,17A1.51,1.51,0,0,0,22.86,16.41Zm5.28,8.9h7.72L39.72,32l-3.86,6.69H28.14L24.28,32Z" id="path23711-3-6-1"/><g id="path34163-3-1"><path d="M32,16.61a2.27,2.27,0,0,1-1.32-.42l-1.45-1A4.81,4.81,0,0,1,27.87,8.9L30,5.14a2.27,2.27,0,0,1,3.94,0L36.13,8.9a4.81,4.81,0,0,1-1.36,6.26l-1.45,1A2.27,2.27,0,0,1,32,16.61ZM32,6a.27.27,0,0,0-.24.14L29.6,9.89a2.81,2.81,0,0,0,.79,3.64l1.45,1a.27.27,0,0,0,.32,0l1.45-1a2.81,2.81,0,0,0,.79-3.64L32.24,6.14A.27.27,0,0,0,32,6Z"/></g><g id="path77908-8"><path d="M32,60a2.28,2.28,0,0,1-2-1.14L27.87,55.1a4.81,4.81,0,0,1,1.36-6.26l1.45-1a2.28,2.28,0,0,1,2.64,0l1.45,1a4.81,4.81,0,0,1,1.36,6.26L34,58.86A2.28,2.28,0,0,1,32,60Zm0-10.61a.3.3,0,0,0-.16,0l-1.45,1a2.81,2.81,0,0,0-.79,3.64l2.16,3.75a.29.29,0,0,0,.48,0l2.16-3.75a2.81,2.81,0,0,0-.79-3.64l-1.45-1A.3.3,0,0,0,32,49.39Z"/></g><g id="path78102-7"><path d="M49.92,26.4A4.79,4.79,0,0,1,48,26l-1.62-.74A2.28,2.28,0,0,1,45,23l.17-1.77a4.82,4.82,0,0,1,4.74-4.31h4.33a2.3,2.3,0,0,1,2,1.14,2.27,2.27,0,0,1,0,2.28L54.07,24A4.81,4.81,0,0,1,49.92,26.4Zm4.36-7.54H50a2.8,2.8,0,0,0-2.76,2.5L47,23.14a.29.29,0,0,0,.16.28l1.62.74A2.79,2.79,0,0,0,52.34,23l2.18-3.74a.28.28,0,0,0,0-.28h0A.27.27,0,0,0,54.28,18.86Z"/></g><g id="path78104-9"><path d="M9.72,47.14a2.29,2.29,0,0,1-2-1.14,2.27,2.27,0,0,1,0-2.28L9.93,40A4.82,4.82,0,0,1,16,38l1.62.74A2.28,2.28,0,0,1,19,41.05l-.17,1.77a4.82,4.82,0,0,1-4.74,4.31H9.72Zm4.35-7.54A2.78,2.78,0,0,0,11.66,41L9.48,44.72a.28.28,0,0,0,0,.28.27.27,0,0,0,.24.14h4.33a2.8,2.8,0,0,0,2.76-2.5L17,40.86a.29.29,0,0,0-.16-.28l-1.62-.74A2.8,2.8,0,0,0,14.07,39.6Z"/></g><g id="path78106-2"><path d="M14.08,26.4A4.81,4.81,0,0,1,9.93,24L7.75,20.28a2.27,2.27,0,0,1,0-2.28h0a2.29,2.29,0,0,1,2-1.14h4.34a4.82,4.82,0,0,1,4.74,4.31L19,23a2.28,2.28,0,0,1-1.32,2.29L16,26A4.79,4.79,0,0,1,14.08,26.4ZM9.72,18.86a.27.27,0,0,0-.24.14h0a.28.28,0,0,0,0,.28L11.66,23a2.79,2.79,0,0,0,3.54,1.14l1.62-.74a.29.29,0,0,0,.16-.28l-.17-1.77a2.8,2.8,0,0,0-2.76-2.5Zm-1.1-.36h0Z"/></g><g id="path78108-0"><path d="M49.94,47.13a4.82,4.82,0,0,1-4.74-4.31L45,41.05a2.28,2.28,0,0,1,1.32-2.29L48,38A4.82,4.82,0,0,1,54.07,40l2.18,3.75a2.27,2.27,0,0,1,0,2.28C55.2,47.82,53.13,46.9,49.94,47.13Zm0-7.53a2.8,2.8,0,0,0-1.13.24l-1.62.74a.29.29,0,0,0-.16.28l.17,1.77A2.8,2.8,0,0,0,50,45.13h4.33a.27.27,0,0,0,.24-.14.28.28,0,0,0,0-.28L52.34,41A2.78,2.78,0,0,0,49.93,39.6Z"/></g><g id="path78143-2"><path d="M32,12.93a1,1,0,0,1-1-1V9.37a1,1,0,1,1,2,0v2.56A1,1,0,0,1,32,12.93Z"/></g><g id="path79239-3"><path d="M32,55.63a1,1,0,0,1-1-1V52.07a1,1,0,1,1,2,0v2.56A1,1,0,0,1,32,55.63Z"/></g><g id="path79439-7"><path d="M49.38,23a1,1,0,0,1-.5-1.86l2.22-1.28a1,1,0,0,1,1.36.36,1,1,0,0,1-.36,1.37l-2.22,1.28A1,1,0,0,1,49.38,23Z"/></g><g id="path79441-5"><path d="M12.4,44.31a1,1,0,0,1-.5-1.86l2.22-1.28a1,1,0,0,1,1.37.36,1,1,0,0,1-.37,1.37L12.9,44.18A1,1,0,0,1,12.4,44.31Z"/></g><g id="path79443-9"><path d="M14.62,23a1,1,0,0,1-.5-.13L11.9,21.55a1,1,0,0,1,1-1.73l2.22,1.28a1,1,0,0,1-.5,1.86Z"/></g><g id="path79445-2"><path d="M51.6,44.31a1,1,0,0,1-.5-.13L48.88,42.9a1,1,0,0,1-.37-1.37,1,1,0,0,1,1.37-.36l2.22,1.28a1,1,0,0,1-.5,1.86Z"/></g><g id="path23711-3-6"><path d="M41.11,48.59a2.09,2.09,0,0,1-.43,0,2.46,2.46,0,0,1-1.62-1l-3.43-4.84H28.37l-3.43,4.84a2.51,2.51,0,0,1-3.49.6,2.5,2.5,0,0,1-.59-3.48l3.36-4.75L21.1,34.5H15.44a2.5,2.5,0,1,1,0-5H21.1l3.12-5.4-3.36-4.75a2.5,2.5,0,0,1,2-3.94h.05a2.49,2.49,0,0,1,2,1.06l3.44,4.84h7.26l3.43-4.84a2.51,2.51,0,0,1,3.49-.6,2.51,2.51,0,0,1,.6,3.48L39.78,24.1l3.12,5.4h5.66a2.5,2.5,0,0,1,0,5H42.9l-3.12,5.4,3.36,4.74a2.5,2.5,0,0,1-2,4Zm-13.26-7.9h8.3a1,1,0,0,1,.81.42l3.73,5.27a.52.52,0,0,0,.7.12.5.5,0,0,0,.12-.7l-3.73-5.27a1,1,0,0,1-.05-1.08L41.45,33a1,1,0,0,1,.87-.5h6.24a.5.5,0,0,0,0-1H42.32a1,1,0,0,1-.87-.5l-3.72-6.45a1,1,0,0,1,.05-1.08l3.73-5.27a.5.5,0,0,0-.12-.7.46.46,0,0,0-.37-.08.48.48,0,0,0-.32.2L37,22.89a1,1,0,0,1-.81.42h-8.3a1,1,0,0,1-.81-.42L23.3,17.62a.61.61,0,0,0-.42-.21.48.48,0,0,0-.27.09.5.5,0,0,0-.12.7l3.73,5.27a1,1,0,0,1,.05,1.08L22.55,31a1,1,0,0,1-.87.5H15.44a.5.5,0,1,0,0,1h6.24a1,1,0,0,1,.86.5l3.73,6.45a1,1,0,0,1-.05,1.08L22.49,45.8a.5.5,0,0,0,.12.7.54.54,0,0,0,.37.08.48.48,0,0,0,.32-.2L27,41.11A1,1,0,0,1,27.85,40.69Zm8-1H28.14a1,1,0,0,1-.87-.5L23.41,32.5a1,1,0,0,1,0-1l3.86-6.69a1,1,0,0,1,.87-.5h7.72a1.05,1.05,0,0,1,.71.29l.16.21,3.86,6.69a1,1,0,0,1,0,1l-3.86,6.69a1.56,1.56,0,0,1-.16.2A1,1,0,0,1,35.86,39.69Zm-7.14-2h6.56L38.57,32l-3.29-5.69H28.72L25.43,32Z"/></g></g></svg>