<?xml version="1.0" ?><svg viewBox="0 0 64 64" xmlns="http://www.w3.org/2000/svg"><defs><style>.cls-1{fill:#94d8e5;}</style></defs><g data-name="Snowflake" id="Snowflake-31"><path class="cls-1" d="M29,24.19a1.51,1.51,0,0,0-2.23,1.29l-.06,3.45-3,1.78a1.51,1.51,0,0,0,0,2.58l3,1.78.06,3.45A1.51,1.51,0,0,0,29,39.81l3-1.68,3,1.68a1.51,1.51,0,0,0,2.23-1.29l.06-3.45,3-1.78a1.51,1.51,0,0,0,0-2.58l-3-1.78-.06-3.45A1.51,1.51,0,0,0,35,24.19l-3,1.68ZM29.71,28l1.56.86a1.51,1.51,0,0,0,1.46,0L34.29,28l0,1.79a1.52,1.52,0,0,0,.72,1.26l1.54.92-1.54.92a1.52,1.52,0,0,0-.72,1.26l0,1.79-1.56-.86a1.51,1.51,0,0,0-1.46,0L29.71,36l0-1.79A1.52,1.52,0,0,0,29,32.92L27.41,32,29,31.08a1.52,1.52,0,0,0,.72-1.26Z" id="path29724-5"/><path class="cls-1" d="M32,5a1.5,1.5,0,0,0-1.5,1.5V7.63l-3.42,3.42a1.49,1.49,0,0,0,0,2.12L30.5,16.6V18l-2.65-1.47a1.5,1.5,0,1,0-1.45,2.62l4.87,2.7a1.51,1.51,0,0,0,1.46,0l4.88-2.7a1.5,1.5,0,1,0-1.46-2.62L33.5,18V16.6l3.42-3.43a1.49,1.49,0,0,0,0-2.12L33.5,7.63V6.5A1.5,1.5,0,0,0,32,5ZM16.71,17.21a1.74,1.74,0,0,0-.39.05l-4.68,1.26-1-.57a1.5,1.5,0,1,0-1.5,2.6l1,.56,1.26,4.68a1.49,1.49,0,0,0,1.83,1.06l4.68-1.25,1.18.68-2.6,1.56A1.5,1.5,0,0,0,18,30.41l4.77-2.87a1.5,1.5,0,0,0,.73-1.26l.1-5.58a1.5,1.5,0,0,0-3-.05l-.05,3L19.41,23l-1.25-4.68A1.51,1.51,0,0,0,16.71,17.21Zm30.58,0a1.51,1.51,0,0,0-1.45,1.11L44.59,23l-1.18.68,0-3a1.5,1.5,0,0,0-3,.05l.1,5.58a1.5,1.5,0,0,0,.73,1.26L46,30.41a1.5,1.5,0,0,0,1.55-2.57l-2.6-1.56,1.18-.68,4.68,1.25a1.49,1.49,0,0,0,1.83-1.06l1.26-4.68,1-.56a1.5,1.5,0,1,0-1.5-2.6l-1,.57-4.68-1.26A1.74,1.74,0,0,0,47.29,17.21Zm-30,16.17a1.5,1.5,0,0,0-.8,2.78l2.6,1.56-1.18.68-4.68-1.25a1.49,1.49,0,0,0-1.83,1.06l-1.26,4.68-1,.56a1.5,1.5,0,0,0,1.5,2.6l1-.57,4.68,1.26a1.51,1.51,0,0,0,1.84-1.06L19.41,41l1.18-.68.05,3a1.5,1.5,0,0,0,3-.05l-.1-5.58a1.5,1.5,0,0,0-.73-1.26L18,33.59A1.44,1.44,0,0,0,17.29,33.38Zm29.42,0a1.44,1.44,0,0,0-.75.21l-4.77,2.87a1.5,1.5,0,0,0-.73,1.26l-.1,5.58a1.5,1.5,0,0,0,3,.05l0-3,1.18.68,1.25,4.68a1.51,1.51,0,0,0,1.84,1.06l4.68-1.26,1,.57a1.5,1.5,0,0,0,1.5-2.6l-1-.56L52.6,38.21a1.49,1.49,0,0,0-1.83-1.06L46.09,38.4l-1.18-.68,2.6-1.56a1.5,1.5,0,0,0-.8-2.78ZM32,42a1.47,1.47,0,0,0-.73.19l-4.88,2.7a1.5,1.5,0,1,0,1.46,2.62L30.5,46V47.4l-3.42,3.43a1.49,1.49,0,0,0,0,2.12l3.42,3.42V57.5a1.5,1.5,0,0,0,3,0V56.37L36.92,53a1.49,1.49,0,0,0,0-2.12L33.5,47.4V46l2.65,1.47a1.5,1.5,0,1,0,1.46-2.62l-4.88-2.7A1.47,1.47,0,0,0,32,42Z" id="path31022-0"/><g id="path29724"><path d="M28.25,41A2.55,2.55,0,0,1,27,40.66a2.48,2.48,0,0,1-1.25-2.12l-.05-2.9-2.49-1.5a2.5,2.5,0,0,1,0-4.28l2.49-1.5.05-2.9a2.5,2.5,0,0,1,3.71-2.14L32,24.72l2.54-1.4a2.5,2.5,0,0,1,3.71,2.14l0,2.9,2.49,1.5a2.5,2.5,0,0,1,0,4.28l-2.49,1.5,0,2.9a2.5,2.5,0,0,1-3.71,2.14L32,39.28l-2.54,1.4A2.49,2.49,0,0,1,28.25,41Zm0-16a.58.58,0,0,0-.25.07.51.51,0,0,0-.25.43L27.69,29a1,1,0,0,1-.49.84l-3,1.78a.51.51,0,0,0,0,.86l3,1.78a1,1,0,0,1,.49.84l.06,3.45a.51.51,0,0,0,.25.43.48.48,0,0,0,.49,0l3-1.67a1,1,0,0,1,1,0l3,1.67a.48.48,0,0,0,.49,0,.51.51,0,0,0,.25-.43l.06-3.45a1,1,0,0,1,.49-.84l3-1.78a.51.51,0,0,0,0-.86l-3-1.78a1,1,0,0,1-.49-.84l-.06-3.45a.51.51,0,0,0-.25-.43.48.48,0,0,0-.49,0l-3,1.67a1,1,0,0,1-1,0l-3-1.67h0A.47.47,0,0,0,28.25,25Zm6,12a1,1,0,0,1-.48-.12L32.24,36a.51.51,0,0,0-.48,0l-1.57.87A1,1,0,0,1,28.71,36l0-1.79a.49.49,0,0,0-.24-.42l-1.54-.92a1,1,0,0,1,0-1.72l1.54-.92a.49.49,0,0,0,.24-.42l0-1.79a1,1,0,0,1,1.48-.86l1.57.87a.51.51,0,0,0,.48,0l1.57-.87a1,1,0,0,1,1.48.86l0,1.79a.49.49,0,0,0,.24.42l1.54.92a1,1,0,0,1,0,1.72l-1.54.92a.49.49,0,0,0-.24.42l0,1.79a1,1,0,0,1-.5.85A1,1,0,0,1,34.29,37Zm-2.29-3a2.48,2.48,0,0,1,1.21.31l.12.07v-.13a2.47,2.47,0,0,1,1.21-2.1l.11-.07-.11-.07a2.47,2.47,0,0,1-1.21-2.1V29.7l-.12.07a2.48,2.48,0,0,1-2.42,0l-.12-.07v.14a2.47,2.47,0,0,1-1.21,2.09l-.11.07.11.07a2.47,2.47,0,0,1,1.21,2.1v.13l.12-.07A2.48,2.48,0,0,1,32,33.92Z"/></g><g id="path31022"><path d="M32,60a2.5,2.5,0,0,1-2.5-2.5v-.71l-3.13-3.14a2.49,2.49,0,0,1,0-3.53l1.55-1.55a2.5,2.5,0,0,1-2-4.56l4.88-2.7a2.53,2.53,0,0,1,2.42,0L38.09,44a2.5,2.5,0,0,1-2,4.56l1.55,1.55a2.49,2.49,0,0,1,0,3.53L34.5,56.79v.71A2.5,2.5,0,0,1,32,60ZM30.5,45a1,1,0,0,1,.51.14,1,1,0,0,1,.49.86V47.4a1,1,0,0,1-.29.71l-3.43,3.42a.52.52,0,0,0,0,.71l3.43,3.42a1.05,1.05,0,0,1,.29.71V57.5a.5.5,0,0,0,1,0V56.37a1.05,1.05,0,0,1,.29-.71l3.43-3.42a.52.52,0,0,0,0-.71l-3.43-3.42a1,1,0,0,1-.29-.71V46a1,1,0,0,1,.49-.86,1,1,0,0,1,1,0l2.66,1.47a.49.49,0,0,0,.38,0,.5.5,0,0,0,.1-.92l-4.88-2.7a.51.51,0,0,0-.48,0l-4.88,2.7a.5.5,0,0,0,.1.92.48.48,0,0,0,.38,0L30,45.17A.91.91,0,0,1,30.5,45Zm16.79,2.75a2.51,2.51,0,0,1-2.41-1.85l-.57-2.12a2.5,2.5,0,0,1-4.25,1.24,2.42,2.42,0,0,1-.7-1.78l.1-5.58a2.49,2.49,0,0,1,1.21-2.09l4.78-2.88a2.44,2.44,0,0,1,1.24-.35h0a2.5,2.5,0,0,1,1.7,4.37l2.12-.57A2.51,2.51,0,0,1,53.57,38l1.14,4.28.62.35A2.51,2.51,0,0,1,56.25,46a2.51,2.51,0,0,1-3.42.91l-.62-.35L47.94,47.7A2.48,2.48,0,0,1,47.29,47.79Zm-3.88-8.47a1,1,0,0,1,.5.13l1.18.68a1,1,0,0,1,.47.61l1.25,4.68a.5.5,0,0,0,.61.35l4.68-1.25a1,1,0,0,1,.76.1l1,.56a.5.5,0,0,0,.38,0,.47.47,0,0,0,.31-.23.51.51,0,0,0-.19-.68l-1-.57a1,1,0,0,1-.47-.6l-1.25-4.68a.51.51,0,0,0-.62-.35l-4.67,1.25a1,1,0,0,1-.76-.1l-1.18-.68a1,1,0,0,1-.5-.86,1,1,0,0,1,.49-.86L47,35.3a.48.48,0,0,0,.17-.68.47.47,0,0,0-.43-.24h0a.43.43,0,0,0-.25.07L41.7,37.32a.49.49,0,0,0-.24.42l-.1,5.57a.43.43,0,0,0,.14.36.46.46,0,0,0,.35.15h0a.5.5,0,0,0,.35-.14.54.54,0,0,0,.15-.35l0-3a1,1,0,0,1,.51-.85A1,1,0,0,1,43.41,39.32Zm-26.7,8.47a2.43,2.43,0,0,1-.65-.09l-4.27-1.14-.62.36a2.48,2.48,0,0,1-1.9.24A2.44,2.44,0,0,1,7.75,46a2.49,2.49,0,0,1,.92-3.41l.62-.36L10.43,38a2.52,2.52,0,0,1,3.06-1.77l2.12.57a2.5,2.5,0,0,1,1.7-4.37h0a2.44,2.44,0,0,1,1.24.35l4.78,2.88a2.49,2.49,0,0,1,1.21,2.09l.1,5.58a2.42,2.42,0,0,1-.7,1.78,2.45,2.45,0,0,1-1.75.76,2.51,2.51,0,0,1-1.78-.7,2.48,2.48,0,0,1-.72-1.3l-.57,2.11A2.5,2.5,0,0,1,16.71,47.79Zm-5.07-3.31a1.09,1.09,0,0,1,.26,0l4.68,1.25a.5.5,0,0,0,.61-.35l1.25-4.68a1,1,0,0,1,.47-.61l1.18-.68a1,1,0,0,1,1.5.85l.05,3a.54.54,0,0,0,.15.35.5.5,0,0,0,.35.14h0a.46.46,0,0,0,.35-.15.43.43,0,0,0,.14-.35l-.1-5.58a.49.49,0,0,0-.24-.42l-4.78-2.87a.43.43,0,0,0-.25-.07.55.55,0,0,0-.43.24.48.48,0,0,0,.17.68l2.59,1.57a1,1,0,0,1,.49.86,1,1,0,0,1-.5.86l-1.18.68a1,1,0,0,1-.76.1L13,38.12a.51.51,0,0,0-.62.35l-1.25,4.68a1,1,0,0,1-.47.6l-1,.57a.51.51,0,0,0-.19.68.47.47,0,0,0,.31.23.5.5,0,0,0,.38,0l1-.56A1,1,0,0,1,11.64,44.48ZM46.73,31.63a2.52,2.52,0,0,1-1.28-.36l-4.78-2.88a2.49,2.49,0,0,1-1.21-2.09l-.1-5.58a2.42,2.42,0,0,1,.7-1.78,2.51,2.51,0,0,1,4.25,1.24l.57-2.11a2.53,2.53,0,0,1,3.06-1.77l4.27,1.14.62-.36a2.48,2.48,0,0,1,1.9-.24A2.44,2.44,0,0,1,56.25,18a2.49,2.49,0,0,1-.92,3.41l-.62.36-1.14,4.28a2.51,2.51,0,0,1-3.06,1.77l-2.12-.57a2.5,2.5,0,0,1,.49,3.16,2.47,2.47,0,0,1-1.54,1.14A2.55,2.55,0,0,1,46.73,31.63ZM41.86,20.18h0a.46.46,0,0,0-.35.15.43.43,0,0,0-.14.35l.1,5.58a.49.49,0,0,0,.24.42l4.78,2.87a.47.47,0,0,0,.38.06A.5.5,0,0,0,47,28.7L44.4,27.13a1,1,0,0,1-.49-.86,1,1,0,0,1,.5-.86l1.18-.68a1,1,0,0,1,.76-.1L51,25.88a.51.51,0,0,0,.62-.35l1.25-4.68a1,1,0,0,1,.47-.6l1-.57a.51.51,0,0,0,.19-.68.47.47,0,0,0-.31-.23.5.5,0,0,0-.38.05l-1,.56a1,1,0,0,1-.76.1l-4.68-1.25a.52.52,0,0,0-.61.35l-1.25,4.68a1,1,0,0,1-.47.61l-1.18.68a1,1,0,0,1-1,0,1,1,0,0,1-.51-.85l0-3a.54.54,0,0,0-.15-.35A.5.5,0,0,0,41.86,20.18ZM44.59,23h0ZM17.27,31.63a2.55,2.55,0,0,1-.61-.08,2.47,2.47,0,0,1-1.54-1.14,2.5,2.5,0,0,1,.49-3.16l-2.12.57a2.51,2.51,0,0,1-3.06-1.77L9.29,21.77l-.62-.35A2.51,2.51,0,0,1,7.75,18a2.51,2.51,0,0,1,3.42-.91l.62.35,4.27-1.14a2.52,2.52,0,0,1,3.06,1.77l.57,2.11a2.48,2.48,0,0,1,.72-1.3,2.58,2.58,0,0,1,1.78-.7,2.45,2.45,0,0,1,1.75.76,2.42,2.42,0,0,1,.7,1.78l-.1,5.58a2.49,2.49,0,0,1-1.21,2.09l-4.78,2.88A2.52,2.52,0,0,1,17.27,31.63Zm.64-7a1,1,0,0,1,.5.13l1.18.68a1,1,0,0,1,.5.86,1,1,0,0,1-.49.86L17,28.7a.5.5,0,0,0,.13.91.47.47,0,0,0,.38-.06l4.78-2.87a.49.49,0,0,0,.24-.42l.1-5.57a.43.43,0,0,0-.14-.36.46.46,0,0,0-.35-.15h0a.5.5,0,0,0-.35.14.54.54,0,0,0-.15.35l-.05,3a1,1,0,0,1-1.5.85l-1.18-.68a1,1,0,0,1-.47-.61l-1.25-4.68a.5.5,0,0,0-.61-.35L11.9,19.48a1,1,0,0,1-.76-.1l-1-.56a.5.5,0,0,0-.38-.05.47.47,0,0,0-.31.23.51.51,0,0,0,.19.68l1,.57a1,1,0,0,1,.47.6l1.25,4.68a.5.5,0,0,0,.62.35l4.67-1.25A1.15,1.15,0,0,1,17.91,24.6ZM32,23a2.48,2.48,0,0,1-1.21-.31L25.91,20a2.51,2.51,0,0,1-1-3.4,2.52,2.52,0,0,1,3-1.16l-1.55-1.55a2.49,2.49,0,0,1,0-3.53L29.5,7.21V6.5a2.5,2.5,0,0,1,5,0v.71l3.13,3.14a2.49,2.49,0,0,1,0,3.53l-1.55,1.55a2.5,2.5,0,0,1,2,4.56l-4.88,2.7A2.48,2.48,0,0,1,32,23Zm-4.88-5.7-.14,0a.51.51,0,0,0-.3.24.54.54,0,0,0,0,.38.51.51,0,0,0,.24.3l4.88,2.7a.51.51,0,0,0,.48,0l4.88-2.7a.5.5,0,0,0-.1-.92.54.54,0,0,0-.38,0L34,18.83a1,1,0,0,1-1,0A1,1,0,0,1,32.5,18V16.6a1,1,0,0,1,.29-.71l3.43-3.42a.52.52,0,0,0,0-.71L32.79,8.34a1.05,1.05,0,0,1-.29-.71V6.5a.5.5,0,0,0-1,0V7.63a1.05,1.05,0,0,1-.29.71l-3.43,3.42a.52.52,0,0,0,0,.71l3.43,3.42a1,1,0,0,1,.29.71V18a1,1,0,0,1-.49.86,1,1,0,0,1-1,0l-2.66-1.47A.45.45,0,0,0,27.12,17.3ZM30.5,7.63h0Z"/></g><g id="path34399-0"><path d="M32,14.4a1,1,0,0,1-1-1v-3a1,1,0,1,1,2,0v3A1,1,0,0,1,32,14.4Z"/></g><g id="path34481-2"><path d="M32,54.18a1,1,0,0,1-1-1v-3a1,1,0,0,1,2,0v3A1,1,0,0,1,32,54.18Z"/></g><g id="path37060"><path d="M47.91,23.59a1,1,0,0,1-.5-1.87L50,20.21a1,1,0,1,1,1,1.73l-2.62,1.51A.93.93,0,0,1,47.91,23.59Z"/></g><g id="path37062"><path d="M13.47,43.48a1,1,0,0,1-.5-1.87l2.62-1.52a1,1,0,0,1,1,1.74L14,43.34A1,1,0,0,1,13.47,43.48Z"/></g><g id="path37064"><path d="M16.09,23.59a.93.93,0,0,1-.5-.14L13,21.94a1,1,0,1,1,1-1.73l2.62,1.51a1,1,0,0,1-.5,1.87Z"/></g><g id="path37066"><path d="M50.53,43.48a1,1,0,0,1-.5-.14l-2.62-1.51a1,1,0,0,1,1-1.74L51,41.61a1,1,0,0,1-.5,1.87Z"/></g></g></svg>