<?xml version="1.0" ?><svg viewBox="0 0 64 64" xmlns="http://www.w3.org/2000/svg"><defs><style>.cls-1{fill:#94d8e5;}</style></defs><g data-name="Snowflake" id="Snowflake-43"><path class="cls-1" d="M38.1,26.75l-2.45,1.41L33.5,26.92V24.09a4.45,4.45,0,0,0,0-8.39V14.44l3.64-3.65A1.5,1.5,0,0,0,35,8.67L33.5,10.2V6.5a1.5,1.5,0,0,0-3,0v3.7L29,8.67a1.52,1.52,0,0,0-1.06-.44,1.5,1.5,0,0,0-1.06,2.56l3.64,3.65V15.7a4.45,4.45,0,0,0,0,8.39v2.83l-2.15,1.24L25.9,26.75a4.46,4.46,0,0,0-7.27-4.2l-1.12-.65L16.18,17a1.5,1.5,0,1,0-2.9.77l.55,2.05L10.67,18a1.5,1.5,0,1,0-1.5,2.6l3.21,1.85L10.26,23A1.49,1.49,0,0,0,9.2,24.8,1.51,1.51,0,0,0,11,25.87l5-1.35,1.08.63a4.45,4.45,0,0,0,7.27,4.19l2.45,1.42v2.48L24.4,34.66a4.49,4.49,0,0,0-3.44-1,4.24,4.24,0,0,0-1.67.56,4.48,4.48,0,0,0-2.16,4.66L16,39.52,11,38.19a1.5,1.5,0,1,0-.78,2.9l2.05.55L9.17,43.45a1.5,1.5,0,0,0,1.5,2.6l3.18-1.84-.57,2.12a1.5,1.5,0,0,0,2.9.77l1.34-5,1.11-.64a4.45,4.45,0,0,0,7.27-4.2l2.45-1.41,2.15,1.24v2.83a4.45,4.45,0,0,0,0,8.39v1.32l-3.64,3.65a1.49,1.49,0,0,0,0,2.12,1.51,1.51,0,0,0,2.12,0l1.52-1.53V57.5a1.5,1.5,0,0,0,3,0V53.86L35,55.39a1.51,1.51,0,0,0,2.12,0,1.49,1.49,0,0,0,0-2.12L33.5,49.62V48.3a4.45,4.45,0,0,0,0-8.39V37.08l2.15-1.24,2.45,1.41a4.45,4.45,0,0,0,7.27,4.2l1.11.64,1.34,5a1.5,1.5,0,0,0,2.9-.77l-.57-2.12,3.18,1.84a1.5,1.5,0,0,0,1.5-2.6l-3.14-1.81,2.05-.55a1.5,1.5,0,0,0-.78-2.9L48,39.52l-1.15-.67a4.48,4.48,0,0,0-2.16-4.66A4.24,4.24,0,0,0,43,33.63a4.49,4.49,0,0,0-3.44,1l-2.45-1.42V30.76l2.45-1.42a4.45,4.45,0,0,0,7.27-4.19L48,24.52l5,1.35A1.51,1.51,0,0,0,54.8,24.8,1.49,1.49,0,0,0,53.74,23l-2.12-.57,3.21-1.85a1.5,1.5,0,1,0-1.5-2.6l-3.16,1.83.55-2.05a1.5,1.5,0,1,0-2.9-.77L46.49,21.9l-1.12.65a4.45,4.45,0,0,0-7.27,4.2Zm-7.56-6.86A1.46,1.46,0,1,1,32,21.36,1.44,1.44,0,0,1,30.54,19.89Zm-9.41,4.64a1.51,1.51,0,0,1,.42-.05,1.55,1.55,0,0,1,.7.2,1.45,1.45,0,0,1,.53,2,1.46,1.46,0,0,1-2.53-1.46A1.45,1.45,0,0,1,21.13,24.53Zm20.62.15a1.55,1.55,0,0,1,.7-.2,1.51,1.51,0,0,1,.42.05,1.45,1.45,0,0,1,.88.69,1.46,1.46,0,0,1-2.53,1.46A1.45,1.45,0,0,1,41.75,24.68ZM32,34.48l-2.15-1.24V30.76L32,29.52l2.15,1.24v2.48ZM20.79,36.79a1.37,1.37,0,0,1,.69-.2,1.38,1.38,0,0,1,1.3.73,1.46,1.46,0,1,1-2.53,1.46A1.43,1.43,0,0,1,20.79,36.79Zm21,2.53a1.45,1.45,0,0,1-.53-2,1.38,1.38,0,0,1,1.3-.73,1.37,1.37,0,0,1,.69.2,1.46,1.46,0,1,1-1.46,2.53ZM32,42.64a1.47,1.47,0,1,1-1.46,1.47A1.45,1.45,0,0,1,32,42.64Z" id="path68084-2"/><g id="path68084"><path d="M32,60a2.5,2.5,0,0,1-2.5-2.5V56.26a2.5,2.5,0,0,1-3.35-3.7l3.35-3.35V49a5.45,5.45,0,0,1,0-9.7v-1.6L28.35,37l-1.39.8a5.44,5.44,0,0,1-8.39,4.85l-.19.11-1.23,4.61A2.49,2.49,0,0,1,16,48.88a2.52,2.52,0,0,1-1.9.25,2.52,2.52,0,0,1-1.81-2.85l-1.1.64a2.48,2.48,0,0,1-1.9.24A2.44,2.44,0,0,1,7.75,46a2.49,2.49,0,0,1,.92-3.41L9.73,42a2.51,2.51,0,0,1-1.5-3,2.5,2.5,0,0,1,3.06-1.76l4.55,1.21.23-.13a5.45,5.45,0,0,1,8.39-4.85l1.39-.79V31.33l-1.39-.79a5.45,5.45,0,0,1-8.39-4.85l-.16-.09-4.62,1.23A2.5,2.5,0,0,1,9.8,22.07l-1.13-.66A2.46,2.46,0,0,1,7.5,19.9,2.52,2.52,0,0,1,7.75,18a2.44,2.44,0,0,1,1.52-1.16,2.47,2.47,0,0,1,1.9.24l1.09.64a2.5,2.5,0,0,1,1.82-2.79,2.43,2.43,0,0,1,1.9.25,2.49,2.49,0,0,1,1.17,1.52l1.21,4.54.21.12a5.55,5.55,0,0,1,3.62-.83A5.44,5.44,0,0,1,27,26.21l1.39.8,1.15-.67v-1.6a5.45,5.45,0,0,1,0-9.69v-.2L26.15,11.5a2.5,2.5,0,0,1,1.76-4.27h0a2.47,2.47,0,0,1,1.58.57V6.5a2.5,2.5,0,0,1,5,0V7.8a2.5,2.5,0,0,1,3.35,3.7L34.5,14.85v.2a5.45,5.45,0,0,1,0,9.69v1.6l1.15.67,1.39-.8a5.48,5.48,0,0,1,2.71-5,5.4,5.4,0,0,1,2.06-.69,5.56,5.56,0,0,1,3.62.83l.21-.12,1.21-4.54a2.5,2.5,0,0,1,4.89,1l1.09-.64a2.52,2.52,0,0,1,3.42.92,2.49,2.49,0,0,1-.92,3.41l-1.13.66a2.5,2.5,0,0,1-1.49,4.76L48.09,25.6l-.16.09a5.45,5.45,0,0,1-8.39,4.85l-1.39.79v1.34l1.39.79a5.54,5.54,0,0,1,3.62-.82,5.43,5.43,0,0,1,4.77,5.67l.23.13,4.55-1.21a2.5,2.5,0,0,1,2.81,3.66A2.53,2.53,0,0,1,54.27,42l1.06.61a2.5,2.5,0,1,1-2.5,4.34l-1.1-.64a2.52,2.52,0,0,1-1.81,2.85,2.52,2.52,0,0,1-1.9-.25,2.49,2.49,0,0,1-1.17-1.52l-1.23-4.61-.19-.11A5.44,5.44,0,0,1,37,37.79L35.65,37l-1.15.67v1.6a5.45,5.45,0,0,1,0,9.7v.25l3.35,3.35a2.5,2.5,0,0,1-3.35,3.7V57.5A2.5,2.5,0,0,1,32,60Zm-1.5-7.14a1,1,0,0,1,1,1V57.5a.5.5,0,0,0,1,0V53.86a1,1,0,0,1,.62-.92,1,1,0,0,1,1.09.22l1.52,1.52a.51.51,0,0,0,.71,0,.52.52,0,0,0,0-.71l-3.65-3.64a1,1,0,0,1-.29-.71V48.3a1,1,0,0,1,.66-.94,3.45,3.45,0,0,0,0-6.51,1,1,0,0,1-.66-.94V37.08a1,1,0,0,1,.5-.87L35.15,35a1,1,0,0,1,1,0l2.45,1.42a1,1,0,0,1,.48,1,3.46,3.46,0,0,0,5.64,3.26,1,1,0,0,1,1.15-.11l1.11.64a1,1,0,0,1,.46.61l1.34,5a.52.52,0,0,0,.62.35.54.54,0,0,0,.3-.23.49.49,0,0,0,0-.38l-.57-2.12a1,1,0,0,1,1.47-1.13l3.18,1.84a.5.5,0,1,0,.5-.86L51.19,42.5a1,1,0,0,1-.49-1,1,1,0,0,1,.73-.84l2-.55a.47.47,0,0,0,.31-.23.53.53,0,0,0,0-.38.5.5,0,0,0-.61-.35l-4.94,1.32a1,1,0,0,1-.76-.1l-1.15-.66a1,1,0,0,1-.49-1,3.47,3.47,0,0,0-1.67-3.62,3.25,3.25,0,0,0-1.29-.44,3.55,3.55,0,0,0-2.68.8,1,1,0,0,1-1.14.1l-2.45-1.41a1,1,0,0,1-.5-.87V30.76a1,1,0,0,1,.5-.87l2.45-1.41a1,1,0,0,1,1.14.1,3.46,3.46,0,0,0,5.64-3.26,1,1,0,0,1,.49-1l1.08-.62a1,1,0,0,1,.76-.1l5,1.34a.5.5,0,0,0,.26-1l-2.11-.56a1,1,0,0,1-.74-.84,1,1,0,0,1,.49-1l3.21-1.86a.5.5,0,1,0-.5-.86l-3.16,1.83a1,1,0,0,1-1.47-1.13l.55-2.05a.5.5,0,0,0-.35-.61.52.52,0,0,0-.62.35l-1.32,4.95a1,1,0,0,1-.47.61l-1.12.65a1,1,0,0,1-1.15-.1,3.46,3.46,0,0,0-2.67-.8,3.33,3.33,0,0,0-1.3.43,3.5,3.5,0,0,0-1.67,3.62,1,1,0,0,1-.48,1L36.15,29a1,1,0,0,1-1,0L33,27.79a1,1,0,0,1-.5-.87V24.09a1,1,0,0,1,.66-.94,3.45,3.45,0,0,0,0-6.51,1,1,0,0,1-.66-.94V14.44a1,1,0,0,1,.29-.71l3.65-3.64a.49.49,0,0,0,.14-.36.46.46,0,0,0-.14-.35.5.5,0,0,0-.71,0L34.21,10.9a1,1,0,0,1-1.71-.7V6.5a.5.5,0,0,0-1,0v3.7a1,1,0,0,1-1.71.7L28.27,9.38a.47.47,0,0,0-.35-.15h0a.49.49,0,0,0-.36.15.46.46,0,0,0-.14.35.49.49,0,0,0,.14.36l3.65,3.64a1,1,0,0,1,.29.71V15.7a1,1,0,0,1-.66.94,3.45,3.45,0,0,0,0,6.51,1,1,0,0,1,.66.94v2.83a1,1,0,0,1-.5.87L28.85,29a1,1,0,0,1-1,0L25.4,27.61a1,1,0,0,1-.48-1A3.5,3.5,0,0,0,23.25,23a3.33,3.33,0,0,0-1.3-.43,3.46,3.46,0,0,0-2.67.8,1,1,0,0,1-1.15.1L17,22.77a1,1,0,0,1-.47-.61l-1.32-4.95a.51.51,0,0,0-.24-.3.47.47,0,0,0-.38-.05.5.5,0,0,0-.35.61l.55,2.05a1,1,0,0,1-1.47,1.13l-3.16-1.83a.5.5,0,0,0-.38-.05.47.47,0,0,0-.31.23.5.5,0,0,0-.05.38.51.51,0,0,0,.24.3l3.21,1.86a1,1,0,0,1,.49,1,1,1,0,0,1-.74.84l-2.11.56a.5.5,0,0,0,.26,1l5-1.34a1,1,0,0,1,.76.1l1.08.62a1,1,0,0,1,.49,1,3.46,3.46,0,0,0,5.64,3.26,1,1,0,0,1,1.14-.1l2.45,1.41a1,1,0,0,1,.5.87v2.48a1,1,0,0,1-.5.87L24.9,35.52a1,1,0,0,1-1.14-.1,3.56,3.56,0,0,0-2.68-.8,3.4,3.4,0,0,0-1.3.44,3.47,3.47,0,0,0-1.66,3.62,1,1,0,0,1-.49,1l-1.15.66a1,1,0,0,1-.76.1l-4.94-1.32a.5.5,0,0,0-.61.35.53.53,0,0,0,0,.38.47.47,0,0,0,.31.23l2.05.55a1,1,0,0,1,.73.84,1,1,0,0,1-.49,1L9.67,44.32a.51.51,0,0,0-.19.68.47.47,0,0,0,.31.23.5.5,0,0,0,.38,0l3.18-1.84a1,1,0,0,1,1.47,1.13l-.57,2.11a.5.5,0,0,0,.05.39.54.54,0,0,0,.3.23.51.51,0,0,0,.62-.36l1.34-5a1,1,0,0,1,.46-.61l1.11-.64a1,1,0,0,1,1.15.11,3.46,3.46,0,0,0,5.64-3.26,1,1,0,0,1,.48-1L27.85,35a1,1,0,0,1,1,0L31,36.21a1,1,0,0,1,.5.87v2.83a1,1,0,0,1-.66.94,3.45,3.45,0,0,0,0,6.51,1,1,0,0,1,.66.94v1.32a1,1,0,0,1-.29.71L27.56,54a.5.5,0,1,0,.71.71l1.52-1.52A1,1,0,0,1,30.5,52.86ZM32,46.57a2.47,2.47,0,1,1,2.46-2.46A2.43,2.43,0,0,1,32,46.57Zm0-2.93a.47.47,0,1,0,.46.47A.44.44,0,0,0,32,43.64Zm10.5-3.12a2.45,2.45,0,0,1-1.25-.34h0a2.44,2.44,0,0,1-.9-3.36,2.48,2.48,0,0,1,1.49-1.15,2.42,2.42,0,0,1,.71-.08,2.54,2.54,0,0,1,1.17.33,2.45,2.45,0,0,1,.9,3.36,2.49,2.49,0,0,1-1.49,1.16A2.27,2.27,0,0,1,42.5,40.52Zm-.42-2.7a.45.45,0,0,0,.17.63h0a.46.46,0,1,0,.46-.8A.45.45,0,0,0,42.08,37.82ZM21.5,40.52a2.15,2.15,0,0,1-.62-.08,2.48,2.48,0,0,1-1.5-1.16,2.43,2.43,0,0,1,.91-3.36h0a2.47,2.47,0,0,1,1.16-.33,2.42,2.42,0,0,1,.71.08,2.48,2.48,0,0,1,1.49,1.15,2.48,2.48,0,0,1-2.15,3.7Zm-.21-2.87h0a.46.46,0,0,0,.46.8.46.46,0,0,0-.46-.8Zm-.5-.86ZM32,35.48a1,1,0,0,1-.5-.13l-2.15-1.24a1,1,0,0,1-.5-.87V30.76a1,1,0,0,1,.5-.87l2.15-1.24a1,1,0,0,1,1,0l2.15,1.24a1,1,0,0,1,.5.87v2.48a1,1,0,0,1-.5.87L32.5,35.35A1,1,0,0,1,32,35.48Zm-1.15-2.82,1.15.67,1.15-.67V31.34L32,30.67l-1.15.67Zm11.62-4.24a2.28,2.28,0,0,1-.63-.09,2.46,2.46,0,0,1-.59-4.51h0a2.44,2.44,0,0,1,1.17-.34,2.35,2.35,0,0,1,.7.08,2.48,2.48,0,0,1,1.5,1.16,2.43,2.43,0,0,1-.91,3.36A2.49,2.49,0,0,1,42.47,28.42Zm-.22-2.87a.46.46,0,1,0,.46.8.46.46,0,0,0-.46-.8ZM21.53,28.42a2.49,2.49,0,0,1-1.24-.34,2.44,2.44,0,0,1-.91-3.36,2.48,2.48,0,0,1,1.5-1.16h0a2.35,2.35,0,0,1,.7-.08,2.46,2.46,0,0,1,2.07,3.7,2.48,2.48,0,0,1-1.49,1.15A2.28,2.28,0,0,1,21.53,28.42Zm-.41-2.7a.44.44,0,0,0-.06.35.49.49,0,0,0,.58.33.48.48,0,0,0,.28-.22.45.45,0,0,0-.17-.63A.44.44,0,0,0,21.12,25.72ZM32,22.36a2.47,2.47,0,1,1,2.46-2.47A2.44,2.44,0,0,1,32,22.36Zm0-2.93a.47.47,0,1,0,.46.46A.44.44,0,0,0,32,19.43Z"/></g></g></svg>