<?xml version="1.0" ?><svg viewBox="0 0 64 64" xmlns="http://www.w3.org/2000/svg"><defs><style>.cls-1{fill:#94d8e5;}</style></defs><g data-name="Snowflake" id="Snowflake-40"><path class="cls-1" d="M24.68,5a1.5,1.5,0,0,0-1.06,2.56l6.88,6.88v2.62L27.74,14.3a1.5,1.5,0,0,0-2.12,2.12L30.5,21.3v1.84l-3.13-1.73a1.51,1.51,0,0,0-2.23,1.29l-.06,3.57-1.6-.92L21.7,18.68a1.5,1.5,0,1,0-2.9.78l1,3.77-2.27-1.31L15,12.53a1.49,1.49,0,0,0-1.83-1.07,1.52,1.52,0,0,0-1.07,1.84l1.75,6.5L10.67,18a1.52,1.52,0,0,0-1.14-.15,1.5,1.5,0,0,0-.36,2.75l3.2,1.85-6.5,1.74A1.49,1.49,0,0,0,4.81,26,1.52,1.52,0,0,0,6.65,27L16,24.52l2.27,1.31-3.77,1a1.5,1.5,0,0,0,.77,2.9L22,28l1.6.92-3.07,1.84a1.52,1.52,0,0,0,0,2.58l3.07,1.84-1.6.92-6.67-1.79a1.5,1.5,0,0,0-.77,2.9l3.77,1L16,39.48,6.65,37A1.52,1.52,0,0,0,4.81,38a1.49,1.49,0,0,0,1.06,1.83l6.5,1.74-3.2,1.85a1.5,1.5,0,0,0,1.5,2.6l3.2-1.85-1.75,6.5a1.52,1.52,0,0,0,1.07,1.84A1.49,1.49,0,0,0,15,51.47l2.52-9.39,2.27-1.31-1,3.77a1.5,1.5,0,1,0,2.9.78l1.78-6.67,1.6-.92.06,3.57a1.51,1.51,0,0,0,2.23,1.29l3.13-1.73V42.7l-4.88,4.88a1.5,1.5,0,0,0,2.12,2.12l2.76-2.76v2.62l-6.88,6.88a1.51,1.51,0,0,0,0,2.12,1.49,1.49,0,0,0,2.12,0L30.5,53.8v3.7a1.5,1.5,0,0,0,3,0V53.8l4.76,4.76a1.49,1.49,0,0,0,2.12,0,1.51,1.51,0,0,0,0-2.12L33.5,49.56V46.94l2.76,2.76a1.5,1.5,0,0,0,2.12-2.12L33.5,42.7V40.86l3.13,1.73a1.51,1.51,0,0,0,2.23-1.29l.06-3.57,1.6.92,1.78,6.67a1.5,1.5,0,1,0,2.9-.78l-1-3.77,2.27,1.31L49,51.47a1.5,1.5,0,1,0,2.9-.77l-1.75-6.5,3.2,1.85a1.5,1.5,0,0,0,1.5-2.6l-3.2-1.85,6.5-1.74A1.49,1.49,0,0,0,59.19,38,1.52,1.52,0,0,0,57.35,37L48,39.48l-2.27-1.31,3.77-1a1.5,1.5,0,0,0-.77-2.9L42,36.05l-1.6-.92,3.07-1.84a1.52,1.52,0,0,0,0-2.58l-3.07-1.84L42,28l6.67,1.79a1.5,1.5,0,0,0,.77-2.9l-3.77-1L48,24.52,57.35,27A1.52,1.52,0,0,0,59.19,26a1.49,1.49,0,0,0-1.06-1.83l-6.5-1.74,3.2-1.85a1.5,1.5,0,0,0-.36-2.75,1.52,1.52,0,0,0-1.14.15l-3.2,1.85,1.75-6.5a1.5,1.5,0,1,0-2.9-.77l-2.52,9.39-2.27,1.31,1-3.77a1.5,1.5,0,1,0-2.9-.78l-1.78,6.67-1.6.92-.06-3.57a1.5,1.5,0,0,0-2.23-1.29L33.5,23.14V21.3l4.88-4.88a1.5,1.5,0,0,0-2.12-2.12L33.5,17.06V14.44l6.88-6.88a1.51,1.51,0,0,0,0-2.12,1.49,1.49,0,0,0-2.12,0L33.5,10.2V6.5a1.5,1.5,0,0,0-3,0v3.7L25.74,5.44A1.5,1.5,0,0,0,24.68,5ZM28.1,25.24l2.4,1.33V29.4L28.05,28Zm7.8,0L36,28,33.5,29.4V26.57Zm-9.35,5.34L29,32l-2.45,1.42L24.2,32Zm10.9,0L39.8,32l-2.35,1.42L35,32Zm-7,4v2.83l-2.4,1.33L28.05,36Zm3,0L36,36l-.05,2.75-2.4-1.33Z" id="path67699-0-3"/><g id="path67699-0"><path d="M32,60a2.5,2.5,0,0,1-2.5-2.5V56.22l-3.05,3.05a2.5,2.5,0,0,1-3.53-3.54l4.82-4.82a2.55,2.55,0,0,1-2.83-.5,2.5,2.5,0,0,1,0-3.53l4-4-1,.57a2.5,2.5,0,0,1-3.71-2.14l0-1.19-1.46,5.45a2.5,2.5,0,0,1-4.58.6,2.57,2.57,0,0,1-.32-1L16,51.73a2.5,2.5,0,0,1-4.58.61,2.48,2.48,0,0,1-.25-1.9l1.11-4.17-1.1.65a2.47,2.47,0,0,1-1.9.24A2.44,2.44,0,0,1,7.75,46a2.49,2.49,0,0,1,.92-3.41l1.1-.65L5.61,40.83A2.5,2.5,0,0,1,6.9,36l6.6,1.77a2.5,2.5,0,0,1,2.07-4.47L21,34.76l-1-.62a2.5,2.5,0,0,1,0-4.28l1-.62L15.57,30.7a2.5,2.5,0,0,1-2.07-4.47L6.91,28a2.5,2.5,0,1,1-1.3-4.83l4.16-1.11-1.1-.64a2.5,2.5,0,1,1,2.5-4.33l1.1.64-1.11-4.17a2.49,2.49,0,0,1,1.77-3.06,2.41,2.41,0,0,1,1.89.25A2.46,2.46,0,0,1,16,12.27l1.77,6.59a2.57,2.57,0,0,1,.32-1,2.5,2.5,0,0,1,4.58.6l1.46,5.45,0-1.19a2.51,2.51,0,0,1,3.71-2.15l1,.58-4-4a2.5,2.5,0,0,1,1.77-4.26h0a2.49,2.49,0,0,1,1.07.24L22.92,8.27a2.5,2.5,0,0,1,0-3.54,2.56,2.56,0,0,1,3.53,0L29.5,7.78V6.5a2.5,2.5,0,0,1,5,0V7.78l3-3a2.5,2.5,0,0,1,3.53,3.54l-4.82,4.82a2.55,2.55,0,0,1,2.83.5,2.5,2.5,0,0,1,0,3.53l-4,4,1-.57a2.48,2.48,0,0,1,2.46,0,2.54,2.54,0,0,1,1.25,2.12l0,1.19,1.46-5.45a2.5,2.5,0,0,1,4.58-.6,2.57,2.57,0,0,1,.32,1L48,12.27a2.5,2.5,0,0,1,4.58-.61,2.48,2.48,0,0,1,.25,1.9l-1.11,4.17,1.1-.65a2.53,2.53,0,0,1,1.9-.25,2.5,2.5,0,0,1,.6,4.58l-1.1.65,4.16,1.11A2.5,2.5,0,0,1,57.1,28l-6.6-1.77a2.5,2.5,0,0,1-2.07,4.47L43,29.24l1,.62a2.5,2.5,0,0,1,0,4.28l-1,.62,5.45-1.46a2.5,2.5,0,0,1,2.07,4.47L57.09,36a2.5,2.5,0,1,1,1.3,4.83l-4.16,1.11,1.1.64A2.51,2.51,0,0,1,56.25,46a2.44,2.44,0,0,1-1.52,1.16,2.47,2.47,0,0,1-1.9-.24l-1.1-.65,1.11,4.17a2.49,2.49,0,0,1-1.77,3.06,2.41,2.41,0,0,1-1.89-.25A2.46,2.46,0,0,1,48,51.73l-1.77-6.59a2.57,2.57,0,0,1-.32,1,2.5,2.5,0,0,1-4.58-.6l-1.46-5.45,0,1.19a2.51,2.51,0,0,1-3.71,2.15l-1-.58,4,4a2.5,2.5,0,0,1,0,3.53,2.55,2.55,0,0,1-2.83.5l4.82,4.82a2.5,2.5,0,1,1-3.53,3.54l-3-3.05V57.5A2.5,2.5,0,0,1,32,60Zm-1.5-7.2a1,1,0,0,1,1,1v3.7a.5.5,0,0,0,1,0V53.8a1,1,0,0,1,1.71-.7L39,57.85a.5.5,0,0,0,.71,0,.5.5,0,0,0,0-.7l-6.88-6.88a1,1,0,0,1-.29-.71V46.94a1,1,0,0,1,.62-.92,1,1,0,0,1,1.09.21L37,49a.5.5,0,0,0,.35.14.53.53,0,0,0,.36-.14.51.51,0,0,0,0-.71l-4.89-4.88a1.05,1.05,0,0,1-.29-.71V40.86A1,1,0,0,1,34,40l3.14,1.73a.48.48,0,0,0,.49,0,.51.51,0,0,0,.25-.42l.06-3.58a1,1,0,0,1,1.5-.85l1.6.92a1,1,0,0,1,.46.61l1.79,6.67a.5.5,0,0,0,.23.3.49.49,0,0,0,.38,0,.47.47,0,0,0,.31-.23.59.59,0,0,0,.05-.38l-1-3.77a1,1,0,0,1,1.47-1.13L47,41.21a1,1,0,0,1,.46.61l2.52,9.4a.51.51,0,0,0,.24.3.47.47,0,0,0,.38,0,.54.54,0,0,0,.3-.23.49.49,0,0,0,0-.38l-1.74-6.5a1,1,0,0,1,1.46-1.13l3.2,1.85a.5.5,0,0,0,.38,0,.47.47,0,0,0,.31-.23.51.51,0,0,0-.19-.68l-3.2-1.85a1,1,0,0,1,.25-1.83l6.49-1.74a.48.48,0,0,0,.3-.24.47.47,0,0,0,0-.38.5.5,0,0,0-.61-.35l-9.39,2.52a1,1,0,0,1-.76-.1L45.19,39a1,1,0,0,1-.49-1,1,1,0,0,1,.73-.83l3.77-1a.51.51,0,0,0,.31-.24.57.57,0,0,0,.05-.38.52.52,0,0,0-.62-.35L42.27,37a1,1,0,0,1-.75-.1L39.92,36a1,1,0,0,1-.5-.86,1,1,0,0,1,.49-.87L43,32.43a.51.51,0,0,0,0-.86L39.9,29.73a1,1,0,0,1,0-1.73l1.6-.92a1,1,0,0,1,.75-.1l6.67,1.79a.52.52,0,0,0,.62-.35.57.57,0,0,0-.05-.38.51.51,0,0,0-.31-.24l-3.77-1A1,1,0,0,1,44.7,26a1,1,0,0,1,.49-1l2.27-1.31a1,1,0,0,1,.76-.1l9.39,2.52a.5.5,0,0,0,.61-.35.47.47,0,0,0,0-.38.48.48,0,0,0-.3-.24l-6.49-1.74a1,1,0,0,1-.25-1.83l3.2-1.85a.51.51,0,0,0,.19-.68.48.48,0,0,0-.31-.23.47.47,0,0,0-.38.05l-3.2,1.85a1,1,0,0,1-1.46-1.13L50.91,13a.49.49,0,0,0,0-.38.54.54,0,0,0-.3-.23.47.47,0,0,0-.38.05.51.51,0,0,0-.24.3l-2.52,9.4a1,1,0,0,1-.46.61L44.69,24.1A1,1,0,0,1,43.22,23l1-3.77a.59.59,0,0,0-.05-.38.47.47,0,0,0-.31-.23.49.49,0,0,0-.38.05.5.5,0,0,0-.23.3l-1.79,6.67a1,1,0,0,1-.46.61l-1.6.92a1,1,0,0,1-1,0,1,1,0,0,1-.51-.85l-.06-3.58a.52.52,0,0,0-.25-.42.48.48,0,0,0-.49,0L34,24a1,1,0,0,1-1.48-.88V21.3a1.05,1.05,0,0,1,.29-.71l4.89-4.88a.51.51,0,0,0,0-.71.53.53,0,0,0-.36-.14A.5.5,0,0,0,37,15l-2.76,2.77a1,1,0,0,1-1.09.21,1,1,0,0,1-.62-.92V14.44a1,1,0,0,1,.29-.71l6.88-6.88a.5.5,0,0,0,0-.7.5.5,0,0,0-.71,0L34.21,10.9a1,1,0,0,1-1.71-.7V6.5a.5.5,0,0,0-1,0v3.7a1,1,0,0,1-1.71.7L25,6.15a.51.51,0,0,0-.71,0,.5.5,0,0,0,0,.7l6.88,6.88a1,1,0,0,1,.29.71v2.62a1,1,0,0,1-.62.92,1,1,0,0,1-1.09-.21L27,15a.5.5,0,0,0-.35-.14h0a.52.52,0,0,0-.36.14.51.51,0,0,0,0,.71l4.89,4.88a1.05,1.05,0,0,1,.29.71v1.84A1,1,0,0,1,30,24l-3.14-1.73a.48.48,0,0,0-.49,0,.51.51,0,0,0-.25.42l-.06,3.58a1,1,0,0,1-1.5.85L23,26.22a1,1,0,0,1-.46-.61l-1.79-6.67a.5.5,0,0,0-.23-.3.49.49,0,0,0-.38-.05.47.47,0,0,0-.31.23.59.59,0,0,0,0,.38l1,3.77a1,1,0,0,1-1.47,1.13L17,22.79a1,1,0,0,1-.46-.61l-2.52-9.4a.51.51,0,0,0-.62-.35.54.54,0,0,0-.3.23.49.49,0,0,0-.05.38l1.74,6.5a1,1,0,0,1-1.46,1.13l-3.2-1.85a.47.47,0,0,0-.38-.05.48.48,0,0,0-.31.23.51.51,0,0,0,.19.68l3.2,1.85a1,1,0,0,1-.25,1.83L6.13,25.1a.48.48,0,0,0-.3.24.47.47,0,0,0,0,.38.5.5,0,0,0,.61.35l9.39-2.52a1,1,0,0,1,.76.1L18.81,25a1,1,0,0,1,.49,1,1,1,0,0,1-.73.83l-3.77,1a.51.51,0,0,0-.31.24.57.57,0,0,0-.05.38.52.52,0,0,0,.62.35L21.73,27a1,1,0,0,1,.75.1l1.6.92a1,1,0,0,1,.5.86,1,1,0,0,1-.49.87L21,31.57a.51.51,0,0,0,0,.86l3.07,1.84a1,1,0,0,1,0,1.73l-1.6.92a1,1,0,0,1-.75.1l-6.67-1.79a.52.52,0,0,0-.62.35.57.57,0,0,0,.05.38.51.51,0,0,0,.31.24l3.77,1a1,1,0,0,1,.73.83,1,1,0,0,1-.49,1l-2.27,1.31a1,1,0,0,1-.76.1L6.39,37.93a.5.5,0,0,0-.61.35.47.47,0,0,0,0,.38.48.48,0,0,0,.3.24l6.49,1.74a1,1,0,0,1,.25,1.83l-3.2,1.85a.51.51,0,0,0-.19.68.47.47,0,0,0,.31.23.5.5,0,0,0,.38,0l3.2-1.85a1,1,0,0,1,1.46,1.13L13.09,51a.49.49,0,0,0,.05.38.54.54,0,0,0,.3.23.51.51,0,0,0,.62-.35l2.52-9.4a1,1,0,0,1,.46-.61l2.27-1.31A1,1,0,0,1,20.78,41l-1,3.77a.59.59,0,0,0,0,.38.47.47,0,0,0,.31.23.49.49,0,0,0,.38,0,.5.5,0,0,0,.23-.3l1.79-6.67a1,1,0,0,1,.46-.61l1.6-.92a1,1,0,0,1,1,0,1,1,0,0,1,.51.85l.06,3.58a.51.51,0,0,0,.25.42.5.5,0,0,0,.5,0L30,40a1,1,0,0,1,1.48.88V42.7a1.05,1.05,0,0,1-.29.71l-4.89,4.88a.51.51,0,0,0,0,.71.53.53,0,0,0,.36.14A.5.5,0,0,0,27,49l2.76-2.77A1,1,0,0,1,30.88,46a1,1,0,0,1,.62.92v2.62a1,1,0,0,1-.29.71l-6.88,6.88a.5.5,0,0,0,0,.7.5.5,0,0,0,.71,0l4.75-4.75A1,1,0,0,1,30.5,52.8Zm5.4-13a.94.94,0,0,1-.48-.13L33,38.3a1,1,0,0,1-.52-.87V34.6a1,1,0,0,1,.5-.87,1,1,0,0,1,1,0l2.45,1.42A1,1,0,0,1,37,36l-.05,2.75a1,1,0,0,1-1,1Zm-1.4-2.92.43.24v-.5l-.44-.25Zm-6.4,2.92a1,1,0,0,1-.5-.14,1,1,0,0,1-.5-.84L27.05,36a1,1,0,0,1,.5-.88L30,33.73a1,1,0,0,1,1,0,1,1,0,0,1,.5.87v2.83a1,1,0,0,1-.52.87l-2.4,1.33A.94.94,0,0,1,28.1,39.76Zm1-3.18v.5l.43-.24v-.51Zm8.39-2.16a1,1,0,0,1-.5-.14L34.5,32.87a1,1,0,0,1,0-1.74L37,29.72a1,1,0,0,1,1,0l2.35,1.41a1,1,0,0,1,0,1.72L38,34.27A1,1,0,0,1,37.45,34.42ZM37,32l.44.26.42-.26-.42-.26ZM26.55,34.42a1,1,0,0,1-.52-.15l-2.35-1.41a1,1,0,0,1,0-1.72L26,29.73a1,1,0,0,1,1,0l2.45,1.41a1,1,0,0,1,0,1.74l-2.45,1.41A1,1,0,0,1,26.55,34.42ZM26.14,32l.42.26L27,32l-.44-.26Zm7.36-1.6a1,1,0,0,1-.5-.13,1,1,0,0,1-.5-.87V26.57A1,1,0,0,1,33,25.7l2.4-1.33a1,1,0,0,1,1,0,1,1,0,0,1,.5.84L37,28a1,1,0,0,1-.5.88L34,30.27A1,1,0,0,1,33.5,30.4Zm1-3.24v.51l.44-.25v-.5Zm-4,3.24a1,1,0,0,1-.5-.13l-2.45-1.42a1,1,0,0,1-.5-.88l.05-2.75a1,1,0,0,1,.5-.85,1,1,0,0,1,1,0L31,25.7a1,1,0,0,1,.52.87V29.4a1,1,0,0,1-.5.87A1,1,0,0,1,30.5,30.4Zm-1.44-3,.44.25v-.51l-.43-.24Z"/></g></g></svg>