<?xml version="1.0" ?><svg viewBox="0 0 64 64" xmlns="http://www.w3.org/2000/svg"><defs><style>.cls-1{fill:#94d8e5;}</style></defs><g data-name="Snowflake" id="Snowflake-16"><path class="cls-1" d="M35.07,19.24a1.4,1.4,0,0,0-.64.18L32,20.77l-2.43-1.35a1.5,1.5,0,0,0-1.14-.13,1.52,1.52,0,0,0-.89.72,1.5,1.5,0,0,0,.58,2l2.38,1.32v2.55l-3,1.74-2.22-1.28.05-2.71a1.5,1.5,0,1,0-3-.06l-.05,2.77L19.9,27.81a1.5,1.5,0,0,0,1.54,2.57L23.77,29,26,30.26v3.48L23.77,35l-2.33-1.4a1.49,1.49,0,0,0-2.05.51,1.5,1.5,0,0,0,.51,2.06l2.37,1.43.05,2.77a1.5,1.5,0,0,0,3-.06l-.05-2.71,2.22-1.28,3,1.74v2.55L28.12,42a1.5,1.5,0,0,0,1.45,2.63L32,43.23l2.43,1.35A1.5,1.5,0,0,0,35.88,42L33.5,40.63V38.08l3-1.74,2.22,1.28,0,2.71a1.5,1.5,0,1,0,3,.06l0-2.77,2.37-1.43a1.51,1.51,0,0,0,.52-2.06,1.49,1.49,0,0,0-.93-.68,1.45,1.45,0,0,0-1.13.17L40.23,35,38,33.74V30.26L40.23,29l2.33,1.4a1.5,1.5,0,1,0,1.54-2.57l-2.37-1.43,0-2.77a1.5,1.5,0,1,0-3,.06l0,2.71-2.22,1.28-3-1.74V23.37l2.38-1.32a1.5,1.5,0,0,0-.81-2.81ZM32,28.52l3,1.74v3.48l-3,1.74-3-1.74V30.26Z" id="path11603-0"/><path class="cls-1" d="M32,47.82a1.59,1.59,0,0,0-.73.19L26.2,50.82a1.5,1.5,0,1,0,1.45,2.62l2.85-1.57V57.5a1.5,1.5,0,0,0,3,0V51.87l2.85,1.57a1.5,1.5,0,1,0,1.45-2.62L32.73,48A1.59,1.59,0,0,0,32,47.82Z" id="path79975-8"/><path class="cls-1" d="M32,5a1.5,1.5,0,0,0-1.5,1.5v5.63l-2.85-1.57a1.5,1.5,0,1,0-1.45,2.62L31.27,16a1.51,1.51,0,0,0,1.46,0l5.07-2.81a1.49,1.49,0,0,0-.31-2.75,1.47,1.47,0,0,0-1.14.13L33.5,12.13V6.5A1.5,1.5,0,0,0,32,5Z" id="path11465-9"/><path class="cls-1" d="M18.3,39.91a1.58,1.58,0,0,0-.53-.53l-5-3A1.5,1.5,0,1,0,11.26,39L14,40.64,9.17,43.45a1.5,1.5,0,0,0,1.5,2.6l4.87-2.82.06,3.26a1.5,1.5,0,1,0,3-.06l-.1-5.79A1.66,1.66,0,0,0,18.3,39.91Z" id="path79971-1"/><path class="cls-1" d="M55.38,18.5A1.5,1.5,0,0,0,53.33,18l-4.87,2.82-.06-3.26a1.5,1.5,0,1,0-3,.06l.1,5.8a1.5,1.5,0,0,0,.73,1.25l5,3a1.5,1.5,0,0,0,2.06-.51A1.54,1.54,0,0,0,53.43,26a1.51,1.51,0,0,0-.69-.93L50,23.36l4.87-2.81A1.49,1.49,0,0,0,55.38,18.5Z" id="path79961-7"/><path class="cls-1" d="M45.7,39.91a1.58,1.58,0,0,1,.53-.53l5-3A1.5,1.5,0,1,1,52.74,39L50,40.64l4.87,2.81a1.5,1.5,0,0,1-1.5,2.6l-4.87-2.82-.06,3.26a1.5,1.5,0,1,1-3-.06l.1-5.79A1.66,1.66,0,0,1,45.7,39.91Z" id="path79967-2"/><path class="cls-1" d="M8.62,18.5A1.5,1.5,0,0,1,10.67,18l4.87,2.82.06-3.26a1.5,1.5,0,0,1,3,.06l-.1,5.8a1.5,1.5,0,0,1-.73,1.25l-5,3a1.5,1.5,0,0,1-2.06-.51A1.54,1.54,0,0,1,10.57,26a1.51,1.51,0,0,1,.69-.93L14,23.36,9.17,20.55A1.49,1.49,0,0,1,8.62,18.5Z" id="path79963-7"/><g id="path11603"><path d="M28.85,45.76a2.5,2.5,0,0,1-1.21-4.68l1.86-1V38.65l-2-1.16-1.21.7,0,2.13a2.5,2.5,0,0,1-5,.09l0-2.22L19.38,37a2.5,2.5,0,0,1-.85-3.43,2.46,2.46,0,0,1,1.54-1.13,2.5,2.5,0,0,1,1.89.28l1.82,1.1,1.21-.7V30.84l-1.21-.7L22,31.24A2.5,2.5,0,1,1,19.38,27l1.9-1.15,0-2.22a2.53,2.53,0,0,1,2.55-2.45,2.49,2.49,0,0,1,2.45,2.54l0,2.13,1.21.7,2-1.16V24l-1.86-1a2.5,2.5,0,0,1-1-3.39,2.47,2.47,0,0,1,1.5-1.2,2.52,2.52,0,0,1,1.9.22L32,19.62l1.94-1.07A2.54,2.54,0,0,1,35,18.24h0a2.51,2.51,0,0,1,2.55,3.19,2.48,2.48,0,0,1-1.2,1.49L34.5,24v1.39l2,1.16,1.21-.7,0-2.13a2.52,2.52,0,0,1,.7-1.78,2.45,2.45,0,0,1,1.75-.76,2.51,2.51,0,0,1,2.55,2.45l0,2.22L44.62,27a2.49,2.49,0,0,1-.69,4.56A2.45,2.45,0,0,1,42,31.24l-1.82-1.1-1.21.7v2.32l1.21.7L42,32.76a2.5,2.5,0,0,1,1.89-.28,2.46,2.46,0,0,1,1.54,1.13A2.48,2.48,0,0,1,44.62,37l-1.9,1.15,0,2.22a2.48,2.48,0,0,1-.77,1.75,2.5,2.5,0,0,1-3.53-.06,2.52,2.52,0,0,1-.7-1.78l0-2.13-1.21-.7-2,1.16V40l1.86,1a2.48,2.48,0,0,1,1.2,1.49,2.51,2.51,0,0,1-3.62,2.88L32,44.38l-1.94,1.07A2.51,2.51,0,0,1,28.85,45.76ZM27.49,35.34a1,1,0,0,1,.5.13l3,1.74a1,1,0,0,1,.5.87v2.55a1,1,0,0,1-.52.88l-2.37,1.32a.46.46,0,0,0-.24.3.49.49,0,0,0,0,.38.52.52,0,0,0,.3.23.45.45,0,0,0,.38,0l2.43-1.34a1,1,0,0,1,1,0l2.43,1.34a.5.5,0,0,0,.68-.19.51.51,0,0,0,0-.39.47.47,0,0,0-.24-.29L33,41.51a1,1,0,0,1-.52-.88V38.08a1,1,0,0,1,.5-.87l3-1.74a1,1,0,0,1,1,0l2.22,1.28a1,1,0,0,1,.5.89l0,2.71a.49.49,0,0,0,.49.51h0a.5.5,0,0,0,.5-.49l0-2.77a1,1,0,0,1,.48-.84l2.38-1.43a.51.51,0,0,0,.23-.31.58.58,0,0,0-.06-.38.5.5,0,0,0-.31-.22.56.56,0,0,0-.38,0l-2.33,1.41a1,1,0,0,1-1,0l-2.22-1.28a1,1,0,0,1-.5-.87V30.26a1,1,0,0,1,.5-.87l2.22-1.28a1,1,0,0,1,1,0l2.33,1.41a.5.5,0,0,0,.52-.86l-2.38-1.43a1,1,0,0,1-.48-.84l0-2.77a.55.55,0,0,0-.51-.49.49.49,0,0,0-.49.51l0,2.71a1,1,0,0,1-.5.89L37,28.53a1,1,0,0,1-1,0l-3-1.74a1,1,0,0,1-.5-.87V23.37a1,1,0,0,1,.52-.88l2.37-1.32a.47.47,0,0,0,.24-.29.51.51,0,0,0,0-.39.5.5,0,0,0-.47-.25h0a.42.42,0,0,0-.21.06l-2.43,1.34a1,1,0,0,1-1,0L29.09,20.3a.46.46,0,0,0-.38,0,.48.48,0,0,0-.3.24.49.49,0,0,0,.2.67L31,22.49a1,1,0,0,1,.52.88v2.55a1,1,0,0,1-.5.87l-3,1.74a1,1,0,0,1-1,0l-2.22-1.28a1,1,0,0,1-.5-.89l.05-2.71a.47.47,0,0,0-.14-.36.5.5,0,0,0-.86.34l-.05,2.77a1,1,0,0,1-.48.84l-2.38,1.43a.5.5,0,0,0,.52.86l2.33-1.41a1,1,0,0,1,1,0l2.22,1.28a1,1,0,0,1,.5.87v3.48a1,1,0,0,1-.5.87l-2.22,1.28a1,1,0,0,1-1,0l-2.33-1.41a.56.56,0,0,0-.38,0,.48.48,0,0,0-.31.23.5.5,0,0,0,.17.68l2.38,1.43a1,1,0,0,1,.48.84l.05,2.77a.5.5,0,0,0,.16.35.49.49,0,0,0,.34.14h0a.5.5,0,0,0,.35-.15.47.47,0,0,0,.14-.36l-.05-2.71a1,1,0,0,1,.5-.89L27,35.47A1,1,0,0,1,27.49,35.34Zm7.58-16.1h0ZM32,36.48a1,1,0,0,1-.5-.14l-3-1.74a1,1,0,0,1-.5-.86V30.26a1,1,0,0,1,.5-.86l3-1.74a1,1,0,0,1,1,0l3,1.74a1,1,0,0,1,.5.86v3.48a1,1,0,0,1-.5.86l-3,1.74A1,1,0,0,1,32,36.48Zm-2-3.32,2,1.16,2-1.16V30.84l-2-1.16-2,1.16Z"/></g><g id="path79975"><path d="M32,60a2.5,2.5,0,0,1-2.5-2.5V53.56l-1.36.76A2.5,2.5,0,0,1,25.71,50l5.08-2.81a2.53,2.53,0,0,1,2.42,0L38.29,50a2.5,2.5,0,0,1-2.43,4.37l-1.36-.76V57.5A2.5,2.5,0,0,1,32,60Zm-1.5-9.13A1,1,0,0,1,31,51a1,1,0,0,1,.49.86V57.5a.5.5,0,0,0,1,0V51.87A1,1,0,0,1,33,51a1,1,0,0,1,1,0l2.85,1.58a.5.5,0,0,0,.49-.88l-5.08-2.8a.46.46,0,0,0-.48,0L26.68,51.7a.5.5,0,0,0-.19.68.51.51,0,0,0,.68.19L30,51A1,1,0,0,1,30.5,50.87Z"/></g><g id="path11465"><path d="M32,17.18a2.49,2.49,0,0,1-1.21-.32l-5.08-2.8a2.5,2.5,0,0,1,2.43-4.38l1.36.76V6.5a2.5,2.5,0,0,1,5,0v3.94l1.36-.76a2.52,2.52,0,0,1,1.9-.22,2.5,2.5,0,0,1,.53,4.59l-5.08,2.81A2.49,2.49,0,0,1,32,17.18Zm-5.07-5.81a.49.49,0,0,0-.44.26.5.5,0,0,0,.19.68l5.08,2.8a.46.46,0,0,0,.48,0l5.08-2.81a.49.49,0,0,0,.19-.67.45.45,0,0,0-.3-.24.51.51,0,0,0-.38,0L34,13a1,1,0,0,1-1,0,1,1,0,0,1-.49-.86V6.5a.5.5,0,0,0-1,0v5.63A1,1,0,0,1,31,13a1,1,0,0,1-1,0l-2.85-1.58A.53.53,0,0,0,26.93,11.37Z"/></g><g id="path79971"><path d="M17.1,49a2.49,2.49,0,0,1-1.73-.7,2.53,2.53,0,0,1-.77-1.76l0-1.55-3.4,2a2.53,2.53,0,0,1-1.9.25A2.49,2.49,0,0,1,7.75,46a2.5,2.5,0,0,1,.92-3.42l3.4-2-1.33-.81a2.5,2.5,0,0,1,2.58-4.28l5,3a2.56,2.56,0,0,1,.87.89,2.59,2.59,0,0,1,.34,1.21l.1,5.8A2.5,2.5,0,0,1,17.15,49Zm-1.56-6.73a1.13,1.13,0,0,1,.5.13,1,1,0,0,1,.5.86l.06,3.25a.5.5,0,0,0,.16.35.49.49,0,0,0,.34.14h0a.49.49,0,0,0,.49-.51l-.1-5.8a.55.55,0,0,0-.07-.24.52.52,0,0,0-.18-.18l-5-3a.5.5,0,0,0-.52.86l2.79,1.68a1,1,0,0,1,.48.87,1,1,0,0,1-.5.85L9.67,44.32a.51.51,0,0,0-.19.68.47.47,0,0,0,.31.23.5.5,0,0,0,.38,0L15,42.37A1,1,0,0,1,15.54,42.23Z"/></g><g id="path79961"><path d="M52,28.83a2.54,2.54,0,0,1-1.29-.36l-5-3a2.51,2.51,0,0,1-1.21-2.1l-.1-5.79A2.49,2.49,0,0,1,46.85,15a2.59,2.59,0,0,1,1.78.7,2.53,2.53,0,0,1,.77,1.76l0,1.55,3.4-2a2.48,2.48,0,0,1,1.9-.24A2.44,2.44,0,0,1,56.25,18h0a2.51,2.51,0,0,1-.92,3.42l-3.4,2,1.33.81a2.48,2.48,0,0,1,1.14,1.53,2.53,2.53,0,0,1-.29,1.9A2.49,2.49,0,0,1,52,28.83ZM46.9,17h0a.5.5,0,0,0-.35.15.47.47,0,0,0-.14.36l.1,5.8a.52.52,0,0,0,.25.42l5,3a.51.51,0,0,0,.69-.17.52.52,0,0,0,.06-.38.56.56,0,0,0-.23-.31l-2.79-1.68a1,1,0,0,1,0-1.72l4.87-2.82a.5.5,0,0,0,.19-.68.47.47,0,0,0-.31-.23.5.5,0,0,0-.38.05L49,21.63a1,1,0,0,1-1,0,1,1,0,0,1-.5-.85l-.06-3.26a.5.5,0,0,0-.16-.35A.49.49,0,0,0,46.9,17Z"/></g><g id="path79967"><path d="M46.9,49h0a2.5,2.5,0,0,1-2.45-2.54l.1-5.8a2.59,2.59,0,0,1,.34-1.21,2.56,2.56,0,0,1,.87-.89l5-3a2.5,2.5,0,1,1,2.58,4.28l-1.33.81,3.4,2a2.5,2.5,0,1,1-2.5,4.34l-3.4-2,0,1.56a2.52,2.52,0,0,1-.77,1.75A2.49,2.49,0,0,1,46.9,49ZM52,37.17a.59.59,0,0,0-.26.07l-5,3a.52.52,0,0,0-.18.18.55.55,0,0,0-.07.24l-.1,5.8a.49.49,0,0,0,.49.51.52.52,0,0,0,.35-.14.5.5,0,0,0,.16-.35l.06-3.25a1,1,0,0,1,1.5-.85l4.87,2.81a.5.5,0,0,0,.38,0,.47.47,0,0,0,.31-.23.51.51,0,0,0-.19-.68L49.46,41.5a1,1,0,0,1-.5-.85,1,1,0,0,1,.48-.87l2.79-1.68a.5.5,0,0,0-.26-.93Z"/></g><g id="path79963"><path d="M12,28.83a2.49,2.49,0,0,1-2.14-1.21,2.52,2.52,0,0,1-.29-1.89,2.48,2.48,0,0,1,1.14-1.54l1.33-.81-3.4-2A2.51,2.51,0,0,1,7.75,18h0a2.44,2.44,0,0,1,1.52-1.16,2.48,2.48,0,0,1,1.9.24l3.4,2,0-1.55A2.51,2.51,0,0,1,17.15,15a2.49,2.49,0,0,1,2.45,2.54l-.1,5.8a2.51,2.51,0,0,1-1.21,2.1l-5,3A2.54,2.54,0,0,1,12,28.83ZM9.48,19a.5.5,0,0,0,.19.68l4.87,2.82a1,1,0,0,1,0,1.72L11.77,25.9a.56.56,0,0,0-.23.31.52.52,0,0,0,.06.38.51.51,0,0,0,.69.17l5-3a.52.52,0,0,0,.25-.42l.1-5.8a.47.47,0,0,0-.14-.36.5.5,0,0,0-.35-.15.41.41,0,0,0-.35.14.5.5,0,0,0-.16.35l-.06,3.26a1,1,0,0,1-.5.85,1,1,0,0,1-1,0l-4.87-2.81a.5.5,0,0,0-.38-.05.47.47,0,0,0-.31.23Z"/></g></g></svg>