<?xml version="1.0" ?><svg viewBox="0 0 64 64" xmlns="http://www.w3.org/2000/svg"><defs><style>.cls-1{fill:#94d8e5;}</style></defs><g data-name="Snowflake" id="Snowflake-19"><path class="cls-1" d="M32,5a1.27,1.27,0,0,0-1.11.64L28.74,9.39a3.77,3.77,0,0,0,1.07,4.95l1.45,1a1.26,1.26,0,0,0,1.48,0l1.45-1a3.77,3.77,0,0,0,1.07-4.95L33.11,5.64A1.27,1.27,0,0,0,32,5Z" id="path34163-3-7"/><path class="cls-1" d="M28.6,18.07a1.5,1.5,0,0,0-1,2.7l2.88,2.14v2.55a6.71,6.71,0,0,0-3.4,2l-2.22-1.28-.42-3.56a1.5,1.5,0,1,0-3,.34l.38,3.2-3,1.28a1.5,1.5,0,1,0,1.19,2.75l3.29-1.42L25.59,30a6.62,6.62,0,0,0,0,3.94l-2.21,1.28-3.29-1.42a1.48,1.48,0,0,0-1.15,0,1.43,1.43,0,0,0-.82.8,1.5,1.5,0,0,0,.78,2l3,1.27-.38,3.2a1.51,1.51,0,0,0,1.32,1.67,1.49,1.49,0,0,0,1.66-1.32l.42-3.56,2.22-1.28a6.71,6.71,0,0,0,3.4,2v2.55l-2.88,2.14a1.5,1.5,0,1,0,1.8,2.4L32,43.71l2.58,1.92a1.5,1.5,0,1,0,1.8-2.4L33.5,41.09V38.54a6.71,6.71,0,0,0,3.4-2l2.22,1.28.42,3.56a1.49,1.49,0,0,0,1.66,1.32,1.51,1.51,0,0,0,1.32-1.67l-.38-3.2,3-1.27a1.5,1.5,0,0,0,.78-2,1.43,1.43,0,0,0-.82-.8,1.48,1.48,0,0,0-1.15,0l-3.29,1.41L38.41,34a6.62,6.62,0,0,0,0-3.94l2.21-1.28,3.29,1.42a1.5,1.5,0,0,0,1.19-2.75l-3-1.28.38-3.2a1.51,1.51,0,0,0-1.32-1.66,1.49,1.49,0,0,0-1.66,1.32l-.42,3.56L36.9,27.44a6.71,6.71,0,0,0-3.4-2V22.91l2.88-2.14a1.5,1.5,0,0,0-1.8-2.41L32,20.29l-2.58-1.93A1.54,1.54,0,0,0,28.6,18.07ZM32,28.29A3.71,3.71,0,1,1,28.29,32,3.68,3.68,0,0,1,32,28.29Z" id="path4114-8"/><path class="cls-1" d="M32,59a1.27,1.27,0,0,1-1.11-.64l-2.15-3.75a3.77,3.77,0,0,1,1.07-5l1.45-1a1.26,1.26,0,0,1,1.48,0l1.45,1a3.77,3.77,0,0,1,1.07,5l-2.15,3.75A1.27,1.27,0,0,1,32,59Z" id="path77908-5"/><path class="cls-1" d="M55.38,18.5a1.27,1.27,0,0,0-1.1-.64H49.94a3.78,3.78,0,0,0-3.74,3.41L46,23.05a1.27,1.27,0,0,0,.74,1.28l1.62.74a3.8,3.8,0,0,0,4.82-1.55l2.17-3.74A1.27,1.27,0,0,0,55.38,18.5Z" id="path78102-0"/><path class="cls-1" d="M8.62,45.5a1.27,1.27,0,0,1,0-1.28l2.17-3.74a3.8,3.8,0,0,1,4.82-1.55l1.62.74A1.27,1.27,0,0,1,18,41l-.17,1.77a3.78,3.78,0,0,1-3.74,3.41H9.72A1.27,1.27,0,0,1,8.62,45.5Z" id="path78104-4"/><path class="cls-1" d="M8.62,18.5a1.27,1.27,0,0,1,1.1-.64h4.34a3.78,3.78,0,0,1,3.74,3.41L18,23.05a1.27,1.27,0,0,1-.74,1.28l-1.62.74a3.8,3.8,0,0,1-4.82-1.55L8.62,19.78A1.27,1.27,0,0,1,8.62,18.5Z" id="path78106-8"/><path class="cls-1" d="M55.38,45.5a1.27,1.27,0,0,0,0-1.28l-2.17-3.74a3.8,3.8,0,0,0-4.82-1.55l-1.62.74A1.27,1.27,0,0,0,46,41l.17,1.77a3.78,3.78,0,0,0,3.74,3.41h4.34A1.27,1.27,0,0,0,55.38,45.5Z" id="path78108-7"/><g id="path34163-3"><path d="M32,16.61a2.27,2.27,0,0,1-1.32-.42l-1.45-1A4.81,4.81,0,0,1,27.87,8.9L30,5.14A2.28,2.28,0,0,1,32,4h0a2.28,2.28,0,0,1,2,1.14L36.13,8.9a4.81,4.81,0,0,1-1.36,6.26l-1.45,1A2.27,2.27,0,0,1,32,16.61ZM32,6a.27.27,0,0,0-.24.14L29.6,9.89a2.81,2.81,0,0,0,.79,3.64l1.45,1a.27.27,0,0,0,.32,0l1.45-1a2.81,2.81,0,0,0,.79-3.64L32.24,6.14A.38.38,0,0,0,32,6Z"/></g><g id="path4114"><path d="M28.52,46.93A2.5,2.5,0,0,1,27,42.43l2.47-1.85V39.29a7.83,7.83,0,0,1-2.56-1.48l-1.13.65-.35,3.06a2.5,2.5,0,0,1-5-.58l.29-2.46-2.28-1a2.51,2.51,0,0,1-1.3-3.29,2.5,2.5,0,0,1,3.29-1.3l2.82,1.22,1.12-.65a7.89,7.89,0,0,1,0-3l-1.12-.65-2.83,1.22a2.5,2.5,0,0,1-2-4.59l2.28-1-.29-2.46a2.5,2.5,0,0,1,2.19-2.77,2.44,2.44,0,0,1,1.84.52,2.47,2.47,0,0,1,.94,1.67l.35,3.06,1.13.65a7.65,7.65,0,0,1,2.56-1.48v-1.3L27,21.57a2.51,2.51,0,0,1,1.13-4.48,2.64,2.64,0,0,1,.49,0h0a2.46,2.46,0,0,1,1.37.49L32,19l2-1.48a2.5,2.5,0,0,1,4,2.37,2.44,2.44,0,0,1-1,1.64L34.5,23.41v1.3a7.65,7.65,0,0,1,2.56,1.48l1.13-.65.35-3.06a2.51,2.51,0,0,1,2.78-2.19,2.52,2.52,0,0,1,1.67.93,2.49,2.49,0,0,1,.52,1.84l-.29,2.46,2.28,1a2.5,2.5,0,0,1-2,4.59l-2.83-1.22-1.12.65A8.15,8.15,0,0,1,39.71,32a8.07,8.07,0,0,1-.14,1.48l1.11.65,2.84-1.22a2.49,2.49,0,0,1,3.28,1.3,2.51,2.51,0,0,1-1.3,3.29l-2.28,1,.29,2.46a2.5,2.5,0,0,1-5,.58l-.35-3.06-1.13-.65a7.83,7.83,0,0,1-2.56,1.48v1.29L37,42.43a2.5,2.5,0,0,1-3,4L32,45l-2,1.48A2.54,2.54,0,0,1,28.52,46.93ZM27.1,35.56a1,1,0,0,1,.73.32,5.6,5.6,0,0,0,2.9,1.68,1,1,0,0,1,.77,1v2.55a1,1,0,0,1-.4.8L28.22,44a.51.51,0,0,0-.1.7.5.5,0,0,0,.7.1l2.58-1.92a1,1,0,0,1,1.2,0l2.58,1.92a.5.5,0,0,0,.7-.1.51.51,0,0,0-.1-.7L32.9,41.89a1,1,0,0,1-.4-.8V38.54a1,1,0,0,1,.77-1,5.6,5.6,0,0,0,2.9-1.68,1,1,0,0,1,1.23-.18L39.62,37a1,1,0,0,1,.49.75l.42,3.56a.49.49,0,0,0,.19.33.53.53,0,0,0,.37.11.5.5,0,0,0,.43-.56L41.15,38a1,1,0,0,1,.6-1l3-1.28A.5.5,0,0,0,45,35a.51.51,0,0,0-.28-.26.5.5,0,0,0-.38,0L41,36.16a1,1,0,0,1-.89,0l-2.21-1.27a1,1,0,0,1-.45-1.17,5.7,5.7,0,0,0,0-3.34,1,1,0,0,1,.45-1.17l2.21-1.27a1,1,0,0,1,.9-.05l3.29,1.42A.51.51,0,0,0,45,29a.49.49,0,0,0,0-.38.49.49,0,0,0-.27-.27l-3-1.28a1,1,0,0,1-.6-1l.37-3.2a.46.46,0,0,0-.1-.37.52.52,0,0,0-.33-.19.54.54,0,0,0-.37.11.49.49,0,0,0-.19.33l-.42,3.56a1,1,0,0,1-.49.75L37.4,28.3a1,1,0,0,1-1.23-.18,5.61,5.61,0,0,0-2.89-1.68,1,1,0,0,1-.78-1V22.91a1,1,0,0,1,.4-.8L35.78,20a.52.52,0,0,0,.19-.33.48.48,0,0,0-.09-.37.5.5,0,0,0-.7-.1L32.6,21.09a1,1,0,0,1-1.2,0l-2.58-1.92a.45.45,0,0,0-.27-.1h0a.34.34,0,0,0-.1,0,.5.5,0,0,0-.23.9l2.88,2.14a1,1,0,0,1,.4.8v2.55a1,1,0,0,1-.78,1,5.61,5.61,0,0,0-2.89,1.68,1,1,0,0,1-1.23.18L24.38,27a1,1,0,0,1-.49-.75l-.42-3.56a.52.52,0,0,0-.56-.44.5.5,0,0,0-.43.56l.37,3.2a1,1,0,0,1-.6,1l-3,1.28A.5.5,0,0,0,19,29a.49.49,0,0,0,.66.25L23,27.84a1,1,0,0,1,.9.05l2.21,1.27a1,1,0,0,1,.45,1.17,5.7,5.7,0,0,0,0,3.34,1,1,0,0,1-.45,1.17l-2.21,1.27a1,1,0,0,1-.9,0l-3.29-1.42a.5.5,0,0,0-.38,0A.51.51,0,0,0,19,35a.5.5,0,0,0,.27.66l2.95,1.28a1,1,0,0,1,.6,1l-.37,3.2a.5.5,0,0,0,.43.56.53.53,0,0,0,.37-.11.49.49,0,0,0,.19-.33l.42-3.56a1,1,0,0,1,.49-.75L26.6,35.7A1,1,0,0,1,27.1,35.56ZM32,36.71A4.71,4.71,0,1,1,36.71,32,4.71,4.71,0,0,1,32,36.71Zm0-7.42A2.71,2.71,0,1,0,34.71,32,2.68,2.68,0,0,0,32,29.29Z"/></g><g id="path77908"><path d="M32,60a2.28,2.28,0,0,1-2-1.14L27.87,55.1a4.81,4.81,0,0,1,1.36-6.26l1.45-1a2.28,2.28,0,0,1,2.64,0l1.45,1a4.81,4.81,0,0,1,1.36,6.26L34,58.86A2.28,2.28,0,0,1,32,60Zm0-10.61a.3.3,0,0,0-.16,0l-1.45,1a2.81,2.81,0,0,0-.79,3.64l2.16,3.75a.29.29,0,0,0,.48,0l2.16-3.75a2.81,2.81,0,0,0-.79-3.64l-1.45-1A.3.3,0,0,0,32,49.39Z"/></g><g id="path78102"><path d="M49.92,26.4A4.79,4.79,0,0,1,48,26l-1.62-.74A2.28,2.28,0,0,1,45,23l.17-1.77a4.82,4.82,0,0,1,4.74-4.31h4.34a2.28,2.28,0,0,1,2,3.42L54.07,24A4.81,4.81,0,0,1,49.92,26.4Zm4.36-7.54H50a2.8,2.8,0,0,0-2.76,2.5L47,23.14a.29.29,0,0,0,.16.28l1.62.74A2.79,2.79,0,0,0,52.34,23l2.18-3.74a.28.28,0,0,0,0-.28A.27.27,0,0,0,54.28,18.86Z"/></g><g id="path78104"><path d="M9.72,47.14a2.29,2.29,0,0,1-2-1.14h0a2.29,2.29,0,0,1,0-2.28L9.93,40A4.82,4.82,0,0,1,16,38l1.62.74A2.29,2.29,0,0,1,19,41.05l-.17,1.77a4.82,4.82,0,0,1-4.74,4.31H9.72Zm4.35-7.54A2.78,2.78,0,0,0,11.66,41L9.48,44.72a.28.28,0,0,0,0,.28h0a.27.27,0,0,0,.24.14h4.33a2.8,2.8,0,0,0,2.76-2.5L17,40.86a.29.29,0,0,0-.16-.28l-1.62-.74A2.8,2.8,0,0,0,14.07,39.6Z"/></g><g id="path78106"><path d="M14.08,26.4A4.81,4.81,0,0,1,9.93,24L7.75,20.28a2.28,2.28,0,0,1,2-3.42h4.34a4.82,4.82,0,0,1,4.74,4.31L19,23a2.28,2.28,0,0,1-1.32,2.29L16,26A4.79,4.79,0,0,1,14.08,26.4ZM9.72,18.86a.27.27,0,0,0-.24.14.28.28,0,0,0,0,.28L11.66,23a2.79,2.79,0,0,0,3.54,1.14l1.62-.74a.29.29,0,0,0,.16-.28l-.17-1.77a2.8,2.8,0,0,0-2.76-2.5Z"/></g><g id="path78108"><path d="M54.28,47.14H49.94a4.82,4.82,0,0,1-4.74-4.31L45,41.05a2.29,2.29,0,0,1,1.32-2.29L48,38A4.82,4.82,0,0,1,54.07,40l2.18,3.75a2.28,2.28,0,0,1-2,3.42ZM49.93,39.6a2.8,2.8,0,0,0-1.13.24l-1.62.74a.29.29,0,0,0-.16.28l.17,1.77A2.8,2.8,0,0,0,50,45.13h4.33a.27.27,0,0,0,.24-.14h0a.28.28,0,0,0,0-.28L52.34,41A2.78,2.78,0,0,0,49.93,39.6Z"/></g><g id="path78143"><path d="M32,12.93a1,1,0,0,1-1-1V9.37a1,1,0,1,1,2,0v2.56A1,1,0,0,1,32,12.93Z"/></g><g id="path79239"><path d="M32,55.63a1,1,0,0,1-1-1V52.07a1,1,0,1,1,2,0v2.56A1,1,0,0,1,32,55.63Z"/></g><g id="path79439"><path d="M49.38,23a1,1,0,0,1-.5-1.86l2.22-1.28a1,1,0,0,1,1.36.36,1,1,0,0,1-.36,1.37l-2.22,1.28A1,1,0,0,1,49.38,23Z"/></g><g id="path79441"><path d="M12.4,44.31a1,1,0,0,1-.5-1.86l2.22-1.28a1,1,0,1,1,1,1.73L12.9,44.18A1,1,0,0,1,12.4,44.31Z"/></g><g id="path79443"><path d="M14.62,23a1,1,0,0,1-.5-.13L11.9,21.55a1,1,0,0,1,1-1.73l2.22,1.28a1,1,0,0,1-.5,1.86Z"/></g><g id="path79445"><path d="M51.6,44.31a1,1,0,0,1-.5-.13L48.88,42.9a1,1,0,1,1,1-1.73l2.22,1.28a1,1,0,0,1-.5,1.86Z"/></g></g></svg>