<?xml version="1.0" ?><svg viewBox="0 0 64 64" xmlns="http://www.w3.org/2000/svg"><defs><style>.cls-1{fill:#94d8e5;}</style></defs><g data-name="Snowflake" id="Snowflake-34"><path class="cls-1" d="M32,5a1.5,1.5,0,0,0-1.5,1.5v3.63L28.07,8.57a1.5,1.5,0,0,0-1.62,2.53l3.17,2L27.3,15.44a1.52,1.52,0,0,0,0,2.13l3.2,3.19v2l-3.43-1.9a1.5,1.5,0,0,0-2.22,1.29l-.07,3.92-1.76-1-1.17-4.37A1.51,1.51,0,0,0,20,19.65l-3.17.85-.17-3.75a1.5,1.5,0,0,0-3,.13l.14,2.88L10.67,18a1.52,1.52,0,0,0-1.14-.15,1.5,1.5,0,0,0-.36,2.75l3.14,1.81L9.75,23.69a1.5,1.5,0,1,0,1.37,2.66l3.34-1.73.85,3.17a1.51,1.51,0,0,0,1.84,1.06l4.37-1.17,1.76,1-3.36,2a1.51,1.51,0,0,0,0,2.58l3.35,2-1.75,1-4.37-1.17a1.51,1.51,0,0,0-1.84,1.06l-.85,3.17-3.34-1.73a1.5,1.5,0,0,0-1.14-.1,1.53,1.53,0,0,0-.88.74,1.5,1.5,0,0,0,.65,2l2.56,1.33L9.17,43.45a1.5,1.5,0,0,0,1.5,2.6l3.14-1.81-.14,2.88a1.5,1.5,0,0,0,3,.13l.17-3.75,3.17.85a1.51,1.51,0,0,0,1.84-1.06L23,38.92l1.75-1,.08,3.92a1.5,1.5,0,0,0,2.22,1.29l3.43-1.9v2l-3.2,3.2a1.51,1.51,0,0,0,0,2.12l2.32,2.31-3.17,2a1.5,1.5,0,0,0,1.62,2.53l2.43-1.56V57.5a1.5,1.5,0,0,0,3,0V53.87l2.43,1.56a1.5,1.5,0,0,0,1.62-2.53l-3.17-2,2.32-2.31a1.51,1.51,0,0,0,0-2.12l-3.2-3.2v-2l3.43,1.9a1.5,1.5,0,0,0,2.22-1.29l.08-3.92,1.75,1,1.17,4.37A1.51,1.51,0,0,0,44,44.35l3.17-.85.17,3.75a1.5,1.5,0,0,0,3-.13l-.14-2.88,3.14,1.81a1.5,1.5,0,0,0,1.5-2.6l-3.14-1.81,2.56-1.33a1.5,1.5,0,0,0,.65-2,1.53,1.53,0,0,0-.88-.74,1.5,1.5,0,0,0-1.14.1l-3.34,1.73-.85-3.17a1.51,1.51,0,0,0-1.84-1.06l-4.37,1.17-1.75-1,3.35-2a1.51,1.51,0,0,0,0-2.58l-3.35-2,1.75-1,4.37,1.17a1.51,1.51,0,0,0,1.84-1.06l.85-3.17,3.34,1.73a1.5,1.5,0,1,0,1.37-2.66l-2.56-1.33,3.14-1.81a1.5,1.5,0,0,0-.36-2.75,1.52,1.52,0,0,0-1.14.15l-3.14,1.81.14-2.88a1.5,1.5,0,0,0-3-.13l-.17,3.75L44,19.65a1.51,1.51,0,0,0-1.84,1.06L41,25.08l-1.75,1-.08-3.92a1.5,1.5,0,0,0-2.22-1.29l-3.43,1.9v-2l3.2-3.19a1.52,1.52,0,0,0,0-2.13l-2.32-2.31,3.17-2a1.5,1.5,0,0,0-1.62-2.53L33.5,10.13V6.5A1.5,1.5,0,0,0,32,5ZM27.8,24.72l2.7,1.5V29.4l-2.76-1.59Zm8.4,0,.06,3.09L33.5,29.4V26.22Zm-10,5.69L29,32l-2.76,1.59L23.6,32Zm11.52,0L40.4,32l-2.64,1.59L35,32ZM30.5,34.6v3.18l-2.7,1.5-.06-3.09Zm3,0,2.76,1.59-.06,3.09-2.7-1.5Z" id="rect13121-1"/><g id="rect13121"><path d="M32,60a2.5,2.5,0,0,1-2.5-2.5V55.7l-.89.57a2.5,2.5,0,0,1-2.7-4.21L28,50.7,26.6,49.26a2.49,2.49,0,0,1,0-3.53L29.32,43l-1.76,1a2.48,2.48,0,0,1-2.46,0,2.45,2.45,0,0,1-1.25-2.12l0-2-1,3.71a2.49,2.49,0,0,1-3.06,1.77l-2-.53-.12,2.52a2.5,2.5,0,0,1-5-.23l.05-1-1.55.9a2.47,2.47,0,0,1-1.9.24A2.44,2.44,0,0,1,7.75,46a2.49,2.49,0,0,1,.92-3.41l1.55-.9-.93-.49a2.49,2.49,0,0,1-1.07-3.37,2.5,2.5,0,0,1,3.36-1.07l2.24,1.16.53-2a2.51,2.51,0,0,1,3.06-1.77l3.71,1-1.72-1a2.5,2.5,0,0,1,0-4.28l1.73-1-3.72,1a2.51,2.51,0,0,1-3.06-1.77l-.53-2-2.24,1.16A2.5,2.5,0,0,1,9.29,22.8l.93-.49-1.55-.9a2.5,2.5,0,1,1,2.5-4.32l1.55.89-.05-1.05a2.48,2.48,0,0,1,.65-1.8,2.51,2.51,0,0,1,4.35,1.57l.12,2.52,2-.53a2.49,2.49,0,0,1,3.06,1.77l1,3.71,0-2A2.45,2.45,0,0,1,25.1,20a2.48,2.48,0,0,1,2.46,0l1.76,1L26.6,18.27a2.47,2.47,0,0,1,0-3.53L28,13.3l-2.13-1.36a2.5,2.5,0,1,1,2.7-4.21l.89.57V6.5a2.5,2.5,0,0,1,5,0V8.3l.89-.57a2.5,2.5,0,0,1,2.7,4.21L36,13.3l1.43,1.44a2.47,2.47,0,0,1,0,3.53L34.68,21l1.76-1a2.48,2.48,0,0,1,2.46,0,2.45,2.45,0,0,1,1.25,2.12l0,2,1-3.71a2.44,2.44,0,0,1,1.16-1.52,2.47,2.47,0,0,1,1.9-.25l2,.53.12-2.52a2.5,2.5,0,0,1,5,.23l0,1.05,1.55-.9a2.53,2.53,0,0,1,1.9-.25,2.5,2.5,0,0,1,.6,4.58l-1.55.9.93.49a2.5,2.5,0,0,1-2.29,4.44l-2.24-1.16-.53,2a2.51,2.51,0,0,1-3.06,1.77l-3.71-1,1.72,1a2.5,2.5,0,0,1,0,4.28l-1.72,1,3.71-1A2.51,2.51,0,0,1,49.65,36l.53,2,2.24-1.16a2.5,2.5,0,0,1,3.36,1.07,2.49,2.49,0,0,1-1.07,3.37l-.93.49,1.55.9A2.49,2.49,0,0,1,56.25,46a2.44,2.44,0,0,1-1.52,1.16,2.47,2.47,0,0,1-1.9-.24L51.28,46l0,1a2.48,2.48,0,0,1-.65,1.8,2.51,2.51,0,0,1-4.35-1.57l-.12-2.52-2,.53a2.47,2.47,0,0,1-1.9-.25,2.44,2.44,0,0,1-1.16-1.52l-1-3.71,0,2A2.45,2.45,0,0,1,38.9,44a2.48,2.48,0,0,1-2.46,0l-1.76-1,2.72,2.72a2.49,2.49,0,0,1,0,3.53L36,50.7l2.13,1.36a2.5,2.5,0,1,1-2.7,4.21l-.89-.57v1.8A2.5,2.5,0,0,1,32,60Zm-1.5-7.13A.91.91,0,0,1,31,53a1,1,0,0,1,.52.87V57.5a.5.5,0,0,0,1,0V53.87A1,1,0,0,1,34,53l2.43,1.56a.49.49,0,0,0,.37.06.47.47,0,0,0,.32-.21.51.51,0,0,0-.15-.7l-3.17-2a1,1,0,0,1-.46-.74,1,1,0,0,1,.29-.81L36,47.85a.51.51,0,0,0,0-.71L32.79,44a1.05,1.05,0,0,1-.29-.71v-2A1,1,0,0,1,34,40.33l3.43,1.9a.48.48,0,0,0,.49,0,.47.47,0,0,0,.25-.43l.08-3.91a1,1,0,0,1,1.5-.85l1.75,1a1,1,0,0,1,.47.61L43.12,43a.5.5,0,0,0,.23.3.49.49,0,0,0,.38.05l3.17-.85a1,1,0,0,1,.85.16,1,1,0,0,1,.41.76l.17,3.76a.49.49,0,0,0,.52.47.46.46,0,0,0,.35-.16.51.51,0,0,0,.13-.36l-.14-2.88a1,1,0,0,1,.48-.9,1,1,0,0,1,1,0l3.14,1.81a.5.5,0,0,0,.38,0,.47.47,0,0,0,.31-.23.51.51,0,0,0-.19-.68L51.19,42.5a1,1,0,0,1-.5-.89,1,1,0,0,1,.54-.86l2.56-1.33a.49.49,0,0,0,.22-.67.51.51,0,0,0-.29-.25.48.48,0,0,0-.39,0L50,40.27a1,1,0,0,1-.86,0,1,1,0,0,1-.56-.65l-.85-3.17a.5.5,0,0,0-.61-.35l-4.37,1.17a1,1,0,0,1-.76-.1l-1.75-1a1,1,0,0,1-.5-.85,1,1,0,0,1,.48-.87l3.36-2a.51.51,0,0,0,0-.86l-3.36-2a1,1,0,0,1-.48-.87,1,1,0,0,1,.5-.85l1.75-1a1.06,1.06,0,0,1,.76-.1l4.37,1.17a.5.5,0,0,0,.61-.35l.85-3.17a1,1,0,0,1,.56-.65,1,1,0,0,1,.86,0l3.34,1.73a.51.51,0,0,0,.39,0,.53.53,0,0,0,.29-.25.49.49,0,0,0-.22-.67l-2.56-1.33a1,1,0,0,1-.54-.86,1,1,0,0,1,.5-.89l3.14-1.82a.51.51,0,0,0,.19-.68.48.48,0,0,0-.31-.23.47.47,0,0,0-.38.05l-3.14,1.81a1,1,0,0,1-1,0,1,1,0,0,1-.48-.9l.14-2.88a.51.51,0,0,0-.13-.36.46.46,0,0,0-.35-.16.48.48,0,0,0-.52.47l-.17,3.76a1,1,0,0,1-.41.76,1,1,0,0,1-.85.16l-3.17-.85a.49.49,0,0,0-.38.05.5.5,0,0,0-.23.3L42,25.34a1,1,0,0,1-.47.61l-1.75,1a1,1,0,0,1-1.5-.85l-.08-3.91a.47.47,0,0,0-.25-.43.48.48,0,0,0-.49,0L34,23.67a1,1,0,0,1-1.48-.88v-2a1.05,1.05,0,0,1,.29-.71L36,16.86a.5.5,0,0,0,0-.71l-2.32-2.32a1,1,0,0,1-.29-.81,1,1,0,0,1,.46-.74l3.17-2a.5.5,0,0,0,.15-.69.45.45,0,0,0-.32-.22.45.45,0,0,0-.37.06L34,11a1,1,0,0,1-1.54-.84V6.5a.5.5,0,0,0-1,0v3.63A1,1,0,0,1,30,11L27.53,9.41a.45.45,0,0,0-.37-.06.47.47,0,0,0-.32.21.51.51,0,0,0,.15.7l3.17,2a1,1,0,0,1,.46.74,1,1,0,0,1-.29.81L28,16.15a.5.5,0,0,0,0,.71l3.2,3.19a1.05,1.05,0,0,1,.29.71v2a1,1,0,0,1-1.48.88l-3.43-1.9a.48.48,0,0,0-.49,0,.47.47,0,0,0-.25.43l-.07,3.92a1,1,0,0,1-1.51.84l-1.75-1a1,1,0,0,1-.47-.61L20.88,21a.5.5,0,0,0-.23-.3.49.49,0,0,0-.38-.05l-3.17.85a1,1,0,0,1-.85-.16,1,1,0,0,1-.41-.76l-.17-3.76a.49.49,0,0,0-.52-.47.46.46,0,0,0-.35.16.51.51,0,0,0-.13.36l.14,2.88a1,1,0,0,1-.48.9,1,1,0,0,1-1,0l-3.14-1.81a.47.47,0,0,0-.38-.05.48.48,0,0,0-.31.23.51.51,0,0,0,.19.68l3.14,1.82a1,1,0,0,1,.5.89,1,1,0,0,1-.54.86l-2.56,1.33a.49.49,0,0,0-.22.67.53.53,0,0,0,.29.25.51.51,0,0,0,.39,0L14,23.73a1,1,0,0,1,.86,0,1,1,0,0,1,.56.65l.85,3.17a.49.49,0,0,0,.61.35l4.37-1.17a1,1,0,0,1,.76.1l1.76,1a1,1,0,0,1,.5.86,1,1,0,0,1-.49.86l-3.36,2a.51.51,0,0,0,0,.86l3.36,2a1,1,0,0,1,.48.87,1,1,0,0,1-.5.85l-1.75,1a1,1,0,0,1-.76.1l-4.37-1.17a.5.5,0,0,0-.61.35l-.85,3.17a1,1,0,0,1-.56.65,1,1,0,0,1-.86,0l-3.34-1.73a.53.53,0,0,0-.39,0,.51.51,0,0,0-.29.25.49.49,0,0,0,.22.67l2.56,1.33a1,1,0,0,1,.54.86,1,1,0,0,1-.5.89L9.67,44.32a.51.51,0,0,0-.19.68.47.47,0,0,0,.31.23.5.5,0,0,0,.38,0l3.14-1.81a1,1,0,0,1,1,0,1,1,0,0,1,.48.9l-.14,2.88a.51.51,0,0,0,.13.36.46.46,0,0,0,.35.16.5.5,0,0,0,.52-.47l.17-3.76a1,1,0,0,1,.41-.76,1,1,0,0,1,.85-.16l3.17.85a.49.49,0,0,0,.38-.05.5.5,0,0,0,.23-.3l1.17-4.37a1,1,0,0,1,.47-.61l1.75-1a1,1,0,0,1,1.5.85l.08,3.91a.47.47,0,0,0,.25.43.48.48,0,0,0,.49,0L30,40.33a1,1,0,0,1,1.48.88v2a1.05,1.05,0,0,1-.29.71L28,47.14a.51.51,0,0,0,0,.71l2.32,2.32a1,1,0,0,1,.29.81,1,1,0,0,1-.46.74l-3.17,2a.5.5,0,0,0-.15.69.45.45,0,0,0,.32.22.45.45,0,0,0,.37-.06L30,53A1,1,0,0,1,30.5,52.87Zm5.7-12.59a1.09,1.09,0,0,1-.49-.13L33,38.66a1,1,0,0,1-.52-.88V34.6a1,1,0,0,1,.5-.87,1,1,0,0,1,1,0l2.76,1.59a1,1,0,0,1,.5.89l-.06,3.08a1,1,0,0,1-1,1Zm-1.7-3.09.73.41,0-.84-.75-.43Zm-6.7,3.09a1,1,0,0,1-1-1l-.06-3.08a1,1,0,0,1,.5-.89L30,33.73a1,1,0,0,1,1,0,1,1,0,0,1,.5.87v3.18a1,1,0,0,1-.52.88l-2.69,1.49A1.09,1.09,0,0,1,27.8,40.28Zm.95-3.52,0,.84.73-.41v-.86Zm9-2.17a1,1,0,0,1-.5-.13L34.5,32.87a1,1,0,0,1,0-1.74l2.76-1.59a1,1,0,0,1,1,0l2.65,1.59a1,1,0,0,1,0,1.72l-2.65,1.59A1.06,1.06,0,0,1,37.76,34.59ZM37,32l.75.43.71-.43-.71-.43ZM26.24,34.59a1.06,1.06,0,0,1-.51-.14l-2.65-1.59a1,1,0,0,1,0-1.72l2.65-1.59a1,1,0,0,1,1,0l2.76,1.59a1,1,0,0,1,0,1.74l-2.76,1.59A1,1,0,0,1,26.24,34.59ZM25.54,32l.71.43L27,32l-.75-.43Zm8-1.6a1,1,0,0,1-.5-.13,1,1,0,0,1-.5-.87V26.22a1,1,0,0,1,.52-.88l2.69-1.49a1,1,0,0,1,1,0,1,1,0,0,1,.5.85l.06,3.08a1,1,0,0,1-.5.89L34,30.27A1,1,0,0,1,33.5,30.4Zm1-3.59v.86l.75-.43,0-.84Zm-4,3.59a1,1,0,0,1-.5-.13l-2.76-1.59a1,1,0,0,1-.5-.89l.06-3.08a1,1,0,0,1,.5-.85,1,1,0,0,1,1,0L31,25.34a1,1,0,0,1,.52.88V29.4a1,1,0,0,1-.5.87A1,1,0,0,1,30.5,30.4Zm-1.75-3.16.75.43v-.86l-.73-.41Z"/></g><g id="path34399"><path d="M32,19a1,1,0,0,1-1-1V15a1,1,0,0,1,2,0v3A1,1,0,0,1,32,19Z"/></g><g id="path34481"><path d="M32,50a1,1,0,0,1-1-1V46a1,1,0,1,1,2,0v3A1,1,0,0,1,32,50Z"/></g><g id="path35422"><path d="M44.11,26a1,1,0,0,1-.5-1.87l2.62-1.51a1,1,0,1,1,1,1.73l-2.62,1.52A1,1,0,0,1,44.11,26Z"/></g><g id="path35424"><path d="M17.27,41.5a1,1,0,0,1-.87-.5,1,1,0,0,1,.37-1.36l2.62-1.52a1,1,0,0,1,1,1.74l-2.62,1.51A1,1,0,0,1,17.27,41.5Z"/></g><g id="path35426"><path d="M19.89,26a1,1,0,0,1-.5-.13l-2.62-1.52a1,1,0,1,1,1-1.73l2.62,1.51a1,1,0,0,1-.5,1.87Z"/></g><g id="path35428"><path d="M46.73,41.5a1,1,0,0,1-.5-.13l-2.62-1.51a1,1,0,0,1,1-1.74l2.62,1.52A1,1,0,0,1,47.6,41,1,1,0,0,1,46.73,41.5Z"/></g></g></svg>