<?xml version="1.0" ?><svg viewBox="0 0 64 64" xmlns="http://www.w3.org/2000/svg"><defs><style>.cls-1{fill:#94d8e5;}</style></defs><g data-name="Snowflake" id="Snowflake-50"><path class="cls-1" d="M25.16,5A1.5,1.5,0,0,0,24.1,7.56L30.5,14v4.8L27.44,15.7a1.52,1.52,0,0,0-1.06-.44,1.5,1.5,0,0,0-1.06,2.56L30.5,23v6.4L25,26.2l-1.9-7.08a1.49,1.49,0,0,0-1.84-1.06,1.52,1.52,0,0,0-.91.7,1.55,1.55,0,0,0-.15,1.14l1.13,4.18-4.16-2.4-2.34-8.74A1.5,1.5,0,0,0,13,11.88a1.5,1.5,0,0,0-1.06,1.83l1.56,5.85L10.67,18a1.5,1.5,0,1,0-1.5,2.6L12,22.16,6.11,23.72a1.5,1.5,0,0,0,.77,2.9l8.75-2.34,4.16,2.4L15.6,27.8a1.5,1.5,0,0,0,.78,2.9l7.08-1.9L29,32l-5.54,3.2-7.08-1.9a1.5,1.5,0,1,0-.78,2.9l4.19,1.12-4.16,2.4L6.88,37.38a1.5,1.5,0,0,0-.77,2.9L12,41.84,9.17,43.45a1.5,1.5,0,0,0,1.5,2.6l2.78-1.61-1.56,5.85a1.5,1.5,0,0,0,2.9.77l2.34-8.74,4.16-2.4L20.16,44.1a1.5,1.5,0,0,0,2.9.78L25,37.8l5.54-3.2V41l-5.18,5.18a1.5,1.5,0,0,0,2.12,2.12l3.06-3.06V50l-6.4,6.4a1.5,1.5,0,0,0,2.12,2.12l4.28-4.28V57.5a1.5,1.5,0,0,0,3,0V54.28l4.28,4.28a1.5,1.5,0,1,0,2.12-2.12L33.5,50v-4.8l3.06,3.06a1.5,1.5,0,0,0,2.12-2.12L33.5,41V34.6L39,37.8l1.9,7.08a1.5,1.5,0,1,0,2.9-.78l-1.13-4.18,4.16,2.4,2.34,8.74a1.5,1.5,0,0,0,2.9-.77l-1.56-5.85,2.78,1.61a1.5,1.5,0,0,0,1.5-2.6l-2.78-1.61,5.84-1.56a1.5,1.5,0,0,0-.77-2.9l-8.75,2.34-4.16-2.4L48.4,36.2a1.5,1.5,0,1,0-.78-2.9l-7.08,1.9L35,32l5.54-3.2,7.08,1.9a1.5,1.5,0,1,0,.78-2.9l-4.19-1.12,4.16-2.4,8.75,2.34a1.5,1.5,0,0,0,.77-2.9l-5.84-1.56,2.78-1.61a1.5,1.5,0,1,0-1.5-2.6l-2.78,1.61,1.56-5.85a1.5,1.5,0,0,0-1.06-1.83,1.5,1.5,0,0,0-1.84,1.06l-2.34,8.74-4.16,2.4,1.13-4.18a1.55,1.55,0,0,0-.15-1.14,1.52,1.52,0,0,0-.91-.7,1.49,1.49,0,0,0-1.84,1.06L39,26.2,33.5,29.4V23l5.18-5.18a1.5,1.5,0,1,0-2.12-2.12L33.5,18.76V14l6.4-6.4a1.5,1.5,0,1,0-2.12-2.12L33.5,9.72V6.5a1.5,1.5,0,0,0-3,0V9.72L26.22,5.44A1.5,1.5,0,0,0,25.16,5Z" id="path22552-6"/><g id="path22552"><path d="M32,60a2.5,2.5,0,0,1-2.5-2.5v-.8l-2.57,2.57a2.5,2.5,0,0,1-3.54-3.54l6.11-6.11v-2L28.14,49a2.5,2.5,0,0,1-3.53-3.54l4.89-4.89V36.33l-3.68,2.13L24,45.14a2.49,2.49,0,0,1-1.16,1.52,2.54,2.54,0,0,1-1.91.25,2.5,2.5,0,0,1-1.51-1.17,2.43,2.43,0,0,1-.25-1.9L19.69,42,18,43l-2.24,8.34a2.48,2.48,0,0,1-1.16,1.52,2.53,2.53,0,0,1-1.9.25,2.46,2.46,0,0,1-1.52-1.17A2.5,2.5,0,0,1,10.92,50l.94-3.52-.69.41a2.47,2.47,0,0,1-1.9.24A2.44,2.44,0,0,1,7.75,46a2.5,2.5,0,0,1,.92-3.42l.69-.4-3.51-.94a2.48,2.48,0,0,1-1.52-1.16,2.53,2.53,0,0,1-.25-1.9,2.46,2.46,0,0,1,1.17-1.52,2.5,2.5,0,0,1,1.89-.25l8.35,2.24,1.7-1-1.85-.49A2.55,2.55,0,0,1,13.82,36a2.5,2.5,0,0,1,2.82-3.66l6.68,1.79L27,32l-3.68-2.13-6.68,1.8a2.51,2.51,0,0,1-1.3-4.84l1.85-.49-1.7-1L7.14,27.59a2.49,2.49,0,0,1-1.89-.25,2.46,2.46,0,0,1-1.17-1.52,2.53,2.53,0,0,1,.25-1.9,2.48,2.48,0,0,1,1.52-1.16l3.51-.94-.69-.4A2.5,2.5,0,0,1,7.75,18a2.44,2.44,0,0,1,1.52-1.16,2.48,2.48,0,0,1,1.9.24l.69.41L10.92,14a2.49,2.49,0,0,1,.25-1.89,2.46,2.46,0,0,1,1.52-1.17,2.53,2.53,0,0,1,1.9.25,2.48,2.48,0,0,1,1.16,1.52L18,21l1.7,1-.49-1.85A2.51,2.51,0,0,1,21,17.09a2.53,2.53,0,0,1,1.9.25A2.49,2.49,0,0,1,24,18.87l1.79,6.67,3.68,2.13V23.42l-4.89-4.89a2.51,2.51,0,0,1,0-3.54,2.56,2.56,0,0,1,3.53,0l1.36,1.36v-2L23.39,8.27a2.52,2.52,0,0,1,0-3.54,2.57,2.57,0,0,1,3.54,0L29.5,7.3V6.5a2.5,2.5,0,0,1,5,0v.8l2.57-2.57a2.5,2.5,0,1,1,3.54,3.54L34.5,14.38v2L35.86,15a2.5,2.5,0,0,1,3.53,3.54L34.5,23.42v4.25l3.68-2.13L40,18.86a2.49,2.49,0,0,1,1.16-1.52A2.54,2.54,0,0,1,43,17.09a2.51,2.51,0,0,1,1.76,3.07L44.31,22,46,21l2.24-8.34a2.48,2.48,0,0,1,1.16-1.52,2.53,2.53,0,0,1,1.9-.25,2.46,2.46,0,0,1,1.52,1.17A2.49,2.49,0,0,1,53.08,14l-.94,3.52.69-.41a2.47,2.47,0,0,1,1.9-.24A2.44,2.44,0,0,1,56.25,18a2.5,2.5,0,0,1-.92,3.42l-.69.4,3.51.94a2.48,2.48,0,0,1,1.52,1.16,2.53,2.53,0,0,1,.25,1.9,2.46,2.46,0,0,1-1.17,1.52,2.5,2.5,0,0,1-1.89.25l-8.35-2.24-1.7,1,1.85.49A2.55,2.55,0,0,1,50.18,28a2.5,2.5,0,0,1-2.82,3.66l-6.68-1.79L37,32l3.68,2.13,6.68-1.8a2.53,2.53,0,0,1,1.9.25A2.52,2.52,0,0,1,50.18,36a2.55,2.55,0,0,1-1.52,1.17l-1.85.49,1.7,1,8.35-2.24a2.49,2.49,0,0,1,1.89.25,2.46,2.46,0,0,1,1.17,1.52,2.53,2.53,0,0,1-.25,1.9,2.48,2.48,0,0,1-1.52,1.16l-3.51.94.69.4A2.5,2.5,0,0,1,56.25,46a2.44,2.44,0,0,1-1.52,1.16,2.47,2.47,0,0,1-1.9-.24l-.69-.41L53.08,50a2.5,2.5,0,0,1-.25,1.89,2.46,2.46,0,0,1-1.52,1.17,2.53,2.53,0,0,1-1.9-.25,2.48,2.48,0,0,1-1.16-1.52L46,43l-1.7-1,.49,1.85a2.43,2.43,0,0,1-.25,1.9A2.49,2.49,0,0,1,43,46.91a2.53,2.53,0,0,1-1.9-.25A2.49,2.49,0,0,1,40,45.13l-1.79-6.67L34.5,36.33v4.25l4.89,4.89A2.5,2.5,0,0,1,35.86,49L34.5,47.65v2l6.11,6.11a2.5,2.5,0,1,1-3.54,3.54L34.5,56.7v.8A2.5,2.5,0,0,1,32,60Zm-1.5-6.72a1,1,0,0,1,1,1V57.5a.5.5,0,0,0,1,0V54.28a1,1,0,0,1,.62-.92,1,1,0,0,1,1.09.21l4.28,4.28a.49.49,0,1,0,.7-.7l-6.4-6.4A1.05,1.05,0,0,1,32.5,50v-4.8a1,1,0,0,1,1.71-.71l3.06,3.06a.5.5,0,0,0,.71-.7L32.79,41.7a1,1,0,0,1-.29-.7V34.6a1,1,0,0,1,.5-.87,1,1,0,0,1,1,0l5.54,3.2a1,1,0,0,1,.47.61l1.89,7.08a.51.51,0,0,0,.23.3.5.5,0,0,0,.39,0,.47.47,0,0,0,.3-.23.48.48,0,0,0,0-.38l-1.12-4.18a1,1,0,0,1,1.46-1.13l4.16,2.4a1,1,0,0,1,.47.61l2.34,8.74a.54.54,0,0,0,.23.31.53.53,0,0,0,.38,0,.51.51,0,0,0,.36-.62L49.58,44.7a1,1,0,0,1,1.47-1.13l2.78,1.61a.5.5,0,0,0,.38,0,.47.47,0,0,0,.31-.23.5.5,0,0,0,0-.38.51.51,0,0,0-.24-.3l-2.78-1.61a1,1,0,0,1,.24-1.83l5.84-1.57a.54.54,0,0,0,.31-.23A.53.53,0,0,0,58,38.7a.51.51,0,0,0-.62-.36l-8.74,2.35a1.06,1.06,0,0,1-.76-.1l-4.16-2.4a1,1,0,0,1-.49-1,1,1,0,0,1,.74-.84l4.18-1.12a.47.47,0,0,0,.3-.23.49.49,0,0,0,.05-.38.44.44,0,0,0-.23-.3.49.49,0,0,0-.38,0l-7.08,1.9a1.05,1.05,0,0,1-.76-.1l-5.54-3.2a1,1,0,0,1,0-1.74L40,27.93a1.05,1.05,0,0,1,.76-.1l7.08,1.9a.49.49,0,0,0,.38-.05.44.44,0,0,0,.23-.3.49.49,0,0,0-.05-.38.47.47,0,0,0-.3-.23L44,27.65a1,1,0,0,1-.74-.84,1,1,0,0,1,.49-1l4.16-2.4a1,1,0,0,1,.76-.1l8.74,2.35A.51.51,0,0,0,58,25.3a.53.53,0,0,0-.05-.38.54.54,0,0,0-.31-.23l-5.84-1.57a1,1,0,0,1-.24-1.83l2.78-1.61a.51.51,0,0,0,.24-.3.5.5,0,0,0,0-.38.47.47,0,0,0-.31-.23.5.5,0,0,0-.38.05l-2.78,1.61a1,1,0,0,1-1.47-1.13l1.57-5.84a.55.55,0,0,0,0-.38.5.5,0,0,0-.69-.19.54.54,0,0,0-.23.31l-2.34,8.74a1,1,0,0,1-.47.61L43.21,25a1,1,0,0,1-1.46-1.13l1.12-4.18a.5.5,0,0,0,0-.38.46.46,0,0,0-.3-.23.5.5,0,0,0-.39,0,.51.51,0,0,0-.23.3L40,26.46a1,1,0,0,1-.47.61L34,30.27a1,1,0,0,1-1,0,1,1,0,0,1-.5-.87V23a1,1,0,0,1,.29-.7L38,17.12a.53.53,0,0,0,.14-.36.5.5,0,0,0-.85-.35l-3.06,3.06a1,1,0,0,1-1.09.22,1,1,0,0,1-.62-.93V14a1.05,1.05,0,0,1,.29-.71l6.4-6.4a.49.49,0,1,0-.7-.7l-4.28,4.28a1,1,0,0,1-1.09.21,1,1,0,0,1-.62-.92V6.5a.5.5,0,0,0-1,0V9.72a1,1,0,0,1-.62.92,1,1,0,0,1-1.09-.21L25.51,6.15a.5.5,0,0,0-.7,0,.48.48,0,0,0,0,.7l6.4,6.4a1.05,1.05,0,0,1,.29.71v4.8a1,1,0,0,1-.62.93,1,1,0,0,1-1.09-.22l-3.06-3.06a.51.51,0,0,0-.71,0,.51.51,0,0,0,0,.7l5.19,5.19a1,1,0,0,1,.29.7v6.4a1,1,0,0,1-.5.87,1,1,0,0,1-1,0l-5.54-3.2a1,1,0,0,1-.47-.61L22.1,19.38a.51.51,0,0,0-.23-.3.5.5,0,0,0-.39,0,.46.46,0,0,0-.3.23.5.5,0,0,0-.05.38l1.12,4.18A1,1,0,0,1,20.79,25l-4.16-2.4a1,1,0,0,1-.47-.61L13.82,13.2a.54.54,0,0,0-.23-.31.5.5,0,0,0-.69.19.55.55,0,0,0-.05.38l1.57,5.84A1,1,0,0,1,13,20.43l-2.78-1.61a.5.5,0,0,0-.38-.05.47.47,0,0,0-.31.23.5.5,0,0,0-.05.38.51.51,0,0,0,.24.3l2.78,1.61a1,1,0,0,1-.24,1.83L6.37,24.69a.54.54,0,0,0-.31.23.53.53,0,0,0,0,.38.51.51,0,0,0,.62.36l8.74-2.35a1,1,0,0,1,.76.1l4.16,2.4a1,1,0,0,1,.49,1,1,1,0,0,1-.74.84l-4.18,1.12a.47.47,0,0,0-.3.23.49.49,0,0,0-.05.38.44.44,0,0,0,.23.3.49.49,0,0,0,.38.05l7.08-1.9a1.05,1.05,0,0,1,.76.1l5.54,3.2a1,1,0,0,1,0,1.74L24,36.07a1.05,1.05,0,0,1-.76.1l-7.08-1.9a.48.48,0,0,0-.38,0,.44.44,0,0,0-.23.3.49.49,0,0,0,.05.38.47.47,0,0,0,.3.23L20,36.35a1,1,0,0,1,.74.84,1,1,0,0,1-.49,1l-4.16,2.4a1.06,1.06,0,0,1-.76.1L6.63,38.34A.51.51,0,0,0,6,38.7a.53.53,0,0,0,0,.38.54.54,0,0,0,.31.23l5.84,1.57a1,1,0,0,1,.24,1.83L9.67,44.32a.51.51,0,0,0-.24.3.5.5,0,0,0,.05.38.47.47,0,0,0,.31.23.5.5,0,0,0,.38,0L13,43.57a1,1,0,0,1,1.47,1.13l-1.57,5.84a.51.51,0,0,0,.36.62.53.53,0,0,0,.38,0,.54.54,0,0,0,.23-.31l2.34-8.74a1,1,0,0,1,.47-.61l4.16-2.4a1,1,0,0,1,1.46,1.13l-1.12,4.18a.48.48,0,0,0,.05.38.47.47,0,0,0,.3.23.5.5,0,0,0,.39,0,.51.51,0,0,0,.23-.3L24,37.54a1,1,0,0,1,.47-.61L30,33.73a1,1,0,0,1,1,0,1,1,0,0,1,.5.87V41a1,1,0,0,1-.29.7L26,46.88a.53.53,0,0,0-.14.36.5.5,0,0,0,.85.35l3.06-3.06a1,1,0,0,1,1.71.71V50a1.05,1.05,0,0,1-.29.71l-6.4,6.4a.49.49,0,0,0,.7.7l4.28-4.28A1,1,0,0,1,30.5,53.28Z"/></g></g></svg>