<?xml version="1.0" ?><svg viewBox="0 0 64 64" xmlns="http://www.w3.org/2000/svg"><defs><style>.cls-1{fill:#94d8e5;}</style></defs><g data-name="Snowflake" id="Snowflake-33"><path class="cls-1" d="M32,5a1.5,1.5,0,0,0-1.5,1.5v5.22L25.2,8.78a1.5,1.5,0,1,0-1.45,2.63l6.75,3.73V18l-2.65-1.47a1.51,1.51,0,0,0-1.14-.13,1.5,1.5,0,0,0-.32,2.75l4.88,2.7a1.51,1.51,0,0,0,1.46,0l4.88-2.7a1.5,1.5,0,1,0-1.46-2.62L33.5,18V15.14l6.75-3.73A1.5,1.5,0,1,0,38.8,8.78l-5.3,2.94V6.5A1.5,1.5,0,0,0,32,5ZM16.82,13a1.51,1.51,0,0,0-1.53,1.47l-.11,6.06L10.67,18a1.52,1.52,0,0,0-1.14-.15,1.5,1.5,0,0,0-.36,2.75l4.51,2.61L8.49,26.28A1.5,1.5,0,1,0,10,28.85l6.61-4,2.44,1.41-2.6,1.56A1.5,1.5,0,0,0,18,30.41l4.77-2.87a1.5,1.5,0,0,0,.73-1.26l.1-5.58a1.5,1.5,0,0,0-3-.05l-.05,3-2.44-1.41.14-7.71A1.5,1.5,0,0,0,16.82,13Zm30.36,0a1.5,1.5,0,0,0-1.47,1.53l.14,7.71-2.44,1.41,0-3a1.5,1.5,0,0,0-3,.05l.1,5.58a1.5,1.5,0,0,0,.73,1.26L46,30.41a1.5,1.5,0,0,0,1.55-2.57l-2.6-1.56,2.44-1.41,6.61,4a1.5,1.5,0,0,0,1.55-2.57l-5.19-3.12,4.51-2.61a1.5,1.5,0,0,0-.36-2.75,1.52,1.52,0,0,0-1.14.15l-4.51,2.61-.11-6.06A1.51,1.51,0,0,0,47.18,13ZM17.29,33.38a1.5,1.5,0,0,0-.8,2.78l2.6,1.56-2.44,1.41-6.61-4A1.45,1.45,0,0,0,8.91,35a1.5,1.5,0,0,0-.42,2.74l5.19,3.12L9.17,43.45a1.5,1.5,0,0,0,1.5,2.6l4.51-2.61.11,6.06a1.5,1.5,0,0,0,3-.06l-.14-7.71,2.44-1.41.05,3a1.5,1.5,0,0,0,3-.05l-.1-5.58a1.5,1.5,0,0,0-.73-1.26L18,33.59A1.44,1.44,0,0,0,17.29,33.38Zm29.42,0a1.44,1.44,0,0,0-.75.21l-4.77,2.87a1.5,1.5,0,0,0-.73,1.26l-.1,5.58a1.5,1.5,0,0,0,3,.05l0-3,2.44,1.41-.14,7.71a1.5,1.5,0,1,0,3,.06l.11-6.06,4.51,2.61a1.5,1.5,0,0,0,1.5-2.6l-4.51-2.61,5.19-3.12A1.5,1.5,0,0,0,55.09,35a1.45,1.45,0,0,0-1.13.17l-6.61,4-2.44-1.41,2.6-1.56a1.5,1.5,0,0,0-.8-2.78ZM32,42a1.47,1.47,0,0,0-.73.19l-4.88,2.7a1.5,1.5,0,1,0,1.46,2.62L30.5,46v2.82l-6.75,3.73a1.5,1.5,0,1,0,1.45,2.63l5.3-2.94V57.5a1.5,1.5,0,0,0,3,0V52.28l5.3,2.94a1.5,1.5,0,0,0,1.45-2.63L33.5,48.86V46l2.65,1.47a1.5,1.5,0,1,0,1.46-2.62l-4.88-2.7A1.47,1.47,0,0,0,32,42Z" id="path67973-7-0-35-9"/><path class="cls-1" d="M29,24.19a1.51,1.51,0,0,0-2.23,1.29l-.06,3.45-3,1.78a1.51,1.51,0,0,0,0,2.58l3,1.78.06,3.45A1.51,1.51,0,0,0,29,39.81l3-1.68,3,1.68a1.51,1.51,0,0,0,2.23-1.29l.06-3.45,3-1.78a1.51,1.51,0,0,0,0-2.58l-3-1.78-.06-3.45A1.51,1.51,0,0,0,35,24.19l-3,1.68ZM29.71,28l1.56.86a1.51,1.51,0,0,0,1.46,0L34.29,28l0,1.79a1.52,1.52,0,0,0,.72,1.26l1.54.92-1.54.92a1.52,1.52,0,0,0-.72,1.26l0,1.79-1.56-.86a1.51,1.51,0,0,0-1.46,0L29.71,36l0-1.79A1.52,1.52,0,0,0,29,32.92L27.41,32,29,31.08a1.52,1.52,0,0,0,.72-1.26Z" id="path89364-2-9-4"/><g id="path67973-7-0-35"><path d="M32,60a2.5,2.5,0,0,1-2.5-2.5V54l-3.81,2.11a2.5,2.5,0,1,1-2.43-4.37l6.24-3.45v-.53l-1.17.65a2.47,2.47,0,0,1-1.9.21,2.51,2.51,0,0,1-1.5-1.19,2.47,2.47,0,0,1-.21-1.9A2.51,2.51,0,0,1,25.91,44l4.88-2.7a2.53,2.53,0,0,1,2.42,0L38.09,44a2.5,2.5,0,0,1-2.42,4.38l-1.17-.65v.53l6.24,3.45a2.5,2.5,0,1,1-2.43,4.37L34.5,54V57.5A2.5,2.5,0,0,1,32,60Zm-1.5-8.72a1,1,0,0,1,.51.14,1,1,0,0,1,.49.86V57.5a.5.5,0,0,0,1,0V52.28a1,1,0,0,1,.49-.86,1,1,0,0,1,1,0l5.3,2.93a.5.5,0,0,0,.38,0,.53.53,0,0,0,.3-.24.5.5,0,0,0,0-.38.53.53,0,0,0-.24-.3L33,49.73a1,1,0,0,1-.52-.87V46a1,1,0,0,1,.49-.86,1,1,0,0,1,1,0l2.66,1.47a.48.48,0,0,0,.38,0,.5.5,0,0,0,.1-.92l-4.88-2.7a.51.51,0,0,0-.48,0l-4.88,2.7a.51.51,0,0,0-.24.3.54.54,0,0,0,0,.38.51.51,0,0,0,.3.24.48.48,0,0,0,.38,0L30,45.17a1,1,0,0,1,1,0,1,1,0,0,1,.49.86v2.82a1,1,0,0,1-.52.87l-6.75,3.74a.49.49,0,0,0-.24.3.5.5,0,0,0,.05.38.53.53,0,0,0,.3.24.5.5,0,0,0,.38,0L30,51.41A.91.91,0,0,1,30.5,51.28ZM16.79,52a2.51,2.51,0,0,1-2.5-2.46l-.08-4.35-3,1.76a2.48,2.48,0,0,1-1.9.24A2.44,2.44,0,0,1,7.75,46a2.49,2.49,0,0,1,.92-3.41l3-1.76L8,38.58A2.5,2.5,0,0,1,6.84,37a2.51,2.51,0,0,1,1.83-3,2.5,2.5,0,0,1,1.89.28L16.66,38l.46-.26L16,37a2.5,2.5,0,0,1-.85-3.43,2.6,2.6,0,0,1,2.19-1.21h0a2.44,2.44,0,0,1,1.24.35l4.78,2.88a2.49,2.49,0,0,1,1.21,2.09l.1,5.58a2.49,2.49,0,0,1-2.45,2.54,2.51,2.51,0,0,1-2.55-2.45l0-1.34-.46.27.13,7.12A2.51,2.51,0,0,1,16.84,52Zm-1.61-9.53a1,1,0,0,1,1,1l.11,6.06a.51.51,0,0,0,.5.49h0a.5.5,0,0,0,.35-.15.47.47,0,0,0,.14-.36l-.14-7.72a1,1,0,0,1,.5-.88l2.44-1.41a1,1,0,0,1,1.5.85l.05,3a.5.5,0,0,0,.5.49h0a.46.46,0,0,0,.35-.15.43.43,0,0,0,.14-.36l-.1-5.57a.49.49,0,0,0-.24-.42l-4.78-2.87a.5.5,0,0,0-.51.85l2.59,1.57a1,1,0,0,1,.49.86,1,1,0,0,1-.5.86L17.15,40a1,1,0,0,1-1,0L9.53,36A.51.51,0,0,0,9.15,36a.48.48,0,0,0-.31.23.51.51,0,0,0-.06.38.52.52,0,0,0,.23.3L14.2,40a1,1,0,0,1,0,1.72L9.67,44.32a.51.51,0,0,0-.19.68.47.47,0,0,0,.31.23.5.5,0,0,0,.38,0l4.51-2.6A1,1,0,0,1,15.18,42.44Zm32,9.53h-.05a2.51,2.51,0,0,1-2.45-2.55l.13-7.12L44.38,42l0,1.34a2.46,2.46,0,0,1-.77,1.75,2.52,2.52,0,0,1-1.78.7,2.45,2.45,0,0,1-1.75-.76,2.42,2.42,0,0,1-.7-1.78l.1-5.58a2.49,2.49,0,0,1,1.21-2.09l4.78-2.88a2.44,2.44,0,0,1,1.24-.35h0a2.53,2.53,0,0,1,2.19,1.21A2.5,2.5,0,0,1,48,37l-1.15.69.46.26,6.1-3.68A2.5,2.5,0,1,1,56,38.58l-3.73,2.25,3,1.75a2.5,2.5,0,1,1-2.5,4.34l-3-1.76-.08,4.35A2.51,2.51,0,0,1,47.21,52Zm-3.8-12.65a1.09,1.09,0,0,1,.5.13l2.44,1.41a1,1,0,0,1,.5.88l-.14,7.72a.47.47,0,0,0,.14.36.51.51,0,0,0,.86-.34l.11-6.06a1,1,0,0,1,.5-.85,1,1,0,0,1,1,0l4.51,2.6a.5.5,0,1,0,.5-.86l-4.51-2.61a1,1,0,0,1,0-1.72L55,36.86a.49.49,0,0,0,.17-.68.48.48,0,0,0-.31-.23.49.49,0,0,0-.37.06l-6.62,4a1,1,0,0,1-1,0l-2.44-1.41a1,1,0,0,1-.5-.86,1,1,0,0,1,.49-.86L47,35.3a.48.48,0,0,0,.17-.68.51.51,0,0,0-.43-.24h0a.43.43,0,0,0-.25.07L41.7,37.32a.49.49,0,0,0-.24.42l-.1,5.57a.43.43,0,0,0,.14.36.46.46,0,0,0,.35.15.56.56,0,0,0,.36-.14.54.54,0,0,0,.15-.35l0-3a1,1,0,0,1,.51-.85A1,1,0,0,1,43.41,39.32Zm3.32-7.69a2.52,2.52,0,0,1-1.28-.36l-4.78-2.88a2.49,2.49,0,0,1-1.21-2.09l-.1-5.58a2.42,2.42,0,0,1,.7-1.78,2.45,2.45,0,0,1,1.75-.76,2.49,2.49,0,0,1,1.78.7,2.46,2.46,0,0,1,.77,1.75l0,1.34.46-.27-.13-7.12A2.51,2.51,0,0,1,47.16,12h0a2.58,2.58,0,0,1,1.78.7,2.49,2.49,0,0,1,.77,1.76l.08,4.35,3-1.76a2.52,2.52,0,0,1,1.9-.25A2.56,2.56,0,0,1,56.25,18a2.49,2.49,0,0,1-.92,3.41l-3,1.76L56,25.42a2.5,2.5,0,0,1-2.58,4.29L47.34,26l-.46.26L48,27a2.5,2.5,0,0,1,.85,3.43,2.47,2.47,0,0,1-1.54,1.14A2.55,2.55,0,0,1,46.73,31.63ZM41.86,20.18h0a.46.46,0,0,0-.35.15.43.43,0,0,0-.14.35l.1,5.58a.49.49,0,0,0,.24.42l4.78,2.87a.47.47,0,0,0,.38.06A.5.5,0,0,0,47,28.7L44.4,27.13a1,1,0,0,1-.49-.86,1,1,0,0,1,.5-.86L46.85,24a1,1,0,0,1,1,0l6.61,4a.5.5,0,0,0,.69-.17.49.49,0,0,0-.17-.68L49.8,24a1,1,0,0,1,0-1.72l4.51-2.61a.51.51,0,0,0,.19-.68.52.52,0,0,0-.31-.23.46.46,0,0,0-.38.05l-4.51,2.6a1,1,0,0,1-1,0,1,1,0,0,1-.5-.85l-.11-6.06a.5.5,0,0,0-.16-.35A.56.56,0,0,0,47.2,14h0a.5.5,0,0,0-.35.15.47.47,0,0,0-.14.36l.14,7.72a1,1,0,0,1-.5.88l-2.44,1.41a1,1,0,0,1-1,0,1,1,0,0,1-.51-.85l0-3a.54.54,0,0,0-.15-.35A.5.5,0,0,0,41.86,20.18ZM47.18,13h0ZM17.27,31.62A2.5,2.5,0,0,1,16,27l1.15-.69L16.66,26l-6.1,3.68a2.51,2.51,0,0,1-3.43-.86A2.46,2.46,0,0,1,6.84,27,2.5,2.5,0,0,1,8,25.42l3.73-2.25-3-1.75a2.5,2.5,0,1,1,2.5-4.33l3,1.75.08-4.35A2.54,2.54,0,0,1,16.84,12a2.51,2.51,0,0,1,2.45,2.55l-.13,7.12.46.27,0-1.34a2.51,2.51,0,0,1,2.55-2.45,2.49,2.49,0,0,1,2.45,2.54l-.1,5.58a2.49,2.49,0,0,1-1.21,2.09l-4.78,2.88A2.47,2.47,0,0,1,17.27,31.62Zm-.62-7.75a1.09,1.09,0,0,1,.5.13l2.44,1.41a1,1,0,0,1,.5.86,1,1,0,0,1-.49.86L17,28.7a.5.5,0,0,0,.13.91.47.47,0,0,0,.38-.06l4.78-2.87a.49.49,0,0,0,.24-.42l.1-5.57a.43.43,0,0,0-.14-.36.46.46,0,0,0-.35-.15h0a.5.5,0,0,0-.5.49l-.05,3a1,1,0,0,1-1.5.85l-2.44-1.41a1,1,0,0,1-.5-.88l.14-7.72a.47.47,0,0,0-.14-.36A.5.5,0,0,0,16.8,14h0a.51.51,0,0,0-.5.49l-.11,6.06a1,1,0,0,1-.5.85,1,1,0,0,1-1,0l-4.51-2.6a.47.47,0,0,0-.38-.05.48.48,0,0,0-.31.23.51.51,0,0,0,.19.68l4.51,2.61a1,1,0,0,1,0,1.72L9,27.14a.52.52,0,0,0-.23.3.51.51,0,0,0,.06.38.49.49,0,0,0,.69.17l6.61-4A1,1,0,0,1,16.65,23.87ZM32,23a2.48,2.48,0,0,1-1.21-.31L25.91,20a2.51,2.51,0,0,1-1.19-1.5,2.47,2.47,0,0,1,.21-1.9,2.51,2.51,0,0,1,1.5-1.19,2.47,2.47,0,0,1,1.9.21l1.17.65v-.53l-6.24-3.45a2.5,2.5,0,1,1,2.43-4.37L29.5,10V6.5a2.5,2.5,0,0,1,5,0V10l3.81-2.11a2.5,2.5,0,0,1,2.43,4.37L34.5,15.73v.53l1.17-.65A2.5,2.5,0,0,1,38.09,20l-4.88,2.7A2.48,2.48,0,0,1,32,23Zm-4.88-5.7-.14,0a.51.51,0,0,0-.3.24.54.54,0,0,0,0,.38.51.51,0,0,0,.24.3l4.88,2.7a.51.51,0,0,0,.48,0l4.88-2.7a.5.5,0,0,0-.1-.92.53.53,0,0,0-.38,0L34,18.83a1,1,0,0,1-1,0A1,1,0,0,1,32.5,18V15.14a1,1,0,0,1,.52-.87l6.75-3.74A.49.49,0,0,0,40,9.85a.53.53,0,0,0-.3-.24.56.56,0,0,0-.38.05L34,12.59a1,1,0,0,1-1,0,1,1,0,0,1-.49-.86V6.5a.5.5,0,0,0-1,0v5.22a1,1,0,0,1-.49.86,1,1,0,0,1-1,0l-5.3-2.93a.46.46,0,0,0-.38,0,.47.47,0,0,0-.3.23.5.5,0,0,0-.05.38.49.49,0,0,0,.24.3L31,14.27a1,1,0,0,1,.52.87V18a1,1,0,0,1-.49.86,1,1,0,0,1-1,0l-2.66-1.47A.48.48,0,0,0,27.12,17.3Z"/></g><g id="path89364-2-9"><path d="M28.25,41A2.55,2.55,0,0,1,27,40.66a2.48,2.48,0,0,1-1.25-2.12l-.05-2.9-2.49-1.5a2.5,2.5,0,0,1,0-4.28l2.49-1.5.05-2.9a2.5,2.5,0,0,1,3.71-2.14L32,24.72l2.54-1.4a2.5,2.5,0,0,1,3.71,2.14l0,2.9,2.49,1.5a2.5,2.5,0,0,1,0,4.28l-2.49,1.5,0,2.9a2.5,2.5,0,0,1-3.71,2.14L32,39.28l-2.54,1.4A2.52,2.52,0,0,1,28.25,41Zm0-16a.58.58,0,0,0-.25.07.51.51,0,0,0-.25.43L27.69,29a1,1,0,0,1-.49.84l-3,1.78a.51.51,0,0,0,0,.86l3,1.78a1,1,0,0,1,.49.84l.06,3.45a.51.51,0,0,0,.25.43.48.48,0,0,0,.49,0l3-1.67a1,1,0,0,1,1,0l3,1.67a.48.48,0,0,0,.49,0,.51.51,0,0,0,.25-.43l.06-3.45a1,1,0,0,1,.49-.84l3-1.78a.51.51,0,0,0,0-.86l-3-1.78a1,1,0,0,1-.49-.84l-.06-3.45a.51.51,0,0,0-.25-.43.48.48,0,0,0-.49,0l-3,1.67a1,1,0,0,1-1,0l-3-1.67h0A.47.47,0,0,0,28.25,25Zm6,12a1,1,0,0,1-.48-.12L32.24,36a.51.51,0,0,0-.48,0l-1.57.87A1,1,0,0,1,28.71,36l0-1.79a.49.49,0,0,0-.24-.42l-1.54-.92a1,1,0,0,1,0-1.72l1.54-.92a.49.49,0,0,0,.24-.42l0-1.79a1,1,0,0,1,1.48-.86l1.57.87a.51.51,0,0,0,.48,0l1.57-.87a1,1,0,0,1,1.48.86l0,1.79a.49.49,0,0,0,.24.42l1.54.92a1,1,0,0,1,0,1.72l-1.54.92a.49.49,0,0,0-.24.42l0,1.79a1,1,0,0,1-.5.85A1,1,0,0,1,34.29,37Zm-2.29-3a2.48,2.48,0,0,1,1.21.31l.12.07v-.13a2.47,2.47,0,0,1,1.21-2.1l.11-.07-.11-.07a2.47,2.47,0,0,1-1.21-2.09V29.7l-.12.07a2.48,2.48,0,0,1-2.42,0l-.12-.07v.14a2.47,2.47,0,0,1-1.21,2.09l-.11.07.11.07a2.47,2.47,0,0,1,1.21,2.1v.13l.12-.07A2.48,2.48,0,0,1,32,33.92Z"/></g></g></svg>