<?xml version="1.0" ?><svg viewBox="0 0 64 64" xmlns="http://www.w3.org/2000/svg"><defs><style>.cls-1{fill:#94d8e5;}</style></defs><g data-name="Snowflake" id="Snowflake-37"><path class="cls-1" d="M32,5a5.5,5.5,0,0,0-1.5,10.8v1.69l-3-1.85a1.51,1.51,0,0,0-1.14-.17,1.47,1.47,0,0,0-.92.68,1.5,1.5,0,0,0,.5,2.06L30.5,21v1.89L27.15,21a1.49,1.49,0,0,0-2.22,1.28l-.07,3.82-1.64-.94-.11-5.38a1.5,1.5,0,1,0-3,.07l.07,3.55-1.46-.84a5.56,5.56,0,0,0-2.58-6.12,5.69,5.69,0,0,0-2.07-.69,5.51,5.51,0,1,0,3.15,9.41l1.46.84-3.12,1.72A1.5,1.5,0,1,0,17,30.38l4.71-2.58,1.64.94-3.28,2a1.52,1.52,0,0,0,0,2.58l3.28,2-1.64.94L17,33.61a1.51,1.51,0,0,0-1.14-.12,1.48,1.48,0,0,0-.9.72,1.49,1.49,0,0,0,.59,2L18.68,38l-1.46.84a5.58,5.58,0,0,0-4.52-1.51,5.5,5.5,0,1,0,6,4.11l1.46-.84-.07,3.55a1.5,1.5,0,1,0,3,.07l.11-5.38,1.64-.94.07,3.82A1.49,1.49,0,0,0,27.15,43l3.35-1.85V43l-4.6,2.79a1.5,1.5,0,0,0,1.56,2.57l3-1.85V48.2a5.5,5.5,0,1,0,3,0V46.51l3,1.85a1.5,1.5,0,0,0,1.56-2.57L33.5,43V41.11L36.85,43a1.49,1.49,0,0,0,2.22-1.28l.07-3.82,1.64.94.11,5.38a1.5,1.5,0,1,0,3-.07l-.07-3.55,1.46.84a5.5,5.5,0,1,0,1.5-2.6L45.32,38l3.12-1.72a1.49,1.49,0,0,0,.59-2,1.48,1.48,0,0,0-.9-.72,1.51,1.51,0,0,0-1.14.12L42.28,36.2l-1.64-.94,3.28-2a1.52,1.52,0,0,0,0-2.58l-3.28-2,1.64-.94L47,30.38a1.5,1.5,0,1,0,1.45-2.62L45.32,26l1.46-.84a5.5,5.5,0,1,0,3.15-9.41,5.69,5.69,0,0,0-2.07.69,5.56,5.56,0,0,0-2.58,6.12l-1.46.84.07-3.55a1.5,1.5,0,1,0-3-.07l-.11,5.38-1.64.94-.07-3.82A1.49,1.49,0,0,0,36.85,21L33.5,22.89V21l4.6-2.79a1.5,1.5,0,0,0-1.56-2.57l-3,1.85V15.8A5.5,5.5,0,0,0,32,5Zm0,3a2.51,2.51,0,1,1-2.5,2.5A2.48,2.48,0,0,1,32,8ZM13.45,18.74a2.62,2.62,0,0,1,1.19.34,2.51,2.51,0,1,1-3.43.92,2.56,2.56,0,0,1,1.52-1.18A2.53,2.53,0,0,1,13.45,18.74Zm37.1,0a2.53,2.53,0,0,1,.72.08A2.56,2.56,0,0,1,52.79,20a2.5,2.5,0,1,1-3.43-.92A2.62,2.62,0,0,1,50.55,18.74ZM27.88,24.87l2.62,1.45V29.4l-2.67-1.54Zm8.24,0,.05,3L33.5,29.4V26.32Zm-9.79,5.59L29,32l-2.67,1.54L23.77,32Zm11.34,0L40.23,32l-2.56,1.54L35,32ZM30.5,34.6v3.08l-2.62,1.45-.05-3Zm3,0,2.67,1.54-.05,3L33.5,37.68ZM13.32,40.24a2.53,2.53,0,0,1,.72.08A2.51,2.51,0,1,1,11.21,44,2.51,2.51,0,0,1,13.32,40.24Zm37.36,0a2.51,2.51,0,1,1-2.24,1.26h0v0A2.48,2.48,0,0,1,50,40.32,2.53,2.53,0,0,1,50.68,40.24ZM32,51a2.51,2.51,0,1,1-2.5,2.51A2.48,2.48,0,0,1,32,51Z" id="path67699-0-7-0-29"/><g id="path67699-0-7-0"><path d="M32,60a6.49,6.49,0,0,1-5.17-10.43,2.39,2.39,0,0,1-.75-.07,2.5,2.5,0,0,1-.7-4.56l1.32-.8a2.5,2.5,0,0,1-2.56-1.48l0,1.54A2.5,2.5,0,0,1,23.34,46a2.65,2.65,0,0,1-1.79.7,2.5,2.5,0,0,1-2.18-1.38,6.51,6.51,0,1,1-6.79-9,6.28,6.28,0,0,1,1.62,0,2.51,2.51,0,0,1-.11-2.58,2.44,2.44,0,0,1,1.5-1.2,2.47,2.47,0,0,1,1.9.21l1.35.74a2.52,2.52,0,0,1,0-3l-1.35.74a2.5,2.5,0,0,1-3.29-3.57,6.5,6.5,0,1,1,5.17-9,2.5,2.5,0,0,1,2.18-1.38,2.56,2.56,0,0,1,1.79.7,2.5,2.5,0,0,1,.77,1.75l0,1.54a2.53,2.53,0,0,1,1-1.16,2.48,2.48,0,0,1,1.52-.32l-1.32-.8a2.46,2.46,0,0,1-1.13-1.54,2.5,2.5,0,0,1,1.83-3,2.39,2.39,0,0,1,.75-.07,6.5,6.5,0,1,1,10.34,0,2.39,2.39,0,0,1,.75.07,2.5,2.5,0,0,1,1.83,3,2.46,2.46,0,0,1-1.13,1.54l-1.32.8a2.5,2.5,0,0,1,2.56,1.48l0-1.54a2.5,2.5,0,0,1,.77-1.75,2.54,2.54,0,0,1,1.79-.7,2.5,2.5,0,0,1,2.18,1.38,6.51,6.51,0,1,1,5.17,9,2.5,2.5,0,0,1-3.29,3.57l-1.35-.74a2.52,2.52,0,0,1,0,3l1.35-.74a2.49,2.49,0,0,1,1.91-.21,2.44,2.44,0,0,1,1.49,1.2,2.51,2.51,0,0,1-.11,2.58,6.28,6.28,0,0,1,1.62,0,6.45,6.45,0,0,1,2.45.81,6.51,6.51,0,1,1-9.24,8.16,2.5,2.5,0,0,1-2.18,1.38,2.67,2.67,0,0,1-1.79-.7,2.5,2.5,0,0,1-.77-1.75l0-1.54a2.53,2.53,0,0,1-1,1.16,2.56,2.56,0,0,1-1.52.32l1.32.8a2.5,2.5,0,0,1-.7,4.56,2.39,2.39,0,0,1-.75.07A6.49,6.49,0,0,1,32,60ZM30.5,45.51a1.05,1.05,0,0,1,.49.13,1,1,0,0,1,.51.87V48.2a1,1,0,0,1-.72,1,4.5,4.5,0,1,0,2.44,0,1,1,0,0,1-.72-1V46.51A1,1,0,0,1,34,45.66l3,1.84a.47.47,0,0,0,.38.06.47.47,0,0,0,.31-.23.49.49,0,0,0-.17-.68L33,43.86A1,1,0,0,1,32.5,43V41.11a1,1,0,0,1,.49-.86,1,1,0,0,1,1,0l3.35,1.85a.48.48,0,0,0,.49,0,.45.45,0,0,0,.25-.42l.07-3.82a1,1,0,0,1,.51-.86,1,1,0,0,1,1,0l1.64.95a1,1,0,0,1,.5.84l.11,5.38a.52.52,0,0,0,.16.35.41.41,0,0,0,.35.14.53.53,0,0,0,.36-.16.46.46,0,0,0,.13-.35l-.07-3.56a1,1,0,0,1,1.5-.89l1.46.84a1,1,0,0,1,.47,1.11,4.51,4.51,0,1,0,6.62-2.79,4.29,4.29,0,0,0-1.69-.57,4.59,4.59,0,0,0-3.7,1.24,1,1,0,0,1-1.2.15l-1.46-.85a1,1,0,0,1,0-1.74L48,35.37a.5.5,0,0,0,.19-.68.49.49,0,0,0-.67-.2l-4.72,2.59a1,1,0,0,1-1,0l-1.64-1a1,1,0,0,1-.5-.86,1,1,0,0,1,.48-.86l3.28-2a.51.51,0,0,0,0-.86l-3.28-2a1,1,0,0,1-.48-.86,1,1,0,0,1,.5-.86l1.64-.95a1,1,0,0,1,1,0l4.72,2.59a.5.5,0,0,0,.48-.88l-3.12-1.71a1,1,0,0,1-.52-.87,1,1,0,0,1,.5-.87l1.46-.85a1,1,0,0,1,1.2.15,4.5,4.5,0,1,0,2.57-7.69,4.38,4.38,0,0,0-1.69.56,4.53,4.53,0,0,0-2.11,5,1,1,0,0,1-.47,1.11l-1.46.84a1,1,0,0,1-1.5-.89l.07-3.55a.47.47,0,0,0-.13-.36.52.52,0,0,0-.35-.16.45.45,0,0,0-.36.14.52.52,0,0,0-.16.35l-.11,5.38a1,1,0,0,1-.5.84l-1.64,1a1,1,0,0,1-1,0,1,1,0,0,1-.51-.86l-.07-3.82a.45.45,0,0,0-.25-.42.48.48,0,0,0-.49,0L34,23.76a1,1,0,0,1-1,0,1,1,0,0,1-.49-.86V21a1,1,0,0,1,.48-.86l4.6-2.79a.51.51,0,0,0,.23-.31.49.49,0,0,0-.06-.37.47.47,0,0,0-.31-.23.47.47,0,0,0-.38.06l-3,1.84a1,1,0,0,1-1.52-.85V15.8a1,1,0,0,1,.72-1,4.5,4.5,0,1,0-2.44,0,1,1,0,0,1,.72,1v1.69a1,1,0,0,1-.51.87,1,1,0,0,1-1,0l-3-1.84a.51.51,0,0,0-.38-.06.48.48,0,0,0-.31.23.49.49,0,0,0-.06.37.51.51,0,0,0,.23.31L31,20.14a1,1,0,0,1,.48.86v1.89a1,1,0,0,1-.49.86,1,1,0,0,1-1,0l-3.35-1.85a.48.48,0,0,0-.49,0,.45.45,0,0,0-.25.42l-.07,3.82a1,1,0,0,1-.51.86,1,1,0,0,1-1,0l-1.64-1a1,1,0,0,1-.5-.84l-.11-5.38a.52.52,0,0,0-.16-.35.53.53,0,0,0-.36-.14.52.52,0,0,0-.35.16.46.46,0,0,0-.13.35l.07,3.56a1,1,0,0,1-1.5.89l-1.46-.84a1,1,0,0,1-.47-1.11,4.53,4.53,0,0,0-2.11-5A4.38,4.38,0,0,0,14,16.79a4.5,4.5,0,1,0,2.57,7.69,1,1,0,0,1,1.2-.15l1.46.85a1,1,0,0,1,.5.87,1,1,0,0,1-.52.87L16,28.63a.5.5,0,0,0,.48.88l4.72-2.59a1,1,0,0,1,1,0l1.64.95a1,1,0,0,1,.5.86,1,1,0,0,1-.48.86l-3.28,2a.51.51,0,0,0,0,.86l3.28,2a1,1,0,0,1,.48.86,1,1,0,0,1-.5.86l-1.64,1a1,1,0,0,1-1,0l-4.72-2.59a.48.48,0,0,0-.37,0,.48.48,0,0,0-.3.24.5.5,0,0,0,.19.68l3.12,1.71a1,1,0,0,1,0,1.74l-1.46.85a1,1,0,0,1-1.2-.15,4.59,4.59,0,0,0-3.7-1.24,4.29,4.29,0,0,0-1.69.57,4.51,4.51,0,1,0,6.62,2.79,1,1,0,0,1,.47-1.11l1.46-.84a1,1,0,0,1,1.5.89l-.07,3.55a.47.47,0,0,0,.13.36.52.52,0,0,0,.35.16.45.45,0,0,0,.36-.14.52.52,0,0,0,.16-.35l.11-5.38a1,1,0,0,1,.5-.84L24.36,37a1,1,0,0,1,1,0,1,1,0,0,1,.51.86l.07,3.82a.45.45,0,0,0,.25.42.48.48,0,0,0,.49,0L30,40.24a1,1,0,0,1,1,0,1,1,0,0,1,.49.86V43a1,1,0,0,1-.48.86l-4.6,2.79a.49.49,0,0,0-.17.68.5.5,0,0,0,.69.17l3-1.84A1,1,0,0,1,30.5,45.51ZM32,57a3.51,3.51,0,1,1,3.5-3.5A3.47,3.47,0,0,1,32,57Zm0-5a1.51,1.51,0,1,0,1.5,1.51A1.49,1.49,0,0,0,32,52Zm18.63-5.73a3.51,3.51,0,0,1-1.77-.48A3.47,3.47,0,0,1,47.58,41a.24.24,0,0,1,.06-.09,3.49,3.49,0,0,1,2.07-1.56,3.65,3.65,0,0,1,1-.11h0a3.51,3.51,0,0,1-.08,7ZM49.31,42a1.5,1.5,0,0,0,.55,2,1.55,1.55,0,0,0,1.15.16,1.52,1.52,0,0,0,.36-2.77,1.57,1.57,0,0,0-1.15-.16,1.52,1.52,0,0,0-.9.71ZM13.37,46.26a3.51,3.51,0,0,1-.08-7h0a3.7,3.7,0,0,1,1,.11A3.51,3.51,0,0,1,16.42,41a3.46,3.46,0,0,1-1.28,4.78A3.51,3.51,0,0,1,13.37,46.26Zm0-5a1.51,1.51,0,0,0-.36,3,1.55,1.55,0,0,0,1.15-.16,1.48,1.48,0,0,0,.55-2,1.47,1.47,0,0,0-1.34-.76Zm22.77-1.11a1,1,0,0,1-.49-.12L33,38.56a1,1,0,0,1-.52-.88V34.6a1,1,0,0,1,.5-.87,1,1,0,0,1,1,0l2.67,1.55a1,1,0,0,1,.5.88l-.05,3a1,1,0,0,1-.5.85A1,1,0,0,1,36.12,40.13Zm-1.62-3,.65.36v-.74l-.66-.38Zm-6.62,3a1,1,0,0,1-.5-.13,1,1,0,0,1-.5-.85l-.05-3a1,1,0,0,1,.5-.88L30,33.73a1,1,0,0,1,1,0,1,1,0,0,1,.5.87v3.08a1,1,0,0,1-.52.88L28.37,40A1,1,0,0,1,27.88,40.13Zm1-3.42v.74l.65-.36v-.76Zm8.83-2.17a1,1,0,0,1-.5-.13L34.5,32.87a1,1,0,0,1,0-1.74l2.67-1.54a1,1,0,0,1,1,0l2.56,1.54a1,1,0,0,1,0,1.72L38.19,34.4A1.07,1.07,0,0,1,37.67,34.54ZM37,32l.66.38.63-.38-.63-.38ZM26.33,34.54a1.07,1.07,0,0,1-.52-.14l-2.56-1.54a1,1,0,0,1,0-1.72l2.56-1.54a1,1,0,0,1,1,0l2.67,1.54a1,1,0,0,1,0,1.74l-2.67,1.54A1,1,0,0,1,26.33,34.54ZM25.71,32l.63.38L27,32l-.66-.38Zm7.79-1.6a1,1,0,0,1-.5-.13,1,1,0,0,1-.5-.87V26.32a1,1,0,0,1,.52-.88L35.63,24a1,1,0,0,1,1.49.86l.05,3a1,1,0,0,1-.5.88L34,30.27A1,1,0,0,1,33.5,30.4Zm1-3.49v.76l.66-.38v-.74Zm-4,3.49a1,1,0,0,1-.5-.13l-2.67-1.55a1,1,0,0,1-.5-.88l.05-3A1,1,0,0,1,28.37,24L31,25.44a1,1,0,0,1,.52.88V29.4a1,1,0,0,1-.5.87A1,1,0,0,1,30.5,30.4Zm-1.66-3.11.66.38v-.76l-.65-.36Zm21.77-2.52a3.37,3.37,0,0,1-.9-.12,3.52,3.52,0,0,1-.85-6.43,3.54,3.54,0,0,1,1.66-.48h0a3.34,3.34,0,0,1,1,.12,3.51,3.51,0,0,1,.85,6.43A3.58,3.58,0,0,1,50.61,24.77Zm0-5a1.57,1.57,0,0,0-.72.21,1.49,1.49,0,1,0,.72-.21Zm0-1h0Zm-37.16,6a3.58,3.58,0,0,1-1.76-.48,3.51,3.51,0,0,1,.85-6.43,3.34,3.34,0,0,1,1-.12,3.54,3.54,0,0,1,1.66.48,3.52,3.52,0,0,1-.85,6.43A3.37,3.37,0,0,1,13.39,24.77ZM12.08,20.5A1.51,1.51,0,1,0,14.14,20a1.57,1.57,0,0,0-.72-.21h0A1.48,1.48,0,0,0,12.08,20.5ZM32,14a3.51,3.51,0,1,1,3.5-3.51A3.47,3.47,0,0,1,32,14Zm0-5a1.51,1.51,0,1,0,1.5,1.5A1.49,1.49,0,0,0,32,9Z"/></g></g></svg>