<?xml version="1.0" ?><svg viewBox="0 0 64 64" xmlns="http://www.w3.org/2000/svg"><defs><style>.cls-1{fill:#94d8e5;}</style></defs><g data-name="Snowflake" id="Snowflake-39"><path class="cls-1" d="M24.68,5a1.5,1.5,0,0,0-1.06,2.56l6.88,6.88v4l-7.15-3.95a1.5,1.5,0,0,0-2.23,1.28L21,23.9l-3.44-2L15,12.53a1.5,1.5,0,1,0-2.9.77l1.75,6.5L10.67,18a1.52,1.52,0,0,0-1.14-.15,1.5,1.5,0,0,0-.36,2.75l3.2,1.85-6.5,1.74A1.49,1.49,0,0,0,4.81,26,1.51,1.51,0,0,0,6.65,27L16,24.52l3.44,2-7,4.21a1.52,1.52,0,0,0,0,2.58l7,4.21-3.44,2L6.65,37A1.51,1.51,0,0,0,4.81,38a1.49,1.49,0,0,0,1.06,1.83l6.5,1.74-3.2,1.85a1.5,1.5,0,0,0,1.5,2.6l3.2-1.85-1.75,6.5a1.5,1.5,0,1,0,2.9.77l2.52-9.39,3.44-2,.14,8.17a1.5,1.5,0,0,0,2.23,1.28L30.5,45.6v4l-6.88,6.88a1.51,1.51,0,0,0,0,2.12,1.49,1.49,0,0,0,2.12,0L30.5,53.8v3.7a1.5,1.5,0,0,0,3,0V53.8l4.76,4.76a1.49,1.49,0,0,0,2.12,0,1.51,1.51,0,0,0,0-2.12L33.5,49.56v-4l7.15,3.95a1.5,1.5,0,0,0,2.23-1.28L43,40.1l3.44,2L49,51.47a1.5,1.5,0,1,0,2.9-.77l-1.75-6.5,3.2,1.85a1.5,1.5,0,0,0,1.5-2.6l-3.2-1.85,6.5-1.74A1.49,1.49,0,0,0,59.19,38,1.51,1.51,0,0,0,57.35,37L48,39.48l-3.44-2,7-4.21a1.52,1.52,0,0,0,0-2.58l-7-4.21,3.44-2L57.35,27A1.51,1.51,0,0,0,59.19,26a1.49,1.49,0,0,0-1.06-1.83l-6.5-1.74,3.2-1.85a1.5,1.5,0,0,0-.36-2.75,1.52,1.52,0,0,0-1.14.15l-3.2,1.85,1.75-6.5a1.5,1.5,0,1,0-2.9-.77l-2.52,9.39L43,23.9l-.14-8.17a1.5,1.5,0,0,0-2.23-1.28L33.5,18.4v-4l6.88-6.88a1.51,1.51,0,0,0,0-2.12,1.49,1.49,0,0,0-2.12,0L33.5,10.2V6.5a1.5,1.5,0,0,0-3,0v3.7L25.74,5.44A1.5,1.5,0,0,0,24.68,5Zm-.6,13.28,6.42,3.55v1.3l-1.67,3.38-3.76-.24L24,25.62Zm15.84,0,.13,7.34-1.12.65-3.76.24L33.5,23.13v-1.3ZM32,26.86l.93,1.87a1.47,1.47,0,0,0,1.44.83l2.08-.13-1.16,1.74a1.52,1.52,0,0,0,0,1.66l1.16,1.74-2.08-.13a1.47,1.47,0,0,0-1.44.83L32,37.14l-.93-1.87a1.47,1.47,0,0,0-1.44-.83l-2.08.13,1.16-1.74a1.52,1.52,0,0,0,0-1.66l-1.16-1.74,2.08.13a1.47,1.47,0,0,0,1.44-.83Zm-9.55,1.35,1.11.65L25.66,32l-2.1,3.14-1.11.65L16.16,32Zm19.1,0L47.84,32l-6.29,3.79-1.11-.65L38.34,32l2.1-3.14ZM28.83,37.49l1.67,3.38v1.3l-6.42,3.55L24,38.38l1.12-.65Zm6.34,0,3.76.24,1.12.65-.13,7.34L33.5,42.17V40.88Z" id="path99095-1"/><g id="path99095"><path d="M32,60a2.5,2.5,0,0,1-2.5-2.5V56.22l-3.05,3.05a2.5,2.5,0,0,1-3.53-3.54l6.58-6.58V47.29l-5.67,3.14a2.51,2.51,0,0,1-3.71-2.14L20,41.81l-1.61.93-2.41,9a2.5,2.5,0,0,1-4.58.61,2.48,2.48,0,0,1-.25-1.9l1.11-4.17-1.1.64A2.51,2.51,0,0,1,7.75,46a2.49,2.49,0,0,1,.92-3.41l1.11-.65L5.61,40.83A2.5,2.5,0,0,1,6.9,36l9,2.41,1.61-.93L12,34.14a2.5,2.5,0,0,1,0-4.28l5.55-3.34-1.61-.93L6.91,28a2.5,2.5,0,1,1-1.3-4.83l4.17-1.11-1.11-.64a2.5,2.5,0,1,1,2.5-4.33l1.1.64-1.11-4.17a2.49,2.49,0,0,1,1.77-3.06,2.41,2.41,0,0,1,1.89.25A2.46,2.46,0,0,1,16,12.27l2.41,9,1.61.93.11-6.48a2.49,2.49,0,0,1,1.25-2.11,2.46,2.46,0,0,1,2.46,0l5.67,3.14V14.85L22.92,8.27a2.5,2.5,0,0,1,0-3.54,2.56,2.56,0,0,1,3.53,0L29.5,7.78V6.5a2.5,2.5,0,0,1,5,0V7.78l3-3a2.5,2.5,0,0,1,3.53,3.54L34.5,14.85v1.86l5.67-3.14a2.51,2.51,0,0,1,3.71,2.14L44,22.19l1.61-.93,2.41-9a2.5,2.5,0,0,1,4.58-.61,2.48,2.48,0,0,1,.25,1.9l-1.11,4.17,1.1-.64a2.5,2.5,0,1,1,2.5,4.32l-1.11.65,4.17,1.11A2.5,2.5,0,0,1,57.1,28l-9-2.41-1.61.93L52,29.86a2.5,2.5,0,0,1,0,4.28l-5.55,3.34,1.61.93,9-2.41a2.5,2.5,0,1,1,1.3,4.83l-4.17,1.11,1.11.64A2.51,2.51,0,0,1,56.25,46a2.44,2.44,0,0,1-1.52,1.16,2.47,2.47,0,0,1-1.9-.24l-1.1-.65,1.11,4.17a2.49,2.49,0,0,1-1.77,3.06,2.41,2.41,0,0,1-1.89-.25A2.46,2.46,0,0,1,48,51.73l-2.41-9L44,41.81l-.11,6.48a2.51,2.51,0,0,1-3.71,2.14L34.5,47.29v1.86l6.58,6.58a2.5,2.5,0,1,1-3.53,3.54l-3-3.05V57.5A2.5,2.5,0,0,1,32,60Zm-1.5-7.2a1,1,0,0,1,1,1v3.7a.5.5,0,0,0,1,0V53.8a1,1,0,0,1,1.71-.7L39,57.85a.5.5,0,0,0,.71,0,.5.5,0,0,0,0-.7l-6.88-6.88a1,1,0,0,1-.29-.71v-4a1,1,0,0,1,.49-.87,1,1,0,0,1,1,0l7.15,4a.52.52,0,0,0,.5,0,.51.51,0,0,0,.25-.42L42,40.08a1,1,0,0,1,.51-.85,1,1,0,0,1,1,0l3.44,2a1,1,0,0,1,.46.61l2.52,9.4a.51.51,0,0,0,.24.3.47.47,0,0,0,.38,0,.54.54,0,0,0,.3-.23.49.49,0,0,0,0-.38l-1.74-6.5a1,1,0,0,1,.36-1.05,1,1,0,0,1,1.1-.07l3.2,1.84a.5.5,0,0,0,.38,0,.47.47,0,0,0,.31-.23.51.51,0,0,0-.19-.68l-3.2-1.85a1,1,0,0,1-.49-1,1,1,0,0,1,.73-.83l6.5-1.74a.48.48,0,0,0,.3-.24.47.47,0,0,0,0-.38.5.5,0,0,0-.61-.35l-9.39,2.52a1,1,0,0,1-.76-.1l-3.44-2a1,1,0,0,1-.5-.85,1,1,0,0,1,.49-.87l7-4.21a.51.51,0,0,0,0-.86l-7-4.21a1,1,0,0,1-.49-.87,1,1,0,0,1,.5-.85l3.44-2a1,1,0,0,1,.76-.1l9.39,2.52a.5.5,0,0,0,.61-.35.47.47,0,0,0,0-.38.48.48,0,0,0-.3-.24l-6.5-1.74a1,1,0,0,1-.73-.83,1,1,0,0,1,.49-1l3.2-1.85a.51.51,0,0,0,.19-.68.48.48,0,0,0-.31-.23.47.47,0,0,0-.38.05l-3.2,1.84a1,1,0,0,1-1.1-.07,1,1,0,0,1-.36-1.05L50.91,13a.49.49,0,0,0,0-.38.54.54,0,0,0-.3-.23.47.47,0,0,0-.38.05.51.51,0,0,0-.24.3l-2.52,9.4a1,1,0,0,1-.46.61l-3.44,2a1,1,0,0,1-1,0,1,1,0,0,1-.51-.85l-.14-8.17a.51.51,0,0,0-.25-.42.52.52,0,0,0-.5,0l-7.15,4a1,1,0,0,1-1,0,1,1,0,0,1-.49-.87v-4a1,1,0,0,1,.29-.71l6.88-6.88a.5.5,0,0,0,0-.7.5.5,0,0,0-.71,0L34.21,10.9a1,1,0,0,1-1.71-.7V6.5a.5.5,0,0,0-1,0v3.7a1,1,0,0,1-1.71.7L25,6.15a.51.51,0,0,0-.71,0,.5.5,0,0,0,0,.7l6.88,6.88a1,1,0,0,1,.29.71v4a1,1,0,0,1-.49.87,1,1,0,0,1-1,0l-7.15-4a.52.52,0,0,0-.5,0,.51.51,0,0,0-.25.42L22,23.92a1,1,0,0,1-.51.85,1,1,0,0,1-1,0l-3.44-2a1,1,0,0,1-.46-.61l-2.52-9.4a.51.51,0,0,0-.62-.35.54.54,0,0,0-.3.23.49.49,0,0,0-.05.38l1.74,6.5a1,1,0,0,1-.36,1.05,1,1,0,0,1-1.1.07l-3.2-1.84a.47.47,0,0,0-.38-.05.48.48,0,0,0-.31.23.51.51,0,0,0,.19.68l3.2,1.85a1,1,0,0,1,.49,1,1,1,0,0,1-.73.83L6.13,25.1a.48.48,0,0,0-.3.24.47.47,0,0,0,0,.38.5.5,0,0,0,.61.35l9.39-2.52a1,1,0,0,1,.76.1l3.44,2a1,1,0,0,1,.5.85,1,1,0,0,1-.49.87l-7,4.21a.51.51,0,0,0,0,.86l7,4.21a1,1,0,0,1,.49.87,1,1,0,0,1-.5.85l-3.44,2a1,1,0,0,1-.76.1L6.39,37.93a.5.5,0,0,0-.61.35.47.47,0,0,0,0,.38.48.48,0,0,0,.3.24l6.5,1.74a1,1,0,0,1,.73.83,1,1,0,0,1-.49,1l-3.2,1.85a.51.51,0,0,0-.19.68.47.47,0,0,0,.31.23.5.5,0,0,0,.38,0l3.2-1.84a1,1,0,0,1,1.1.07,1,1,0,0,1,.36,1.05L13.09,51a.49.49,0,0,0,.05.38.54.54,0,0,0,.3.23.51.51,0,0,0,.62-.35l2.52-9.4a1,1,0,0,1,.46-.61l3.44-2a1,1,0,0,1,1,0,1,1,0,0,1,.51.85l.14,8.17a.51.51,0,0,0,.25.42.52.52,0,0,0,.5,0l7.15-4a1,1,0,0,1,1,0,1,1,0,0,1,.49.87v4a1,1,0,0,1-.29.71l-6.88,6.88a.5.5,0,0,0,0,.7.5.5,0,0,0,.71,0l4.75-4.75A1,1,0,0,1,30.5,52.8Zm9.42-6.08a1,1,0,0,1-.48-.12L33,43a1,1,0,0,1-.52-.87V40.88a1.14,1.14,0,0,1,.1-.45l1.68-3.38a1,1,0,0,1,1-.56l3.76.25a.94.94,0,0,1,.43.13l1.13.65a1,1,0,0,1,.49.88l-.13,7.34a1,1,0,0,1-1,1ZM34.5,41.58,39,44,39,39l-.4-.23-2.87-.19L34.5,41.11ZM24.08,46.72a1,1,0,0,1-1-1L23,38.4a1,1,0,0,1,.49-.88l1.13-.65a1,1,0,0,1,.44-.14l3.75-.24a1,1,0,0,1,1,.56l1.68,3.38a1.09,1.09,0,0,1,.1.44v1.3A1,1,0,0,1,31,43L24.56,46.6A1,1,0,0,1,24.08,46.72ZM25,39,25.05,44l4.45-2.46V41.1l-1.27-2.57-2.86.19Zm7-.81a1,1,0,0,1-.9-.56l-.92-1.87a.51.51,0,0,0-.48-.28l-2.09.14A1,1,0,0,1,26.72,34l1.16-1.73a.52.52,0,0,0,0-.56L26.72,30a1,1,0,0,1,0-1.05,1,1,0,0,1,.93-.5l2.09.14a.51.51,0,0,0,.48-.28l.92-1.87a1,1,0,0,1,1.8,0l.92,1.87a.51.51,0,0,0,.48.28l2.09-.14A1,1,0,0,1,37.28,30l-1.16,1.73a.52.52,0,0,0,0,.56L37.28,34a1,1,0,0,1-.89,1.55l-2.09-.14a.49.49,0,0,0-.48.28l-.92,1.87A1,1,0,0,1,32,38.14Zm-2.27-4.71A2.5,2.5,0,0,1,32,34.82l0,.06,0-.06a2.48,2.48,0,0,1,2.4-1.38h.07l0,0a2.51,2.51,0,0,1,0-2.78l0-.05h-.07A2.53,2.53,0,0,1,32,29.18l0-.06,0,.06a2.48,2.48,0,0,1-2.4,1.38H29.5l0,.05a2.51,2.51,0,0,1,0,2.78l0,0h.23Zm-7.28,3.36a1,1,0,0,1-.52-.15l-6.29-3.78a1,1,0,0,1,0-1.72l6.29-3.78a1,1,0,0,1,1,0l1.11.65a.82.82,0,0,1,.33.31l2.1,3.13a1,1,0,0,1,0,1.11L24.4,35.69a.92.92,0,0,1-.34.31L23,36.65A1,1,0,0,1,22.45,36.79ZM18.1,32l4.36,2.62.4-.23L24.45,32l-1.59-2.39-.4-.23Zm23.45,4.79a1,1,0,0,1-.5-.14L39.94,36a.82.82,0,0,1-.33-.31l-2.1-3.13a1,1,0,0,1,0-1.11l2.09-3.14a.92.92,0,0,1,.34-.31l1.11-.65a1,1,0,0,1,1,0l6.29,3.78a1,1,0,0,1,0,1.72l-6.29,3.78A1,1,0,0,1,41.55,36.79Zm-.41-2.4.4.23L45.9,32l-4.36-2.62-.4.23L39.55,32ZM28.83,27.51h-.07L25,27.26a.94.94,0,0,1-.43-.13l-1.13-.65A1,1,0,0,1,23,25.6l.13-7.34a1,1,0,0,1,.5-.85,1,1,0,0,1,1,0L31,21a1,1,0,0,1,.52.87v1.29a1.14,1.14,0,0,1-.1.45L29.72,27A1,1,0,0,1,28.83,27.51Zm-3.47-2.23,2.87.19,1.27-2.58v-.47L25.05,20,25,25.05Zm9.81,2.23a1,1,0,0,1-.89-.56L32.6,23.57a1.13,1.13,0,0,1-.1-.44v-1.3A1,1,0,0,1,33,21l6.42-3.56a1,1,0,0,1,1,0,1,1,0,0,1,.5.85l.13,7.34a1,1,0,0,1-.49.88l-1.13.65a.94.94,0,0,1-.43.13l-3.76.25ZM34.5,22.9l1.27,2.57,2.87-.19.4-.23L39,20,34.5,22.42Z"/></g></g></svg>