<?xml version="1.0" ?><svg viewBox="0 0 64 64" xmlns="http://www.w3.org/2000/svg"><defs><style>.cls-1{fill:#94d8e5;}</style></defs><g data-name="Snowflake" id="Snowflake-3"><path class="cls-1" d="M32.23,5a1.5,1.5,0,0,0-1.5,1.5v7.07L26.8,9.64a1.5,1.5,0,0,0-2.12,2.12l3.93,3.93H23.69a1.53,1.53,0,0,0-1.3.75l-2.47,4.27-1.43-5.37a1.5,1.5,0,0,0-1.84-1.06h0a1.49,1.49,0,0,0-1.06,1.83h0l1.52,5.69L10.43,18a1.5,1.5,0,1,0-1.5,2.6l6.28,3.62-5.06,1.36a1.49,1.49,0,0,0-1.06,1.83h0a1.5,1.5,0,0,0,1.84,1.06h0L16.3,27l-2.46,4.27a1.49,1.49,0,0,0,0,1.5L16.3,37l-5.37-1.44a1.51,1.51,0,0,0-1.84,1.06h0a1.49,1.49,0,0,0,1.06,1.83l5.38,1.44L9.4,43.45a1.5,1.5,0,0,0,1.5,2.6L17,42.51l-1.44,5.37a1.5,1.5,0,0,0,1.06,1.84h0a1.5,1.5,0,0,0,1.84-1.06h0l1.43-5.37,2.47,4.26a1.49,1.49,0,0,0,1.3.75h4.92l-3.93,3.94a1.49,1.49,0,0,0,0,2.12,1.51,1.51,0,0,0,2.12,0l3.93-3.94V57.5a1.5,1.5,0,0,0,3,0V50.42l3.94,3.94a1.5,1.5,0,0,0,2.12-2.12L35.85,48.3h4.93a1.49,1.49,0,0,0,1.3-.75l2.46-4.26L46,48.66a1.5,1.5,0,0,0,1.84,1.06h0a1.5,1.5,0,0,0,1.06-1.84h0l-1.35-5.05,5.57,3.22a1.5,1.5,0,0,0,2-.55h0a1.5,1.5,0,0,0-.55-2h0l-6-3.45,5.69-1.53a1.5,1.5,0,0,0-.77-2.9h0L48.16,37l2.47-4.26a1.54,1.54,0,0,0,0-1.5L48.16,27l5.38,1.44a1.49,1.49,0,0,0,1.83-1.06h0a1.49,1.49,0,0,0-1.06-1.83h0l-5.37-1.44,6.13-3.54a1.5,1.5,0,1,0-1.5-2.6l-6.13,3.54,1.44-5.37a1.5,1.5,0,0,0-1.06-1.84h0A1.5,1.5,0,0,0,46,15.34h0l-1.44,5.37-2.46-4.27a1.53,1.53,0,0,0-1.3-.75H35.85l3.94-3.93a1.5,1.5,0,1,0-2.12-2.12l-3.94,3.93V6.5A1.5,1.5,0,0,0,32.23,5ZM24.55,18.69h6.18v2.6l-7.25,4.19-2.14-1.23Zm9.18,0h6.19L43,24.05l-2.25,1.3-7-4.06Zm-3,6.07v4.91l-4.25-2.46Zm3,0,4,2.32-4,2.32ZM44.5,26.65,47.59,32l-3.2,5.56-2.13-1.24V27.94Zm-24.65.2,2.36,1.36v7.85L20,37.35,16.87,32Zm19.41,2.83v4.91L35,32.14Zm-14,.26L29,32.14l-3.79,2.18Zm5.52,4.66v4.64l-4-2.32Zm3,.27,3.79,2.19-3.79,2.18Zm-10,3.78,7,4.06V45.3H24.55L21.46,40Zm16.81.14,2.37,1.36-3,5.15H33.73V42.71Z" id="path29845-6"/><g id="path29845"><path d="M32.23,60a2.5,2.5,0,0,1-2.5-2.5V52.84l-2.22,2.22A2.5,2.5,0,1,1,24,51.53L26.2,49.3H23.69a2.52,2.52,0,0,1-2.17-1.25l-1.25-2.17-.82,3a2.5,2.5,0,1,1-4.83-1.3l.82-3-4,2.34a2.52,2.52,0,0,1-1.9.25,2.51,2.51,0,0,1-.6-4.59l4-2.33-3-.81a2.5,2.5,0,0,1-1.76-3.06,2.44,2.44,0,0,1,1.16-1.52,2.48,2.48,0,0,1,1.9-.25l3,.81L13,33.25a2.51,2.51,0,0,1,0-2.5l1.25-2.17-3,.81a2.52,2.52,0,0,1-1.9-.25,2.51,2.51,0,0,1-.91-3.42A2.48,2.48,0,0,1,9.9,24.56l2.72-.73L8.43,21.42a2.5,2.5,0,0,1,2.5-4.34l4.59,2.66-.9-3.37a2.49,2.49,0,0,1,.25-1.89,2.46,2.46,0,0,1,1.52-1.17,2.53,2.53,0,0,1,1.9.25,2.47,2.47,0,0,1,1.16,1.52l.82,3L21.52,16a2.5,2.5,0,0,1,2.17-1.25H26.2L24,12.47a2.51,2.51,0,0,1,0-3.54,2.57,2.57,0,0,1,3.54,0l2.22,2.23V6.5a2.5,2.5,0,0,1,5,0v4.66L37,8.93a2.5,2.5,0,0,1,3.53,0,2.49,2.49,0,0,1,0,3.54L38.27,14.7h2.51A2.5,2.5,0,0,1,43,16l1.25,2.17.82-3a2.44,2.44,0,0,1,1.16-1.52,2.51,2.51,0,0,1,3.67,2.82l-.82,3,4-2.34A2.49,2.49,0,0,1,55,16.83a2.51,2.51,0,0,1,.61,4.59l-4,2.33,3,.81a2.46,2.46,0,0,1,1.52,1.17,2.49,2.49,0,0,1,.25,1.89,2.46,2.46,0,0,1-1.17,1.52,2.49,2.49,0,0,1-1.89.25l-3-.81,1.25,2.17a2.48,2.48,0,0,1,0,2.5l-1.25,2.17,3-.81a2.5,2.5,0,1,1,1.29,4.83l-3.36.9,3.89,2.24a2.5,2.5,0,1,1-2.5,4.33l-3.48-2,.73,2.71a2.52,2.52,0,0,1-.25,1.9,2.55,2.55,0,0,1-1.52,1.17A2.49,2.49,0,0,1,45,48.92l-.82-3L43,48.05a2.52,2.52,0,0,1-2.17,1.25H38.27l2.23,2.23A2.5,2.5,0,0,1,37,55.07l-2.23-2.23V57.5A2.5,2.5,0,0,1,32.23,60Zm-1.5-10.58a1.09,1.09,0,0,1,.39.08,1,1,0,0,1,.61.92V57.5a.5.5,0,0,0,.5.5.5.5,0,0,0,.5-.5V50.42a1,1,0,0,1,.62-.92,1,1,0,0,1,1.09.22l3.93,3.93a.51.51,0,0,0,.71,0,.5.5,0,0,0,0-.71L35.15,49a1,1,0,0,1,.7-1.71h4.93a.48.48,0,0,0,.43-.25l2.47-4.26a1,1,0,0,1,1-.49,1,1,0,0,1,.84.73L47,48.4a.51.51,0,0,0,.61.36.48.48,0,0,0,.3-.24.47.47,0,0,0,0-.38l-1.35-5A1,1,0,0,1,46.92,42,1,1,0,0,1,48,42l5.57,3.21a.5.5,0,0,0,.38,0,.48.48,0,0,0,.3-.23.49.49,0,0,0-.18-.68l-6-3.46a1,1,0,0,1-.49-1,1,1,0,0,1,.73-.84l5.69-1.52a.5.5,0,0,0,.12-.92.45.45,0,0,0-.37-.05L48.42,38a1,1,0,0,1-1.05-.36,1,1,0,0,1-.07-1.11l2.46-4.26a.5.5,0,0,0,0-.5L47.3,27.48a1,1,0,0,1,.07-1.1A1,1,0,0,1,48.42,26l5.37,1.44a.51.51,0,0,0,.62-.36.5.5,0,0,0-.36-.61l-5.37-1.44a1,1,0,0,1-.73-.83,1,1,0,0,1,.49-1l6.13-3.54a.49.49,0,0,0,.18-.68.52.52,0,0,0-.3-.23.46.46,0,0,0-.38.05l-6.13,3.53a1,1,0,0,1-1.11-.07,1,1,0,0,1-.36-1.05l1.44-5.37a.47.47,0,0,0,0-.38.48.48,0,0,0-.3-.24.5.5,0,0,0-.61.36L45.51,21a1,1,0,0,1-.84.73,1,1,0,0,1-1-.49L41.21,17a.48.48,0,0,0-.43-.25H35.85a1,1,0,0,1-.7-1.71l3.93-3.94a.47.47,0,0,0,.15-.35.49.49,0,0,0-.15-.35.5.5,0,0,0-.71,0l-3.93,3.93a1,1,0,0,1-1.09.22,1,1,0,0,1-.62-.93V6.5a.5.5,0,0,0-.5-.5.5.5,0,0,0-.5.5v7.07a1,1,0,0,1-1.7.71l-3.94-3.93a.5.5,0,0,0-.7,0,.48.48,0,0,0,0,.7L29.32,15a1,1,0,0,1,.22,1.09,1,1,0,0,1-.93.62H23.69a.5.5,0,0,0-.44.25l-2.46,4.26a1,1,0,0,1-1,.49A1,1,0,0,1,19,21L17.52,15.6a.5.5,0,0,0-.61-.36.51.51,0,0,0-.36.62l1.53,5.69a1,1,0,0,1-.36,1.05,1,1,0,0,1-1.11.07L9.93,18.82a.5.5,0,1,0-.5.86l6.28,3.63a1,1,0,0,1,.49,1,1,1,0,0,1-.74.84l-5.05,1.35a.54.54,0,0,0-.3.23.49.49,0,0,0,0,.38.54.54,0,0,0,.23.31.53.53,0,0,0,.38.05L16,26a1,1,0,0,1,1.06.36,1,1,0,0,1,.07,1.1l-2.46,4.27a.5.5,0,0,0,0,.5l2.46,4.26A1,1,0,0,1,16,38l-5.37-1.44a.49.49,0,0,0-.38.05.54.54,0,0,0-.23.3h0a.5.5,0,0,0,.35.61L15.79,39a1,1,0,0,1,.73.83,1,1,0,0,1-.49,1L9.9,44.32a.49.49,0,0,0-.18.68.48.48,0,0,0,.3.23.5.5,0,0,0,.38,0l6.13-3.53A1,1,0,0,1,18,42.77l-1.44,5.37a.5.5,0,0,0,.36.61.49.49,0,0,0,.61-.35L19,43a1,1,0,0,1,1.83-.24l2.46,4.26a.5.5,0,0,0,.44.25h4.92a1,1,0,0,1,.93.62A1,1,0,0,1,29.32,49l-3.93,3.93a.5.5,0,0,0,0,.71.5.5,0,0,0,.7,0L30,49.72A1,1,0,0,1,30.73,49.42Zm9.19-3.12H33.73a1,1,0,0,1-1-1V42.71a1,1,0,0,1,.5-.87L40,37.92a1,1,0,0,1,1,0l2.37,1.37a1,1,0,0,1,.36,1.36l-3,5.15A1,1,0,0,1,39.92,46.3Zm-5.19-2h4.61l2.18-3.78-1-.58-5.79,3.34Zm-4,2H24.55a1,1,0,0,1-.86-.5L20.6,40.45a1,1,0,0,1-.1-.76,1,1,0,0,1,.46-.61l2.25-1.29a1,1,0,0,1,1,0l7,4.05a1,1,0,0,1,.5.87V45.3A1,1,0,0,1,30.73,46.3Zm-5.6-2h4.6v-1l-6-3.47-.88.51Zm5.6-4.06a1,1,0,0,1-.5-.13l-4-2.32a1,1,0,0,1,0-1.74l4-2.32a1,1,0,0,1,1,0,1,1,0,0,1,.5.87v4.64a1,1,0,0,1-.5.87A1,1,0,0,1,30.73,40.24Zm-2-3.32,1,.59V36.33Zm5,3.32a1,1,0,0,1-1-1V34.87a1,1,0,0,1,.5-.87,1,1,0,0,1,1,0L38,36.19a1,1,0,0,1,0,1.73l-3.79,2.19A1,1,0,0,1,33.73,40.24Zm1-3.64v.91l.79-.46Zm9.66,1.95a1,1,0,0,1-.5-.13l-2.13-1.23a1,1,0,0,1-.5-.87V28a1,1,0,0,1,.5-.87L44,25.78a1,1,0,0,1,.76-.1,1,1,0,0,1,.61.47l3.09,5.35a1,1,0,0,1,0,1l-3.21,5.55a1,1,0,0,1-.6.47Zm-1.13-2.8.76.44L46.44,32l-2.3-4-.88.51ZM20,38.35l-.26,0a1,1,0,0,1-.6-.47L16,32.5a1,1,0,0,1,0-1l3-5.15a1,1,0,0,1,.61-.47,1.06,1.06,0,0,1,.76.1l2.36,1.37a1,1,0,0,1,.5.86v7.84a1,1,0,0,1-.5.87l-2.25,1.3A1,1,0,0,1,20,38.35ZM18,32l2.3,4,.88-.51V28.79l-1-.57Zm21.23,3.59a1,1,0,0,1-.5-.13L34.5,33a1,1,0,0,1,0-1.73l4.26-2.46a1,1,0,0,1,1,0,1,1,0,0,1,.5.87v4.91a1,1,0,0,1-1,1ZM37,32.13l1.26.73V31.41ZM25.21,35.32a1,1,0,0,1-.5-.13,1,1,0,0,1-.5-.87V30a1,1,0,0,1,.5-.87,1,1,0,0,1,1,0l3.79,2.19a1,1,0,0,1,0,1.73l-3.79,2.19A1,1,0,0,1,25.21,35.32Zm1-3.64v.91l.79-.46Zm4.52-1a1,1,0,0,1-.5-.13L26,28.08a1,1,0,0,1,0-1.73l4.25-2.46a1,1,0,0,1,1,0,1,1,0,0,1,.5.87v4.91a1,1,0,0,1-.5.87A1,1,0,0,1,30.73,30.67Zm-2.25-3.46,1.25.73V26.49Zm5.25,3.19a1,1,0,0,1-1-1V24.76a1,1,0,0,1,.5-.87,1,1,0,0,1,1,0l4,2.32a1,1,0,0,1,0,1.74l-4,2.32A1,1,0,0,1,33.73,30.4Zm1-3.91v1.18l1-.59Zm-11.25,0a1,1,0,0,1-.5-.13l-2.13-1.23a1,1,0,0,1-.37-1.37l3.21-5.55a1,1,0,0,1,.86-.5h6.18a1,1,0,0,1,1,1v2.59a1,1,0,0,1-.5.87L24,26.35A1,1,0,0,1,23.48,26.48Zm-.77-2.59.77.44,6.25-3.61v-1h-4.6Zm18,2.46a1,1,0,0,1-.5-.14l-7-4.05a1,1,0,0,1-.5-.87V18.7a1,1,0,0,1,1-1h6.19a1,1,0,0,1,.86.5l3.09,5.35a1,1,0,0,1-.37,1.37l-2.25,1.29A1,1,0,0,1,40.75,26.35Zm-6-5.63,6,3.47.89-.51-2.3-4H34.73Z"/></g></g></svg>