<?xml version="1.0" ?><svg viewBox="0 0 64 64" xmlns="http://www.w3.org/2000/svg"><defs><style>.cls-1{fill:#94d8e5;}</style></defs><g data-name="Snowflake" id="Snowflake-45"><path class="cls-1" d="M32,5a1.5,1.5,0,0,0-1.06.44L27.09,9.29a1.49,1.49,0,0,0,0,2.12l3.41,3.41v1.44l-2-2a1.46,1.46,0,0,0-1.06-.44,1.47,1.47,0,0,0-1.06.44,1.51,1.51,0,0,0,0,2.12l4.1,4.09v.95h-.63a1.5,1.5,0,0,0,0,3h.63V29.4l-4.29-2.47.32-.55a1.5,1.5,0,0,0-1.69-2.2,1.48,1.48,0,0,0-.91.7l-.32.55L22.79,25l-1.5-5.59a1.5,1.5,0,0,0-2.89.77l.72,2.7-1.25-.72-1.25-4.66a1.49,1.49,0,0,0-1.83-1.06L9.53,17.8a1.5,1.5,0,0,0-1.06,1.84L9.88,24.9A1.49,1.49,0,0,0,11.71,26l4.66-1.25,1.25.72-2.7.72a1.5,1.5,0,0,0,.78,2.9l5.59-1.5.82.47-.32.55a1.51,1.51,0,0,0,.55,2.05,1.49,1.49,0,0,0,2.05-.55l.32-.55L29,32l-4.29,2.48-.32-.55a1.46,1.46,0,0,0-.91-.7,1.5,1.5,0,0,0-1.69,2.2l.32.55-.82.47L15.7,35a1.5,1.5,0,0,0-.78,2.9l2.7.72-1.25.72L11.71,38A1.49,1.49,0,0,0,9.88,39.1L8.47,44.36A1.5,1.5,0,0,0,9.53,46.2l5.26,1.41a1.49,1.49,0,0,0,1.83-1.06l1.25-4.66,1.25-.72-.72,2.7a1.5,1.5,0,1,0,2.89.77l1.5-5.59.82-.48.32.55a1.5,1.5,0,1,0,2.6-1.5l-.32-.55L30.5,34.6v4.95h-.63a1.5,1.5,0,0,0,0,3h.63v1l-4.1,4.09a1.51,1.51,0,0,0,0,2.12,1.49,1.49,0,0,0,2.12,0l2-2v1.44l-3.41,3.41a1.49,1.49,0,0,0,0,2.12l3.85,3.85a1.49,1.49,0,0,0,2.12,0l3.85-3.85a1.49,1.49,0,0,0,0-2.12L33.5,49.18V47.74l2,2a1.49,1.49,0,0,0,2.12,0,1.51,1.51,0,0,0,0-2.12L33.5,43.5v-1h.63a1.5,1.5,0,1,0,0-3H33.5V34.6l4.29,2.47-.32.55a1.5,1.5,0,0,0,2.6,1.5l.32-.55.82.48,1.5,5.59a1.5,1.5,0,1,0,2.89-.77l-.72-2.7,1.25.72,1.25,4.66a1.49,1.49,0,0,0,1.83,1.06l5.26-1.41a1.5,1.5,0,0,0,1.06-1.84L54.12,39.1A1.49,1.49,0,0,0,52.29,38l-4.66,1.25-1.25-.72,2.7-.72A1.5,1.5,0,1,0,48.3,35l-5.59,1.5L41.89,36l.32-.55a1.51,1.51,0,0,0-.55-2,1.49,1.49,0,0,0-2,.55l-.32.55L35,32l4.29-2.48.32.55a1.49,1.49,0,0,0,2,.55,1.51,1.51,0,0,0,.55-2.05L41.89,28l.82-.47,5.59,1.5a1.5,1.5,0,0,0,.78-2.9l-2.7-.72,1.25-.72L52.29,26a1.49,1.49,0,0,0,1.83-1.06l1.41-5.26a1.5,1.5,0,0,0-1.06-1.84l-5.26-1.41a1.49,1.49,0,0,0-1.83,1.06l-1.25,4.66-1.25.72.72-2.7a1.5,1.5,0,1,0-2.89-.77L41.21,25l-.82.48-.32-.55a1.48,1.48,0,0,0-.91-.7,1.5,1.5,0,0,0-1.69,2.2l.32.55L33.5,29.4V24.45h.63a1.5,1.5,0,0,0,0-3H33.5V20.5l4.1-4.09a1.51,1.51,0,0,0,0-2.12,1.49,1.49,0,0,0-2.12,0l-2,2V14.82l3.41-3.41a1.49,1.49,0,0,0,0-2.12L33.06,5.44A1.5,1.5,0,0,0,32,5Z" id="path36774-2"/><g id="path36774"><path d="M32,60a2.49,2.49,0,0,1-1.77-.73l-3.85-3.85a2.52,2.52,0,0,1,0-3.54l.75-.75a2.49,2.49,0,0,1-1.43-4.24l3.44-3.45a2.5,2.5,0,0,1,.36-4.86V36.33l-1.95,1.12a2.5,2.5,0,0,1-4,2.75l-1.26,4.7a2.49,2.49,0,0,1-3.06,1.77,2.55,2.55,0,0,1-1.34-.89l-.27,1a2.5,2.5,0,0,1-3.06,1.76l-5.26-1.4A2.49,2.49,0,0,1,7.75,46a2.52,2.52,0,0,1-.25-1.9l1.41-5.26A2.5,2.5,0,0,1,12,37.08l1,.27a2.56,2.56,0,0,1-.11-1.6A2.52,2.52,0,0,1,16,34l4.71,1.26a2.52,2.52,0,0,1,1.18-2.73,2.53,2.53,0,0,1,3.21.61L27,32l-1.95-1.12a2.45,2.45,0,0,1-1.31.86A2.49,2.49,0,0,1,20.68,30a2.48,2.48,0,0,1,0-1.21L16,30A2.49,2.49,0,0,1,13,26.65l-1,.27a2.5,2.5,0,0,1-3.06-1.76L7.5,19.9a2.51,2.51,0,0,1,1.77-3.07l5.26-1.4a2.5,2.5,0,0,1,3.06,1.76l.27,1a2.55,2.55,0,0,1,1.34-.89,2.49,2.49,0,0,1,3.06,1.77l1.26,4.7a2.5,2.5,0,0,1,3-.34,2.51,2.51,0,0,1,1.07,3.09l1.95,1.12V25.42a2.5,2.5,0,0,1-.36-4.86L25.7,17.11a2.5,2.5,0,0,1,1.43-4.24l-.75-.75a2.52,2.52,0,0,1,0-3.54l3.85-3.85A2.49,2.49,0,0,1,32,4h0a2.49,2.49,0,0,1,1.77.73l3.85,3.85a2.52,2.52,0,0,1,0,3.54l-.75.75a2.49,2.49,0,0,1,1.43,4.24l-3.44,3.45a2.5,2.5,0,0,1-.36,4.86v2.25l2-1.12a2.51,2.51,0,0,1,1.07-3.09,2.5,2.5,0,0,1,3,.34l1.26-4.7a2.49,2.49,0,0,1,3.06-1.77,2.55,2.55,0,0,1,1.34.89l.27-1a2.5,2.5,0,0,1,3.06-1.76l5.26,1.4A2.51,2.51,0,0,1,56.5,19.9l-1.41,5.26A2.5,2.5,0,0,1,52,26.92l-1-.27a2.49,2.49,0,0,1-3,3.37l-4.71-1.26a2.48,2.48,0,0,1,0,1.21,2.49,2.49,0,0,1-3.06,1.77A2.45,2.45,0,0,1,39,30.88L37,32l2,1.12a2.5,2.5,0,0,1,4.39,2.12L48.05,34a2.51,2.51,0,0,1,3.06,1.77,2.56,2.56,0,0,1-.11,1.6l1-.27a2.5,2.5,0,0,1,3.06,1.76L56.5,44.1a2.52,2.52,0,0,1-.25,1.9,2.49,2.49,0,0,1-1.52,1.17l-5.26,1.4a2.5,2.5,0,0,1-3.06-1.76l-.27-1a2.55,2.55,0,0,1-1.34.89,2.49,2.49,0,0,1-3.06-1.77l-1.26-4.7a2.5,2.5,0,0,1-4-2.75l-2-1.12v2.25a2.5,2.5,0,0,1,.36,4.86l3.44,3.45a2.5,2.5,0,0,1-1.43,4.24l.75.75a2.52,2.52,0,0,1,0,3.54l-3.85,3.85A2.49,2.49,0,0,1,32,60ZM30.5,46.74a1,1,0,0,1,.38.07,1,1,0,0,1,.62.93v1.44a1.05,1.05,0,0,1-.29.71L27.8,53.3a.48.48,0,0,0,0,.7l3.85,3.85a.48.48,0,0,0,.7,0L36.2,54a.48.48,0,0,0,0-.7l-3.41-3.41a1.05,1.05,0,0,1-.29-.71V47.74A1,1,0,0,1,34.21,47l2,2a.51.51,0,0,0,.71,0,.5.5,0,0,0,0-.71l-4.1-4.1a1,1,0,0,1-.29-.7v-1a1,1,0,0,1,1-1h.63a.5.5,0,1,0,0-1H33.5a1,1,0,0,1-1-1V34.6a1,1,0,0,1,.5-.87,1,1,0,0,1,1,0l4.29,2.48a1,1,0,0,1,.37,1.36l-.32.55a.5.5,0,0,0,.56.74.5.5,0,0,0,.31-.24l.31-.55a1,1,0,0,1,.61-.46,1,1,0,0,1,.76.1l.82.47a1,1,0,0,1,.46.61l1.5,5.6a.54.54,0,0,0,.23.3.49.49,0,0,0,.38.05.5.5,0,0,0,.36-.61l-.73-2.7a1,1,0,0,1,1.47-1.13l1.25.72a1,1,0,0,1,.46.61l1.25,4.66a.5.5,0,0,0,.61.35l5.26-1.41a.47.47,0,0,0,.31-.23.53.53,0,0,0,0-.38l-1.41-5.26a.5.5,0,0,0-.61-.35l-4.66,1.25a1,1,0,0,1-.76-.1l-1.25-.72a1,1,0,0,1,.24-1.84l2.7-.72a.5.5,0,0,0-.26-1L43,37.42a1,1,0,0,1-.75-.1l-.82-.48A1,1,0,0,1,41,35.48l.32-.55a.5.5,0,1,0-.87-.5l-.31.55a1,1,0,0,1-.61.46,1,1,0,0,1-.76-.1L34.5,32.87a1,1,0,0,1,0-1.74l4.29-2.47a1,1,0,0,1,.76-.1,1,1,0,0,1,.61.46l.31.55a.5.5,0,0,0,.31.24.5.5,0,0,0,.56-.74L41,28.52a1,1,0,0,1,.37-1.36l.82-.48a1,1,0,0,1,.75-.1l5.6,1.5a.5.5,0,0,0,.56-.73.45.45,0,0,0-.3-.23l-2.7-.72a1,1,0,0,1-.24-1.84l1.25-.72a1,1,0,0,1,.76-.1L52.55,25a.5.5,0,0,0,.61-.35l1.41-5.26a.5.5,0,0,0-.36-.61L49,17.36a.5.5,0,0,0-.61.35l-1.25,4.66a1,1,0,0,1-.46.61l-1.25.72a1,1,0,0,1-1.47-1.13l.73-2.7a.5.5,0,0,0-.36-.61.53.53,0,0,0-.38,0,.54.54,0,0,0-.23.3l-1.5,5.6a1,1,0,0,1-.46.61l-.82.47a1,1,0,0,1-1.37-.36l-.31-.55a.53.53,0,0,0-.31-.24.56.56,0,0,0-.38.05.51.51,0,0,0-.23.31.5.5,0,0,0,.05.38l.32.55a1,1,0,0,1-.37,1.36L34,30.27a1,1,0,0,1-1,0,1,1,0,0,1-.5-.87V24.45a1,1,0,0,1,1-1h.63a.5.5,0,0,0,0-1H33.5a1,1,0,0,1-1-1V20.5a1,1,0,0,1,.29-.7l4.1-4.1a.5.5,0,0,0,0-.71.51.51,0,0,0-.71,0l-2,2a1,1,0,0,1-1.71-.71V14.82a1.05,1.05,0,0,1,.29-.71L36.2,10.7a.48.48,0,0,0,0-.7L32.35,6.15a.5.5,0,0,0-.7,0L27.8,10a.48.48,0,0,0,0,.7l3.41,3.41a1.05,1.05,0,0,1,.29.71v1.44a1,1,0,0,1-1.71.71l-2-2a.52.52,0,0,0-.71,0,.5.5,0,0,0,0,.71l4.1,4.1a1,1,0,0,1,.29.7v.95a1,1,0,0,1-1,1h-.63a.5.5,0,0,0,0,1h.63a1,1,0,0,1,1,1V29.4a1,1,0,0,1-.5.87,1,1,0,0,1-1,0l-4.29-2.48a1,1,0,0,1-.37-1.36l.32-.55a.5.5,0,0,0,.05-.38.51.51,0,0,0-.23-.31.56.56,0,0,0-.38-.05.53.53,0,0,0-.31.24l-.31.55a1,1,0,0,1-1.37.36l-.82-.47a1,1,0,0,1-.46-.61l-1.5-5.6a.54.54,0,0,0-.23-.3.53.53,0,0,0-.38,0,.5.5,0,0,0-.36.61l.73,2.7a1,1,0,0,1-1.47,1.13L17.37,23a1,1,0,0,1-.46-.61l-1.25-4.66a.5.5,0,0,0-.62-.35L9.79,18.77a.5.5,0,0,0-.36.61l1.41,5.26a.5.5,0,0,0,.61.35l4.66-1.25a1,1,0,0,1,.76.1l1.25.72a1,1,0,0,1-.24,1.84l-2.7.72a.45.45,0,0,0-.3.23.49.49,0,0,0-.05.38.49.49,0,0,0,.61.35l5.6-1.5a1,1,0,0,1,.75.1l.82.48A1,1,0,0,1,23,28.52l-.32.55a.49.49,0,0,0,.18.68.47.47,0,0,0,.38.06.5.5,0,0,0,.31-.24l.31-.55a1,1,0,0,1,.61-.46,1,1,0,0,1,.76.1l4.29,2.47a1,1,0,0,1,0,1.74l-4.29,2.47a1,1,0,0,1-.76.1,1,1,0,0,1-.61-.46l-.31-.55a.48.48,0,0,0-.31-.23.46.46,0,0,0-.38,0,.5.5,0,0,0-.18.68l.32.55a1,1,0,0,1-.37,1.36l-.82.48a1,1,0,0,1-.75.1l-5.6-1.5a.5.5,0,1,0-.26,1l2.7.72a1,1,0,0,1,.24,1.84l-1.25.72a1,1,0,0,1-.76.1L11.45,39a.5.5,0,0,0-.61.35L9.43,44.62a.53.53,0,0,0,.05.38.47.47,0,0,0,.31.23l5.26,1.41a.5.5,0,0,0,.61-.35l1.25-4.66a1,1,0,0,1,.46-.61l1.25-.72a1,1,0,0,1,1.47,1.13l-.73,2.7a.5.5,0,0,0,.36.61.49.49,0,0,0,.38-.05.54.54,0,0,0,.23-.3l1.5-5.6a1,1,0,0,1,.46-.61l.82-.47a1,1,0,0,1,.76-.1,1,1,0,0,1,.61.46l.31.55a.5.5,0,0,0,.31.24.5.5,0,0,0,.56-.74l-.32-.55a1,1,0,0,1,.37-1.36L30,33.73a1,1,0,0,1,1,0,1,1,0,0,1,.5.87v4.95a1,1,0,0,1-1,1h-.63a.5.5,0,0,0,0,1h.63a1,1,0,0,1,1,1v1a1,1,0,0,1-.29.7l-4.1,4.1a.5.5,0,0,0,0,.71.51.51,0,0,0,.71,0l2-2A1,1,0,0,1,30.5,46.74Zm3-26.24h0Z"/></g><g id="path79014-7"><path d="M32,12.3a1,1,0,0,1-1-1V9.18a1,1,0,0,1,2,0V11.3A1,1,0,0,1,32,12.3Z"/></g><g id="path79214-5"><path d="M32,55.82a1,1,0,0,1-1-1V52.7a1,1,0,0,1,2,0v2.12A1,1,0,0,1,32,55.82Z"/></g><g id="path79429-9"><path d="M49.93,22.65a1,1,0,0,1-.5-1.87l1.84-1.06a1,1,0,0,1,1,1.73l-1.84,1.06A.93.93,0,0,1,49.93,22.65Z"/></g><g id="path79431-2"><path d="M12.23,44.41a1,1,0,0,1-.5-1.86l1.84-1.06a1,1,0,0,1,1.37.36,1,1,0,0,1-.37,1.37l-1.84,1.06A1,1,0,0,1,12.23,44.41Z"/></g><g id="path79433-2"><path d="M14.07,22.65a.93.93,0,0,1-.5-.14l-1.84-1.06a1,1,0,0,1,1-1.73l1.84,1.06a1,1,0,0,1-.5,1.87Z"/></g><g id="path79435-8"><path d="M51.77,44.41a1,1,0,0,1-.5-.13l-1.84-1.06a1,1,0,0,1-.37-1.37,1,1,0,0,1,1.37-.36l1.84,1.06a1,1,0,0,1-.5,1.86Z"/></g></g></svg>