<?xml version="1.0" ?><svg viewBox="0 0 64 64" xmlns="http://www.w3.org/2000/svg"><defs><style>.cls-1{fill:#94d8e5;}</style></defs><g data-name="Snowflake" id="Snowflake-36"><path class="cls-1" d="M26.71,5a1.72,1.72,0,0,0-.39,0,1.5,1.5,0,0,0-.42,2.74l4.6,2.79V12a4.68,4.68,0,0,0,0,8.88v2L27.15,21a1.49,1.49,0,0,0-2.22,1.28l-.07,3.83-1.71-1a4.73,4.73,0,0,0-2.25-5,4.82,4.82,0,0,0-1.76-.59,4.73,4.73,0,0,0-3.68,1.13L14.19,20l-.11-5.38a1.5,1.5,0,1,0-3,.06L11.19,20,6.53,22.54A1.5,1.5,0,0,0,8,25.17l4.71-2.59,1.26.73a4.69,4.69,0,0,0,7.7,4.45l1.71,1-3.28,2a1.52,1.52,0,0,0,0,2.58l3.28,2-1.71,1A4.77,4.77,0,0,0,18,35.11a4.64,4.64,0,0,0-1.76.59,4.75,4.75,0,0,0-2.25,5l-1.26.73L8,38.83a1.5,1.5,0,0,0-1.45,2.63L11.19,44l-.11,5.32a1.5,1.5,0,1,0,3,.06L14.19,44l1.26-.72a4.69,4.69,0,0,0,7.7-4.45l1.71-1,.07,3.82A1.49,1.49,0,0,0,27.15,43l3.35-1.85v2a4.68,4.68,0,0,0,0,8.88v1.46l-4.6,2.79a1.5,1.5,0,0,0,1.56,2.56L32,56l4.54,2.75a1.5,1.5,0,1,0,1.56-2.56l-4.6-2.79V52a4.68,4.68,0,0,0,0-8.88v-2L36.85,43a1.49,1.49,0,0,0,2.22-1.28l.07-3.82,1.71,1a4.69,4.69,0,0,0,7.7,4.45l1.26.72.11,5.38a1.5,1.5,0,1,0,3-.06L52.81,44l4.66-2.55A1.5,1.5,0,1,0,56,38.83l-4.71,2.59-1.26-.73a4.73,4.73,0,0,0-2.25-5A4.64,4.64,0,0,0,46,35.11a4.77,4.77,0,0,0-3.69,1.13l-1.71-1,3.28-2a1.52,1.52,0,0,0,0-2.58l-3.28-2,1.71-1a4.69,4.69,0,0,0,7.7-4.45l1.26-.73L56,25.17a1.5,1.5,0,1,0,1.45-2.63L52.81,20l.11-5.32a1.5,1.5,0,1,0-3-.06L49.81,20l-1.27.72a4.72,4.72,0,0,0-3.67-1.13,4.81,4.81,0,0,0-1.77.59,4.74,4.74,0,0,0-2.25,5l-1.71,1-.07-3.82A1.49,1.49,0,0,0,36.85,21L33.5,22.89v-2a4.68,4.68,0,0,0,0-8.88V10.57l4.6-2.79a1.5,1.5,0,1,0-1.56-2.56L32,8,27.46,5.22A1.55,1.55,0,0,0,26.71,5ZM32,14.78a1.69,1.69,0,1,1-1.69,1.69A1.67,1.67,0,0,1,32,14.78ZM18.59,22.54a1.63,1.63,0,0,1,.81.23,1.69,1.69,0,1,1-2.32.62,1.7,1.7,0,0,1,1-.8A1.57,1.57,0,0,1,18.59,22.54Zm26.82,0a1.57,1.57,0,0,1,.48.05,1.7,1.7,0,0,1,1,.8,1.7,1.7,0,1,1-2.32-.62A1.63,1.63,0,0,1,45.41,22.54ZM27.88,24.87l2.62,1.45V29.4l-2.67-1.54Zm8.24,0,.05,3L33.5,29.4V26.32Zm-9.79,5.59L29,32l-2.67,1.54L23.77,32Zm11.34,0L40.23,32l-2.56,1.54L35,32ZM30.5,34.6v3.08l-2.62,1.45-.05-3Zm3,0,2.67,1.54-.05,3L33.5,37.68Zm-15,3.47a1.57,1.57,0,0,1,.48,0,1.69,1.69,0,0,1,1,.79h0a1.69,1.69,0,1,1-2.32-.63A1.74,1.74,0,0,1,18.51,38.07Zm27,0a1.74,1.74,0,0,1,.81.23,1.69,1.69,0,1,1-2.32.62h0a1.69,1.69,0,0,1,1-.79A1.57,1.57,0,0,1,45.49,38.07ZM32,45.84h0a1.69,1.69,0,1,1-1.7,1.69A1.66,1.66,0,0,1,32,45.84Z" id="path67699-0-7-0-2-3"/><g id="path67699-0-7-0-2"><path d="M26.68,60a2.5,2.5,0,0,1-1.3-4.64l4.12-2.49v-.23a5.68,5.68,0,0,1-1.79-8.84l-.07,0a2.51,2.51,0,0,1-3.71-2.14v-.08A5.75,5.75,0,0,1,21.4,44.7a5.69,5.69,0,0,1-6-.22l-.2.12-.1,4.81a2.5,2.5,0,1,1-5-.1l.1-4.71L6.05,42.33A2.5,2.5,0,0,1,8.46,38l4.22,2.32.2-.12a5.66,5.66,0,0,1,6.76-6l-.07,0a2.5,2.5,0,0,1,0-4.28l.06,0a5.67,5.67,0,0,1-6.75-6l-.2-.12L8.46,26.05a2.47,2.47,0,0,1-1.9.21,2.53,2.53,0,0,1-1.5-1.2,2.51,2.51,0,0,1,1-3.39l4.13-2.27-.1-4.7a2.51,2.51,0,0,1,2.44-2.56,2.57,2.57,0,0,1,1.79.7,2.5,2.5,0,0,1,.77,1.75l.1,4.81.2.12a5.67,5.67,0,0,1,8.55,2.86V22.3a2.51,2.51,0,0,1,3.71-2.14l.07,0a5.68,5.68,0,0,1,1.79-8.84v-.23L25.38,8.64a2.5,2.5,0,0,1,.7-4.57A2.94,2.94,0,0,1,26.73,4,2.52,2.52,0,0,1,28,4.36L32,6.8l4-2.44a2.5,2.5,0,0,1,2.59,4.28L34.5,11.13v.23a5.68,5.68,0,0,1,1.79,8.84l.07,0a2.5,2.5,0,0,1,3.71,2.14v.08a5.68,5.68,0,0,1,8.55-2.86l.2-.12.1-4.81a2.5,2.5,0,1,1,5,.1l-.1,4.71L58,21.67a2.46,2.46,0,0,1,1.19,1.49,2.43,2.43,0,0,1-.21,1.9,2.49,2.49,0,0,1-3.39,1l-4.22-2.32-.2.12a5.67,5.67,0,0,1-6.75,6l.06,0a2.5,2.5,0,0,1,0,4.28l-.07,0a5.67,5.67,0,0,1,6.77,6l.19.11L55.54,38a2.47,2.47,0,0,1,1.9-.21,2.53,2.53,0,0,1,1.5,1.2,2.5,2.5,0,0,1-1,3.39L53.82,44.6l.1,4.7a2.5,2.5,0,1,1-5,.11l-.1-4.81-.2-.12a5.69,5.69,0,0,1-6,.22,5.75,5.75,0,0,1-2.53-3.08v.08a2.5,2.5,0,0,1-3.71,2.14l-.07,0a5.68,5.68,0,0,1-1.79,8.84v.23l4.12,2.49A2.5,2.5,0,0,1,36,59.64L32,57.2l-4,2.44A2.58,2.58,0,0,1,26.68,60ZM30.5,40.11a1,1,0,0,1,.51.14,1,1,0,0,1,.49.86v2a1,1,0,0,1-.68.94,3.7,3.7,0,0,0,0,7,1,1,0,0,1,.68.94v1.46a1,1,0,0,1-.48.86l-4.6,2.78a.5.5,0,0,0,.52.86l4.54-2.76a1,1,0,0,1,1,0l4.54,2.76a.5.5,0,1,0,.52-.86L33,54.29a1,1,0,0,1-.48-.86V52a1,1,0,0,1,.68-.94,3.7,3.7,0,0,0,0-7,1,1,0,0,1-.68-.94v-2a1,1,0,0,1,.49-.86,1,1,0,0,1,1,0l3.35,1.85a.48.48,0,0,0,.49,0,.47.47,0,0,0,.25-.42l.07-3.82a1,1,0,0,1,.51-.86,1,1,0,0,1,1,0l1.71,1A1,1,0,0,1,41.83,39a3.69,3.69,0,0,0,6.06,3.49,1,1,0,0,1,1.16-.11l1.26.73a1,1,0,0,1,.5.84l.11,5.38a.51.51,0,0,0,.5.49h0a.5.5,0,0,0,.49-.51L51.81,44a1,1,0,0,1,.52-.9L57,40.58a.49.49,0,0,0,.19-.68.48.48,0,0,0-.3-.24.54.54,0,0,0-.38,0l-4.71,2.59a1,1,0,0,1-1,0l-1.26-.72a1,1,0,0,1-.48-1.06,3.71,3.71,0,0,0-1.77-3.93,3.65,3.65,0,0,0-1.38-.47A3.77,3.77,0,0,0,43,37a1,1,0,0,1-1.16.11l-1.71-1a1,1,0,0,1-.5-.85,1,1,0,0,1,.48-.87l3.28-2a.51.51,0,0,0,0-.86l-3.28-2a1,1,0,0,1-.48-.86,1,1,0,0,1,.5-.86l1.71-1A1,1,0,0,1,43,27a3.69,3.69,0,0,0,6.06-3.49,1,1,0,0,1,.48-1.06l1.26-.73a1,1,0,0,1,1,0L56.5,24.3a.5.5,0,0,0,.68-.2.45.45,0,0,0,0-.38.5.5,0,0,0-.23-.3l-4.66-2.56a1,1,0,0,1-.52-.9l.11-5.31a.5.5,0,0,0-.49-.51h0a.51.51,0,0,0-.5.49L50.81,20a1,1,0,0,1-.5.84L49,21.58a1,1,0,0,1-1.15-.11,3.76,3.76,0,0,0-2.9-.9A3.64,3.64,0,0,0,43.6,21,3.71,3.71,0,0,0,41.83,25,1,1,0,0,1,41.35,26l-1.71,1a1,1,0,0,1-1,0,1,1,0,0,1-.51-.86l-.07-3.82a.45.45,0,0,0-.25-.42.48.48,0,0,0-.49,0L34,23.76a1,1,0,0,1-1,0,1,1,0,0,1-.49-.86v-2a1,1,0,0,1,.68-.94,3.7,3.7,0,0,0,0-7A1,1,0,0,1,32.5,12V10.57A1,1,0,0,1,33,9.71l4.6-2.78a.5.5,0,0,0,.17-.69.51.51,0,0,0-.69-.17L32.52,8.83a1,1,0,0,1-1,0L26.94,6.07A.55.55,0,0,0,26.69,6h-.13a.56.56,0,0,0-.31.23.5.5,0,0,0,.17.69L31,9.71a1,1,0,0,1,.48.86V12a1,1,0,0,1-.68.94,3.7,3.7,0,0,0,0,7,1,1,0,0,1,.68.94v2a1,1,0,0,1-.49.86,1,1,0,0,1-1,0l-3.35-1.85a.5.5,0,0,0-.49,0,.49.49,0,0,0-.25.42l-.07,3.83a1,1,0,0,1-.51.85,1,1,0,0,1-1,0l-1.71-1A1,1,0,0,1,22.17,25,3.71,3.71,0,0,0,20.4,21,3.65,3.65,0,0,0,19,20.57a3.77,3.77,0,0,0-2.91.9,1,1,0,0,1-1.15.11l-1.27-.73a1,1,0,0,1-.5-.84l-.11-5.38a.51.51,0,0,0-.5-.49h0a.5.5,0,0,0-.49.51L12.19,20a1,1,0,0,1-.52.9L7,23.42a.5.5,0,0,0-.23.3.45.45,0,0,0,0,.38.51.51,0,0,0,.68.2l4.71-2.59a1,1,0,0,1,1,0l1.26.73a1,1,0,0,1,.48,1.06A3.69,3.69,0,0,0,21,27a1,1,0,0,1,1.16-.11l1.71,1a1,1,0,0,1,.5.86,1,1,0,0,1-.48.86l-3.28,2a.51.51,0,0,0,0,.86l3.28,2a1,1,0,0,1,.48.87,1,1,0,0,1-.5.85l-1.71,1A1,1,0,0,1,21,37a3.75,3.75,0,0,0-2.9-.9,3.64,3.64,0,0,0-1.39.47,3.71,3.71,0,0,0-1.77,3.92,1,1,0,0,1-.48,1.06l-1.26.73a1,1,0,0,1-1,0L7.5,39.7a.54.54,0,0,0-.38,0,.48.48,0,0,0-.3.24.49.49,0,0,0,.2.68l4.65,2.56a1,1,0,0,1,.52.9l-.11,5.31a.5.5,0,0,0,.49.51h0a.51.51,0,0,0,.5-.49L13.19,44a1,1,0,0,1,.5-.84L15,42.42a1,1,0,0,1,1.16.11A3.69,3.69,0,0,0,22.17,39,1,1,0,0,1,22.65,38l1.71-1a1,1,0,0,1,1,0,1,1,0,0,1,.51.86l.07,3.82a.49.49,0,0,0,.25.42.5.5,0,0,0,.49,0L30,40.24A.91.91,0,0,1,30.5,40.11ZM32,50.22a2.69,2.69,0,0,1,0-5.38h0a2.69,2.69,0,0,1,0,5.38Zm0-3.38a.69.69,0,1,0,.08,0Zm13.5-4.37a2.78,2.78,0,0,1-1.36-.37,2.67,2.67,0,0,1-1-3.64l0-.05h0a2.68,2.68,0,0,1,1.63-1.25,2.46,2.46,0,0,1,.77-.09,2.74,2.74,0,0,1,1.28.36,2.71,2.71,0,0,1-.65,5A2.72,2.72,0,0,1,45.46,42.47Zm-.65-3a.7.7,0,0,0,1.24.63.68.68,0,0,0-.25-1A.7.7,0,0,0,44.81,39.48Zm-26.27,3a2.72,2.72,0,0,1-.69-.09,2.71,2.71,0,0,1-.65-5,2.74,2.74,0,0,1,1.28-.36h0a2.46,2.46,0,0,1,.77.09,2.7,2.7,0,0,1,1.63,1.24l0,0a2.68,2.68,0,0,1-1,3.66A2.78,2.78,0,0,1,18.54,42.47Zm-.34-3.31a.7.7,0,0,0,.17,1.28.66.66,0,0,0,.53-.07.7.7,0,0,0-.17-1.28A.68.68,0,0,0,18.2,39.16Zm.31-1.09h0Zm17.61,2.06a1,1,0,0,1-.49-.12L33,38.56a1,1,0,0,1-.52-.88V34.6a1,1,0,0,1,.5-.87,1,1,0,0,1,1,0l2.67,1.54a1,1,0,0,1,.5.89l-.05,3a1,1,0,0,1-.5.85A1,1,0,0,1,36.12,40.13Zm-1.62-3,.65.36v-.74l-.66-.38Zm-6.62,3a1,1,0,0,1-.5-.13,1,1,0,0,1-.5-.85l-.05-3a1,1,0,0,1,.5-.89L30,33.73a1,1,0,0,1,1,0,1,1,0,0,1,.5.87v3.08a1,1,0,0,1-.52.88L28.37,40A1,1,0,0,1,27.88,40.13Zm1-3.42v.74l.65-.36v-.76Zm8.83-2.17a1,1,0,0,1-.5-.13L34.5,32.87a1,1,0,0,1,0-1.74l2.67-1.54a1,1,0,0,1,1,0l2.56,1.54a1,1,0,0,1,0,1.72L38.19,34.4A1.07,1.07,0,0,1,37.67,34.54ZM37,32l.66.38.63-.38-.63-.38ZM26.33,34.54a1.07,1.07,0,0,1-.52-.14l-2.56-1.54a1,1,0,0,1,0-1.72l2.56-1.54a1,1,0,0,1,1,0l2.67,1.54a1,1,0,0,1,0,1.74l-2.67,1.54A1,1,0,0,1,26.33,34.54ZM25.71,32l.63.38L27,32l-.66-.38Zm7.79-1.6a1,1,0,0,1-.5-.13,1,1,0,0,1-.5-.87V26.32a1,1,0,0,1,.52-.88L35.63,24a1,1,0,0,1,1.49.86l.05,3a1,1,0,0,1-.5.89L34,30.27A1,1,0,0,1,33.5,30.4Zm1-3.49v.76l.66-.38v-.74Zm-4,3.49a1,1,0,0,1-.5-.13l-2.67-1.54a1,1,0,0,1-.5-.89l.05-3A1,1,0,0,1,28.37,24L31,25.44a1,1,0,0,1,.52.88V29.4a1,1,0,0,1-.5.87A1,1,0,0,1,30.5,30.4Zm-1.66-3.11.66.38v-.76l-.65-.36Zm16.59-.35a2.71,2.71,0,0,1-1.33-5,2.77,2.77,0,0,1,1.28-.36,2.49,2.49,0,0,1,.77.08,2.71,2.71,0,0,1,.65,4.95A2.77,2.77,0,0,1,45.43,26.94Zm-.33-3.31a.7.7,0,0,0,.7,1.21.7.7,0,0,0-.7-1.21Zm.31-1.09h0Zm-26.84,4.4a2.77,2.77,0,0,1-1.37-.37,2.71,2.71,0,0,1,.65-4.95,2.49,2.49,0,0,1,.77-.08h0a2.77,2.77,0,0,1,1.28.36,2.71,2.71,0,0,1-1.33,5ZM18,23.89a.68.68,0,0,0,.25.95.7.7,0,1,0-.25-.95ZM32,19.16a2.69,2.69,0,1,1,2.69-2.69A2.66,2.66,0,0,1,32,19.16Zm0-3.38a.69.69,0,1,0,.69.69A.67.67,0,0,0,32,15.78Z"/></g></g></svg>