<?xml version="1.0" ?><svg viewBox="0 0 64 64" xmlns="http://www.w3.org/2000/svg"><defs><style>.cls-1{fill:#94d8e5;}</style></defs><g data-name="Snowflake" id="Snowflake-26"><path class="cls-1" d="M32,5a5.36,5.36,0,0,0-1.5,10.51V18l-2.65-1.47a1.5,1.5,0,1,0-1.45,2.62L29,20.53l-5.36,3.1.05-2.93a1.5,1.5,0,0,0-3-.05l-.05,3-2.12-1.23a5.39,5.39,0,0,0-2.53-5.91h0a5.2,5.2,0,0,0-2-.67,5.35,5.35,0,1,0,3,9.18l2.13,1.23-2.6,1.56A1.5,1.5,0,0,0,18,30.41l2.5-1.51v6.2L18,33.59a1.5,1.5,0,0,0-1.55,2.57l2.6,1.56L17,39a5.34,5.34,0,1,0,1.51,2.6l2.12-1.23.05,3a1.5,1.5,0,0,0,3-.05l-.05-2.92L29,43.47,26.4,44.89a1.5,1.5,0,1,0,1.45,2.62L30.5,46v2.45a5.36,5.36,0,1,0,3,0V46l2.65,1.47a1.5,1.5,0,1,0,1.46-2.62l-2.56-1.42,5.36-3.09,0,2.92a1.5,1.5,0,0,0,3,.05l0-3,2.12,1.23A5.39,5.39,0,1,0,47,39l-2.13-1.23,2.6-1.56A1.5,1.5,0,0,0,46,33.59l-2.5,1.51V28.9L46,30.41a1.5,1.5,0,0,0,1.55-2.57l-2.6-1.56L47,25.05a5.36,5.36,0,1,0,3-9.18,5.2,5.2,0,0,0-2,.67h0a5.39,5.39,0,0,0-2.53,5.91l-2.12,1.23,0-3a1.5,1.5,0,0,0-3,.05l0,2.93-5.36-3.1,2.56-1.42a1.5,1.5,0,0,0-1.46-2.62L33.5,18V15.51A5.36,5.36,0,0,0,32,5Zm0,3a2.36,2.36,0,1,1-2.36,2.36A2.34,2.34,0,0,1,32,8ZM14.44,19.13a2.37,2.37,0,1,1-3.23.87,2.43,2.43,0,0,1,1.44-1.11A2.36,2.36,0,0,1,14.44,19.13Zm36.91-.24A2.43,2.43,0,0,1,52.79,20a2.35,2.35,0,1,1-1.44-1.11ZM32,22.23l8.46,4.89v9.76L32,41.77l-8.46-4.89V27.12Zm0,4.35,4.7,2.71v5.42L32,37.42l-4.7-2.71V29.29Zm-18.12,14a2.37,2.37,0,1,1-1.8.24A2.34,2.34,0,0,1,13.88,40.53Zm38,.24a2.37,2.37,0,1,1-3.23.87A2.34,2.34,0,0,1,51.92,40.77ZM32,51.28a2.36,2.36,0,1,1-2.36,2.36A2.34,2.34,0,0,1,32,51.28Z" id="path28663-3"/><g id="path28663"><path d="M32,60a6.36,6.36,0,0,1-2.5-12.21v0l-1.17.65A2.5,2.5,0,0,1,25.91,44l1-.56-2.3-1.32,0,1.15a2.42,2.42,0,0,1-.7,1.78,2.51,2.51,0,0,1-4.3-1.69l0-1.33-.05,0a6.36,6.36,0,1,1-9.49-4.75,6.21,6.21,0,0,1,2.39-.8,6.46,6.46,0,0,1,4.6,1.22l.05,0L16,37a2.5,2.5,0,0,1-.85-3.43,2.47,2.47,0,0,1,1.54-1.14,2.5,2.5,0,0,1,1.89.28l1,.6V30.67l-1,.6a2.5,2.5,0,0,1-1.89.28,2.47,2.47,0,0,1-1.54-1.14A2.5,2.5,0,0,1,16,27l1.15-.68-.05,0a6.36,6.36,0,1,1-3-11.4,6.32,6.32,0,0,1,2.39.8,6.42,6.42,0,0,1,3.13,6.27l.05,0,0-1.33a2.46,2.46,0,0,1,.77-1.75,2.58,2.58,0,0,1,1.78-.7,2.45,2.45,0,0,1,1.75.76,2.42,2.42,0,0,1,.7,1.78l0,1.15,2.3-1.32-1-.56a2.51,2.51,0,0,1-1-3.4,2.51,2.51,0,0,1,1.5-1.19,2.47,2.47,0,0,1,1.9.21l1.17.65v-.05a6.36,6.36,0,1,1,5,0v.05l1.17-.65A2.5,2.5,0,0,1,38.09,20l-1,.56,2.3,1.32,0-1.15a2.42,2.42,0,0,1,.7-1.78,2.51,2.51,0,0,1,4.3,1.69l0,1.33,0,0a6.36,6.36,0,1,1,2.5,4.33l0,0L48,27a2.5,2.5,0,0,1,.85,3.43,2.47,2.47,0,0,1-1.54,1.14,2.5,2.5,0,0,1-1.89-.28l-1-.6v2.66l1-.6a2.5,2.5,0,0,1,1.89-.28,2.47,2.47,0,0,1,1.54,1.14A2.5,2.5,0,0,1,48,37l-1.15.68,0,0a6.45,6.45,0,0,1,4.6-1.22,6.21,6.21,0,0,1,2.39.8,6.36,6.36,0,1,1-9.49,4.75l0,0,0,1.33a2.5,2.5,0,0,1-4.3,1.69,2.42,2.42,0,0,1-.7-1.78l0-1.15-2.3,1.32,1,.56a2.51,2.51,0,0,1,1.19,1.5,2.47,2.47,0,0,1-.21,1.9,2.51,2.51,0,0,1-3.4,1l-1.17-.65v0A6.36,6.36,0,0,1,32,60ZM30.5,45a1,1,0,0,1,.51.14,1,1,0,0,1,.49.86v2.45a1,1,0,0,1-.72,1,4.36,4.36,0,1,0,2.44,0,1,1,0,0,1-.72-1V46a1,1,0,0,1,.49-.86,1,1,0,0,1,1,0l2.66,1.47a.54.54,0,0,0,.38,0,.5.5,0,0,0,.1-.92l-2.56-1.41a1,1,0,0,1,0-1.74l5.36-3.1a1,1,0,0,1,1,0,1,1,0,0,1,.49.88l0,2.92a.43.43,0,0,0,.14.36.46.46,0,0,0,.35.15.53.53,0,0,0,.36-.14.54.54,0,0,0,.15-.35l0-3a1,1,0,0,1,.51-.85,1,1,0,0,1,1,0L46,40.68a1,1,0,0,1,.47,1.1,4.36,4.36,0,0,0,8,3.22,4.37,4.37,0,0,0-3.23-6.51,4.49,4.49,0,0,0-3.57,1.18,1,1,0,0,1-1.18.14l-2.13-1.22a1,1,0,0,1-.5-.86,1,1,0,0,1,.49-.86L47,35.3a.48.48,0,0,0,.17-.68.44.44,0,0,0-.3-.23.5.5,0,0,0-.38.06L44,36a1,1,0,0,1-1,0,1,1,0,0,1-.51-.87V28.9A1,1,0,0,1,43,28a1,1,0,0,1,1,0l2.51,1.5a.47.47,0,0,0,.38.06A.5.5,0,0,0,47,28.7L44.4,27.13a1,1,0,0,1-.49-.86,1,1,0,0,1,.5-.86l2.13-1.22a1,1,0,0,1,1.18.14,4.4,4.4,0,0,0,5.2.63,4.4,4.4,0,0,0,1.6-6,4.38,4.38,0,0,0-4.33-2.14,4.24,4.24,0,0,0-1.63.54,4.41,4.41,0,0,0-2.06,4.82,1,1,0,0,1-.47,1.1l-2.12,1.23a1,1,0,0,1-1,0,1,1,0,0,1-.51-.85l0-3a.54.54,0,0,0-.15-.35.5.5,0,0,0-.35-.14h0a.46.46,0,0,0-.35.15.43.43,0,0,0-.14.35l0,2.93a1,1,0,0,1-.49.88,1,1,0,0,1-1,0l-5.36-3.1a1,1,0,0,1,0-1.74l2.56-1.41a.5.5,0,0,0-.1-.92.5.5,0,0,0-.38,0L34,18.83a1,1,0,0,1-1,0A1,1,0,0,1,32.5,18V15.51a1,1,0,0,1,.72-1,4.36,4.36,0,1,0-2.44,0,1,1,0,0,1,.72,1V18a1,1,0,0,1-.49.86,1,1,0,0,1-1,0l-2.66-1.47a.53.53,0,0,0-.38,0,.51.51,0,0,0-.3.24.54.54,0,0,0,0,.38.51.51,0,0,0,.24.3l2.56,1.41a1,1,0,0,1,.51.87,1,1,0,0,1-.5.87l-5.36,3.1a1,1,0,0,1-1,0,1,1,0,0,1-.49-.88l.05-2.92a.43.43,0,0,0-.14-.36.46.46,0,0,0-.35-.15h0a.5.5,0,0,0-.35.14.54.54,0,0,0-.15.35l-.05,3a1,1,0,0,1-1.5.85L18,23.32a1,1,0,0,1-.47-1.1,4.41,4.41,0,0,0-2.06-4.82,4.24,4.24,0,0,0-1.63-.54,4.36,4.36,0,1,0,2.47,7.47,1,1,0,0,1,1.18-.14l2.13,1.22a1,1,0,0,1,.5.86,1,1,0,0,1-.49.86L17,28.7a.5.5,0,0,0,.13.91.47.47,0,0,0,.38-.06L20,28.05a1,1,0,0,1,1,0,1,1,0,0,1,.51.87v6.2A1,1,0,0,1,21,36a1,1,0,0,1-1,0l-2.51-1.5a.47.47,0,0,0-.38-.06.5.5,0,0,0-.13.91l2.59,1.57a1,1,0,0,1,.49.86,1,1,0,0,1-.5.86l-2.13,1.22a1,1,0,0,1-1.18-.14,4.5,4.5,0,0,0-3.57-1.18,4.38,4.38,0,0,0-1.63.55,4.4,4.4,0,0,0-1.6,6,4.36,4.36,0,0,0,8-3.22,1,1,0,0,1,.47-1.1l2.12-1.23a1,1,0,0,1,1.5.85l.05,3a.54.54,0,0,0,.15.35.5.5,0,0,0,.35.14h0a.46.46,0,0,0,.35-.15.43.43,0,0,0,.14-.35l-.05-2.93a1,1,0,0,1,.49-.88,1,1,0,0,1,1,0l5.36,3.1a1,1,0,0,1,.5.87,1,1,0,0,1-.51.87l-2.56,1.41a.5.5,0,1,0,.48.88L30,45.17A.91.91,0,0,1,30.5,45ZM32,57a3.36,3.36,0,1,1,3.36-3.36A3.33,3.33,0,0,1,32,57Zm0-4.72a1.36,1.36,0,1,0,1.36,1.36A1.34,1.34,0,0,0,32,52.28Zm18.76-6.09a3.42,3.42,0,0,1-1.7-.46,3.33,3.33,0,1,1,1.7.46Zm-1.2-4a1.34,1.34,0,0,0-.15,1,1.41,1.41,0,0,0,.65.83,1.33,1.33,0,0,0,1.86-.5,1.31,1.31,0,0,0,.14-1,1.37,1.37,0,0,0-.64-.82A1.33,1.33,0,0,0,49.56,42.14ZM10.35,44.5a3.37,3.37,0,1,1,4.59,1.23A3.33,3.33,0,0,1,10.35,44.5Zm2.23-2.86A1.36,1.36,0,0,0,13.94,44a1.41,1.41,0,0,0,.65-.83,1.34,1.34,0,0,0-.15-1,1.33,1.33,0,0,0-1.86-.5Zm.62-1.19h0ZM32,42.77a1,1,0,0,1-.5-.14L23,37.75a1,1,0,0,1-.5-.87V27.12a1,1,0,0,1,.5-.87l8.46-4.88a1,1,0,0,1,1,0L41,26.25a1,1,0,0,1,.5.87v9.76a1,1,0,0,1-.5.87L32.5,42.63A1,1,0,0,1,32,42.77Zm-7.46-6.46L32,40.61l7.46-4.3V27.69L32,23.39l-7.46,4.3ZM32,38.42a1,1,0,0,1-.5-.13l-4.7-2.71a1,1,0,0,1-.5-.87V29.29a1,1,0,0,1,.5-.87l4.7-2.71a1,1,0,0,1,1,0l4.7,2.71a1,1,0,0,1,.5.87v5.42a1,1,0,0,1-.5.87l-4.7,2.71A1,1,0,0,1,32,38.42Zm-3.7-4.29L32,36.27l3.7-2.14V29.87L32,27.73l-3.7,2.14Zm22.43-9.58a3.37,3.37,0,0,1-1.67-6.28A3.37,3.37,0,0,1,54,22.05a3.42,3.42,0,0,1-3.27,2.5ZM50.06,20a1.35,1.35,0,0,0-.5,1.86,1.33,1.33,0,0,0,1.86.5,1.37,1.37,0,0,0,.64-.82,1.31,1.31,0,0,0-.14-1A1.34,1.34,0,0,0,50.06,20Zm.62-1.19h0Zm-39.1,5.28a3.33,3.33,0,0,1-1.23-4.59,3.32,3.32,0,0,1,3-1.69h0a3.48,3.48,0,0,1,1.59.46,3.36,3.36,0,1,1-3.36,5.82Zm.5-3.59a1.36,1.36,0,0,0,2.36,1.36,1.36,1.36,0,1,0-2.36-1.36ZM32,13.72a3.36,3.36,0,1,1,3.36-3.36A3.32,3.32,0,0,1,32,13.72ZM32,9a1.36,1.36,0,1,0,1.36,1.36A1.33,1.33,0,0,0,32,9Z"/></g></g></svg>