<?xml version="1.0" ?><svg viewBox="0 0 64 64" xmlns="http://www.w3.org/2000/svg"><defs><style>.cls-1{fill:#94d8e5;}</style></defs><g data-name="Snowflake" id="Snowflake-28"><path class="cls-1" d="M32,5a1.51,1.51,0,0,0-1.3.75l-2.54,4.42A4.44,4.44,0,0,0,29.43,16l1.07.77V18l-2.65-1.47a1.5,1.5,0,1,0-1.45,2.62L29,20.53l-5.36,3.09.05-2.92a1.5,1.5,0,0,0-3-.05l-.05,3-1.05-.61-.13-1.31a4.44,4.44,0,0,0-4.4-4H9.92A1.5,1.5,0,0,0,8.62,20l2.55,4.41a4.45,4.45,0,0,0,5.67,1.81l1.2-.55,1.05.61-2.6,1.56A1.5,1.5,0,0,0,18,30.41l2.5-1.51v6.2L18,33.59a1.47,1.47,0,0,0-1.14-.17,1.5,1.5,0,0,0-.41,2.74l2.6,1.56L18,38.33l-1.2-.55a4.44,4.44,0,0,0-5.67,1.81L8.62,44a1.5,1.5,0,0,0,1.3,2.25H15a4.44,4.44,0,0,0,4.4-4l.13-1.31,1.05-.61.05,3a1.5,1.5,0,0,0,3-.05l-.05-2.93L29,43.47,26.4,44.89a1.5,1.5,0,1,0,1.45,2.62L30.5,46v1.21L29.43,48a4.44,4.44,0,0,0-1.27,5.81l2.54,4.42a1.5,1.5,0,0,0,2.6,0l2.54-4.42A4.44,4.44,0,0,0,34.57,48l-1.07-.77V46l2.65,1.47a1.5,1.5,0,1,0,1.46-2.62l-2.56-1.42,5.36-3.1,0,2.93a1.5,1.5,0,0,0,3,.05l0-3,1.05.61.13,1.31a4.44,4.44,0,0,0,4.4,4h5.09A1.5,1.5,0,0,0,55.38,44l-2.55-4.41a4.44,4.44,0,0,0-5.67-1.81l-1.2.55-1.05-.61,2.6-1.56a1.5,1.5,0,0,0-.41-2.74,1.47,1.47,0,0,0-1.14.17l-2.5,1.51V28.9L46,30.41a1.5,1.5,0,0,0,1.55-2.57l-2.6-1.56L46,25.67l1.2.55a4.45,4.45,0,0,0,5.67-1.81L55.38,20a1.5,1.5,0,0,0-1.3-2.25H49a4.44,4.44,0,0,0-4.4,4l-.13,1.31-1.05.61,0-3a1.5,1.5,0,0,0-3,.05l0,2.92-5.36-3.09,2.56-1.42a1.5,1.5,0,0,0-1.46-2.62L33.5,18V16.75L34.57,16a4.44,4.44,0,0,0,1.27-5.81L33.3,5.75A1.51,1.51,0,0,0,32,5Zm0,4.51,1.24,2.15a1.42,1.42,0,0,1-.41,1.88l-.83.59-.83-.59a1.42,1.42,0,0,1-.41-1.88ZM12.52,20.76H15a1.41,1.41,0,0,1,1.42,1.29l.1,1-.93.42a1.41,1.41,0,0,1-1.83-.59Zm39,0L50.23,22.9a1.41,1.41,0,0,1-1.83.59l-.93-.42.1-1A1.41,1.41,0,0,1,49,20.76ZM32,22.23l8.46,4.89v9.76L32,41.77l-8.46-4.89V27.12Zm0,4.49,4.57,2.64v5.28L32,37.28l-4.57-2.64V29.36ZM15,40.38a1.38,1.38,0,0,1,.65.13l.93.42-.1,1A1.41,1.41,0,0,1,15,43.24H12.52l1.25-2.14a1.43,1.43,0,0,1,.8-.66A1.59,1.59,0,0,1,15,40.38Zm34.1,0a1.59,1.59,0,0,1,.38.06,1.43,1.43,0,0,1,.8.66l1.25,2.14H49A1.41,1.41,0,0,1,47.57,42l-.1-1,.93-.42A1.38,1.38,0,0,1,49.05,40.38ZM32,49.87l.83.59a1.42,1.42,0,0,1,.41,1.88L32,54.49l-1.24-2.15a1.42,1.42,0,0,1,.41-1.88Z" id="path27401-6"/><g id="path27401"><path d="M32,60a2.48,2.48,0,0,1-2.17-1.25l-2.54-4.42a5.5,5.5,0,0,1,.16-5.65,2.53,2.53,0,0,1-2.52-1.27,2.51,2.51,0,0,1,1-3.4l1-.56-2.3-1.33,0,1.16a2.49,2.49,0,0,1-2.45,2.54,2.55,2.55,0,0,1-2.36-1.54,5.48,5.48,0,0,1-4.82,3H9.92A2.5,2.5,0,0,1,7.75,43.5l2.56-4.41a5.4,5.4,0,0,1,5-2.7,2.5,2.5,0,0,1,3.27-3.66l1,.6V30.67l-1,.6a2.5,2.5,0,0,1-3.27-3.67,5.5,5.5,0,0,1-5-2.69L7.75,20.5a2.5,2.5,0,0,1,2.17-3.75H15a5.48,5.48,0,0,1,4.82,3,2.58,2.58,0,0,1,2.36-1.54,2.49,2.49,0,0,1,2.45,2.54l0,1.15,2.3-1.32-1-.56a2.5,2.5,0,0,1,.52-4.59,2.53,2.53,0,0,1,1-.08,5.48,5.48,0,0,1-.15-5.65l2.53-4.42a2.51,2.51,0,0,1,4.34,0l2.54,4.42a5.5,5.5,0,0,1-.16,5.65A2.5,2.5,0,0,1,38.09,20l-1,.56,2.3,1.32,0-1.15a2.42,2.42,0,0,1,.7-1.78,2.45,2.45,0,0,1,1.75-.76,2.49,2.49,0,0,1,1.78.7,2.53,2.53,0,0,1,.58.84,5.49,5.49,0,0,1,4.82-3h5.09a2.5,2.5,0,0,1,2.17,3.75l-2.56,4.41a5.5,5.5,0,0,1-5,2.69,2.5,2.5,0,0,1,.16,2.81,2.47,2.47,0,0,1-1.54,1.14,2.5,2.5,0,0,1-1.89-.28l-1-.6v2.66l1-.6a2.5,2.5,0,0,1,1.89-.28,2.5,2.5,0,0,1,1.38,3.94,5.4,5.4,0,0,1,5,2.7l2.56,4.41a2.5,2.5,0,0,1-2.17,3.75H49a5.49,5.49,0,0,1-4.82-3,2.53,2.53,0,0,1-2.36,1.54,2.45,2.45,0,0,1-1.75-.76,2.42,2.42,0,0,1-.7-1.78l0-1.15-2.3,1.32,1,.56a2.51,2.51,0,0,1,1,3.4,2.53,2.53,0,0,1-2.52,1.27,5.5,5.5,0,0,1,.16,5.65l-2.54,4.42A2.48,2.48,0,0,1,32,60ZM30.5,45a1,1,0,0,1,.51.14,1,1,0,0,1,.49.86v1.21a1,1,0,0,1-.42.82L30,48.83a3.46,3.46,0,0,0-1,4.5l2.54,4.42a.49.49,0,0,0,.86,0L35,53.33a3.46,3.46,0,0,0-1-4.5l-1.07-.76a1,1,0,0,1-.42-.82V46a1,1,0,0,1,.49-.86,1,1,0,0,1,1,0l2.66,1.47a.53.53,0,0,0,.38,0,.5.5,0,0,0,.1-.92l-2.56-1.41a1,1,0,0,1,0-1.74l5.36-3.1a1,1,0,0,1,1,0,1,1,0,0,1,.49.88l0,2.92a.43.43,0,0,0,.14.36.46.46,0,0,0,.35.15.5.5,0,0,0,.51-.49l0-3a1,1,0,0,1,.51-.85,1,1,0,0,1,1,0l1.05.61a1,1,0,0,1,.49.77l.13,1.31A3.46,3.46,0,0,0,49,45.24h5.09a.53.53,0,0,0,.44-.25.5.5,0,0,0,0-.5L52,40.09a3.48,3.48,0,0,0-3.16-1.7,3.32,3.32,0,0,0-1.23.3l-1.2.55a1,1,0,0,1-.91-.05l-1.05-.6a1,1,0,0,1-.5-.86,1,1,0,0,1,.49-.86L47,35.3a.48.48,0,0,0,.17-.68.44.44,0,0,0-.3-.23.5.5,0,0,0-.38.06L44,36a1,1,0,0,1-1,0,1,1,0,0,1-.51-.87V28.9A1,1,0,0,1,43,28a1,1,0,0,1,1,0l2.51,1.5a.47.47,0,0,0,.38.06A.5.5,0,0,0,47,28.7L44.4,27.13a1,1,0,0,1-.49-.86,1,1,0,0,1,.5-.86l1.05-.6a1,1,0,0,1,.91,0l1.2.55A3.46,3.46,0,0,0,52,23.91l2.56-4.41a.5.5,0,0,0,0-.5.51.51,0,0,0-.44-.25H49a3.46,3.46,0,0,0-3.41,3.1l-.13,1.31a1,1,0,0,1-.49.77l-1.05.6a1,1,0,0,1-1.5-.84l0-3a.54.54,0,0,0-.15-.35.5.5,0,0,0-.35-.15h0a.46.46,0,0,0-.35.15.43.43,0,0,0-.14.35l0,2.93a1,1,0,0,1-.49.88,1,1,0,0,1-1,0l-5.36-3.1a1,1,0,0,1,0-1.74l2.56-1.41a.5.5,0,0,0-.1-.92.5.5,0,0,0-.38,0L34,18.83a1,1,0,0,1-1,0A1,1,0,0,1,32.5,18V16.75a1,1,0,0,1,.42-.82L34,15.17a3.47,3.47,0,0,0,1-4.51L32.43,6.25a.51.51,0,0,0-.86,0L29,10.66a3.47,3.47,0,0,0,1,4.51l1.07.76a1,1,0,0,1,.42.82V18a1,1,0,0,1-.49.86,1,1,0,0,1-1,0l-2.66-1.47a.53.53,0,0,0-.38,0,.51.51,0,0,0-.3.24.54.54,0,0,0,0,.38.51.51,0,0,0,.24.3l2.56,1.41a1,1,0,0,1,.51.87,1,1,0,0,1-.5.87l-5.36,3.1a1,1,0,0,1-1,0,1,1,0,0,1-.49-.88l.05-2.93a.43.43,0,0,0-.14-.35.46.46,0,0,0-.35-.15.53.53,0,0,0-.35.13.55.55,0,0,0-.16.36l-.05,3a1,1,0,0,1-.51.85,1,1,0,0,1-1,0L19,23.94a1,1,0,0,1-.49-.77l-.13-1.31A3.46,3.46,0,0,0,15,18.76H9.92a.51.51,0,0,0-.44.25.5.5,0,0,0,0,.5L12,23.91a3.47,3.47,0,0,0,4.39,1.4l1.2-.55a1,1,0,0,1,.91,0l1.05.6a1,1,0,0,1,.5.86,1,1,0,0,1-.49.86L17,28.7a.5.5,0,0,0,.13.91.47.47,0,0,0,.38-.06l2.5-1.5a1,1,0,0,1,1.52.85v6.2A1,1,0,0,1,20,36l-2.5-1.5a.5.5,0,0,0-.38-.06.46.46,0,0,0-.3.23.48.48,0,0,0,.17.68l2.59,1.57a1,1,0,0,1,.49.86,1,1,0,0,1-.5.86l-1.05.6a1,1,0,0,1-.91.05l-1.2-.55a3.32,3.32,0,0,0-1.23-.3A3.48,3.48,0,0,0,12,40.09L9.48,44.5a.5.5,0,0,0,0,.5.53.53,0,0,0,.44.25H15a3.46,3.46,0,0,0,3.41-3.1l.13-1.31a1,1,0,0,1,.49-.77l1.05-.61a1,1,0,0,1,1.5.85l.05,3a.5.5,0,0,0,.5.49h0a.46.46,0,0,0,.35-.15.43.43,0,0,0,.14-.36l-.05-2.92a1,1,0,0,1,.49-.88,1,1,0,0,1,1,0l5.36,3.1a1,1,0,0,1,.5.87,1,1,0,0,1-.51.87l-2.56,1.41a.51.51,0,0,0-.24.3.54.54,0,0,0,0,.38.51.51,0,0,0,.3.24.53.53,0,0,0,.38,0L30,45.17A.91.91,0,0,1,30.5,45ZM32,55.49a1,1,0,0,1-.87-.5L29.9,52.84a2.43,2.43,0,0,1,.69-3.2l.83-.59a1,1,0,0,1,1.16,0l.83.6a2.43,2.43,0,0,1,.7,3.19L32.87,55A1,1,0,0,1,32,55.49Zm0-4.39-.25.17a.42.42,0,0,0-.12.57l.37.64.37-.64a.42.42,0,0,0-.12-.57Zm19.48-6.86H49A2.42,2.42,0,0,1,46.58,42l-.1-1a1,1,0,0,1,.58-1L48,39.6a2.31,2.31,0,0,1,1.1-.22h0a2.38,2.38,0,0,1,2,1.22l1.24,2.14a1,1,0,0,1-.86,1.5Zm-2.94-2.69,0,.3a.41.41,0,0,0,.43.39h.74l-.37-.64a.43.43,0,0,0-.56-.18Zm-36,2.69a1,1,0,0,1-.86-1.5L12.9,40.6a2.38,2.38,0,0,1,2-1.22h0a2.31,2.31,0,0,1,1.1.22l.93.42a1,1,0,0,1,.58,1l-.1,1A2.42,2.42,0,0,1,15,44.24ZM15,41.38a.41.41,0,0,0-.35.22l-.37.64H15a.41.41,0,0,0,.43-.39l0-.3-.27-.13a.52.52,0,0,0-.21,0Zm0-1h0ZM32,42.77a1,1,0,0,1-.5-.14L23,37.75a1,1,0,0,1-.5-.87V27.12a1,1,0,0,1,.5-.87l8.46-4.88a1,1,0,0,1,1,0L41,26.25a1,1,0,0,1,.5.87v9.76a1,1,0,0,1-.5.87L32.5,42.63A1,1,0,0,1,32,42.77Zm-7.46-6.46L32,40.61l7.46-4.3V27.69L32,23.39l-7.46,4.3Zm7.46,2a1,1,0,0,1-.5-.14L26.93,35.5a1,1,0,0,1-.5-.86V29.36a1,1,0,0,1,.5-.86l4.57-2.64a1,1,0,0,1,1,0l4.57,2.64a1,1,0,0,1,.5.86v5.28a1,1,0,0,1-.5.86L32.5,38.14A1,1,0,0,1,32,38.28Zm-3.57-4.22L32,36.12l3.57-2.06V29.94L32,27.88l-3.57,2.06ZM49,24.62a2.39,2.39,0,0,1-1-.22L47.06,24a1,1,0,0,1-.58-1l.1-1A2.42,2.42,0,0,1,49,19.76h2.49a1,1,0,0,1,.86,1.5L51.1,23.4A2.42,2.42,0,0,1,49,24.62Zm-.46-2.17.28.13a.42.42,0,0,0,.55-.18l.37-.64H49a.41.41,0,0,0-.43.39ZM15,24.62a2.42,2.42,0,0,1-2.1-1.22l-1.24-2.14a1,1,0,0,1,.86-1.5H15A2.42,2.42,0,0,1,17.42,22l.1,1a1,1,0,0,1-.58,1L16,24.4A2.39,2.39,0,0,1,15,24.62Zm-.74-2.86.37.64a.42.42,0,0,0,.56.18l.27-.13,0-.3a.41.41,0,0,0-.43-.39ZM32,15.13a1,1,0,0,1-.58-.18l-.83-.6a2.42,2.42,0,0,1-.69-3.19L31.13,9a1,1,0,0,1,1.74,0l1.24,2.15a2.43,2.43,0,0,1-.7,3.19l-.83.6A1,1,0,0,1,32,15.13Zm0-3.62-.37.65a.42.42,0,0,0,.12.57l.25.17.25-.17a.42.42,0,0,0,.12-.57Z"/></g></g></svg>